SplineFontDB: 3.2
FontName: KawkabMono-Regular
FullName: Kawkab Mono Regular
FamilyName: Kawkab Mono Light
Weight: Regular
Copyright: Copyright \\(c\\) 2015, Abdullah Arif \\(abdullah.a@gmail.com\\).  Copyright 2010, 2012, 2014 Adobe Systems Incorporated \\(http://www.adobe.com/\\), with Reserved Font Name 'Source'. All Rights Reserved. Source is a trademark of Adobe Systems Incorporated in the United States and/or other countries.
Version: 000.501
ItalicAngle: 0
UnderlinePosition: -100
UnderlineWidth: 50
Ascent: 800
Descent: 200
InvalidEm: 0
sfntRevision: 0x00010000
LayerCount: 2
Layer: 0 0 "Back" 1
Layer: 1 0 "Fore" 0
XUID: [1021 503 -925390817 4572220]
StyleMap: 0x0020
FSType: 8
OS2Version: 3
OS2_WeightWidthSlopeOnly: 0
OS2_UseTypoMetrics: 0
CreationTime: 1452892837
ModificationTime: 1643340265
PfmFamily: 81
TTFWeight: 400
TTFWidth: 5
LineGap: 0
VLineGap: 0
Panose: 0 0 5 9 0 0 0 0 0 0
OS2TypoAscent: 1300
OS2TypoAOffset: 0
OS2TypoDescent: -650
OS2TypoDOffset: 0
OS2TypoLinegap: 0
OS2WinAscent: 1300
OS2WinAOffset: 0
OS2WinDescent: 650
OS2WinDOffset: 0
HheadAscent: 1300
HheadAOffset: 0
HheadDescent: -650
HheadDOffset: 0
OS2SubXSize: 650
OS2SubYSize: 600
OS2SubXOff: 0
OS2SubYOff: 75
OS2SupXSize: 650
OS2SupYSize: 600
OS2SupXOff: 0
OS2SupYOff: 350
OS2StrikeYSize: 50
OS2StrikeYPos: 258
OS2CapHeight: 890
OS2XHeight: 430
OS2Vendor: 'ADBE'
OS2CodePages: 600001df.00000000
OS2UnicodeRanges: 200022d7.02001802.00000008.00000000
Lookup: 1 0 0 "'aalt' Access All Alternates lookup 0" { "'aalt' Access All Alternates lookup 0 subtable"  } ['aalt' ('DFLT' <'dflt' > 'arab' <'URD ' 'dflt' > 'cyrl' <'SRB ' 'dflt' > 'grek' <'dflt' > 'latn' <'NSM ' 'SKS ' 'dflt' > ) ]
Lookup: 3 0 0 "'aalt' Access All Alternates lookup 1" { "'aalt' Access All Alternates lookup 1 subtable"  } ['aalt' ('DFLT' <'dflt' > 'arab' <'URD ' 'dflt' > 'cyrl' <'SRB ' 'dflt' > 'grek' <'dflt' > 'latn' <'NSM ' 'SKS ' 'dflt' > ) ]

StartChar: .notdef
Encoding: 1114112 -1 0
Width: 700
Flags: MW
HStem: 0 70<201 495 201 630> 698 72<215 484 215 215>
VStem: 71 78<131 664 131 770> 549 81<131 664 664 664>
LayerCount: 2
Fore
SplineSet
71 770 m 1
 630 770 l 1
 630 0 l 1
 71 0 l 1
 71 770 l 1
352 453 m 1
 409 562 l 1
 484 698 l 1
 215 698 l 1
 290 562 l 1
 347 453 l 1
 352 453 l 1
295 396 m 1
 149 664 l 1
 149 131 l 1
 295 396 l 1
549 131 m 1
 549 664 l 1
 404 396 l 1
 549 131 l 1
495 70 m 1
 412 221 l 1
 352 339 l 1
 347 339 l 1
 285 221 l 1
 201 70 l 1
 495 70 l 1
EndSplineSet
Validated: 1
EndChar

StartChar: uni0621
Encoding: 1569 1569 1
Width: 700
GlyphClass: 2
Flags: MW
HStem: -8.25 21G 353 80<372 401.5>
VStem: 254 58<265.5 300>
AnchorPoint: "Anchor-1" 360 640 basechar 0
AnchorPoint: "Anchor-0" 440 -80 basechar 0
LayerCount: 2
Fore
SplineSet
250 -5 m 0
 234 -11 227 -10 221 2 c 0
 217 9 214 20 214 26 c 0
 214 49 275 83 364 116 c 1
 295 132 254 174 254 250 c 0
 254 350 324 433 420 433 c 0
 494 433 524 384 524 351 c 0
 524 327 508 315 496 315 c 0
 476 315 433 353 370 353 c 0
 324 353 312 332 312 297 c 0
 312 234 351 155 444 155 c 0
 459 155 505 157 532 157 c 0
 573 157 608 151 608 125 c 0
 608 109 595 103 571 97 c 0
 477 71 409 60 250 -5 c 0
EndSplineSet
Validated: 1
EndChar

StartChar: uni0627
Encoding: 1575 1575 2
Width: 700
GlyphClass: 2
Flags: MW
HStem: 849 20G<376 376>
VStem: 280 100
AnchorPoint: "Anchor-1" 318 944 basechar 0
AnchorPoint: "Anchor-0" 400 -123 basechar 0
LayerCount: 2
Fore
SplineSet
320 -40 m 1
 280 762 l 1
 376 869 l 1
 384 110 l 1
 340 -40 l 1
 320 -40 l 1
EndSplineSet
Validated: 1
Substitution2: "'fina' Terminal Forms lookup 31 subtable" uniFE8E
Substitution2: "'aalt' Access All Alternates lookup 0 subtable" uniFE8E
EndChar

StartChar: uniFE8E
Encoding: 65166 65166 3
Width: 700
GlyphClass: 2
Flags: MW
HStem: 0 98<406 445 445 700>
VStem: 193 89<756 756>
AnchorPoint: "Anchor-1" 252 906 basechar 0
AnchorPoint: "Anchor-0" 385 -150 basechar 0
LayerCount: 2
Fore
SplineSet
445 0 m 2
 303 0 222 29 214 225 c 0
 208 409 209 512 193 756 c 1
 282 833 l 1
 282 271 l 2
 282 132 305 98 406 98 c 2
 700 98 l 1
 700 0 l 1
 445 0 l 2
EndSplineSet
Validated: 1
EndChar

StartChar: uni0627.short
Encoding: 1114203 -1 4
Width: 700
GlyphClass: 2
Flags: MW
HStem: 849 20G<376 376>
VStem: 280 100
AnchorPoint: "Anchor-1" 330 950 basechar 0
AnchorPoint: "Anchor-0" 380 -110 basechar 0
LayerCount: 2
Fore
SplineSet
320 -40 m 1
 280 762 l 1
 376 869 l 1
 384 110 l 1
 340 -40 l 1
 320 -40 l 1
EndSplineSet
Validated: 1
EndChar

StartChar: uniFE8E.short
Encoding: 1114204 -1 5
Width: 700
GlyphClass: 2
Flags: MW
HStem: 0 98<406 445 445 700>
VStem: 201 63
AnchorPoint: "Anchor-1" 240 800 basechar 0
AnchorPoint: "Anchor-0" 385 -150 basechar 0
LayerCount: 2
Fore
SplineSet
445 0 m 2
 302 0 208 30 201 183 c 0
 195 290 189 422 175 560 c 1
 264 637 l 1
 264 229 l 2
 264 134 287 98 406 98 c 2
 700 98 l 1
 700 0 l 1
 445 0 l 2
EndSplineSet
Validated: 1
EndChar

StartChar: uni0623
Encoding: 1571 1571 6
Width: 700
GlyphClass: 2
Flags: MW
HStem: 849 20G<376 376> 1209 56<303 321>
VStem: 219 37<1148.5 1158.5> 280 100
AnchorPoint: "Anchor-1" 310 1430 basechar 0
AnchorPoint: "Anchor-0" 380 -110 basechar 0
LayerCount: 2
Fore
SplineSet
212 948 m 0
 206 946 203 952 201 957 c 0
 198 968 195 974 195 980 c 0
 195 986 203 993 214 1000 c 2
 276 1035 l 1
 235 1052 219 1083 219 1119 c 0
 219 1198 267 1265 339 1265 c 0
 381 1265 397 1235 400 1203 c 0
 402 1189 393 1182 386 1182 c 0
 381 1182 337 1209 305 1209 c 0
 266 1209 256 1194 256 1164 c 0
 256 1133 263 1064 350 1064 c 0
 364 1064 393 1065 413 1065 c 0
 433 1065 448 1067 456 1053 c 2
 462 1044 l 2
 467 1034 453 1026 441 1023 c 0
 289 988 280 986 212 948 c 0
320 -40 m 1xf0
 280 762 l 1
 376 869 l 1
 384 110 l 1
 340 -40 l 1
 320 -40 l 1xf0
EndSplineSet
Validated: 33
Substitution2: "'fina' Terminal Forms lookup 31 subtable" uniFE84
Substitution2: "'aalt' Access All Alternates lookup 0 subtable" uniFE84
EndChar

StartChar: uniFE84
Encoding: 65156 65156 7
Width: 700
GlyphClass: 2
Flags: MW
HStem: 0 98<406 445 445 700> 1149 56<203 221>
VStem: 119 37<1088.5 1098.5> 193 89<756 756>
AnchorPoint: "Anchor-1" 230 1330 basechar 0
AnchorPoint: "Anchor-0" 420 -120 basechar 0
LayerCount: 2
Fore
SplineSet
112 888 m 0
 106 886 103 892 101 897 c 0
 98 908 95 914 95 920 c 0
 95 926 103 933 114 940 c 2
 176 975 l 1
 135 992 119 1023 119 1059 c 0
 119 1138 167 1205 239 1205 c 0
 281 1205 297 1175 300 1143 c 0
 302 1129 293 1122 286 1122 c 0
 281 1122 237 1149 205 1149 c 0
 166 1149 156 1134 156 1104 c 0
 156 1073 163 1004 250 1004 c 0
 264 1004 293 1005 313 1005 c 0
 333 1005 348 1007 356 993 c 2
 362 984 l 2
 367 974 353 966 341 963 c 0
 189 928 180 926 112 888 c 0
445 0 m 2
 303 0 222 29 214 225 c 0
 208 409 209 512 193 756 c 1
 282 833 l 1
 282 271 l 2
 282 132 305 98 406 98 c 2
 700 98 l 1
 700 0 l 1
 445 0 l 2
EndSplineSet
Validated: 33
EndChar

StartChar: uni0625
Encoding: 1573 1573 8
Width: 700
GlyphClass: 2
Flags: MW
HStem: -194 57<334 352> 849 20G<376 376>
VStem: 250 37<-253.5 -244> 280 100
AnchorPoint: "Anchor-1" 304 1045 basechar 0
AnchorPoint: "Anchor-0" 400 -500 basechar 0
LayerCount: 2
Fore
SplineSet
320 -40 m 1xd0
 280 762 l 1
 376 869 l 1
 384 110 l 1
 340 -40 l 1
 320 -40 l 1xd0
243 -454 m 0
 237 -457 234 -450 232 -446 c 0
 229 -435 226 -429 226 -422 c 0
 226 -416 234 -410 245 -403 c 2
 307 -368 l 1
 266 -350 250 -319 250 -283 c 0
 250 -205 298 -137 370 -137 c 0
 412 -137 428 -168 431 -199 c 0
 433 -214 424 -221 417 -221 c 0
 412 -221 368 -194 336 -194 c 0
 297 -194 287 -208 287 -238 c 0
 287 -269 294 -339 381 -339 c 0xe0
 395 -339 424 -337 444 -337 c 0
 464 -337 479 -335 487 -350 c 2
 493 -359 l 2
 498 -369 484 -377 472 -379 c 0
 320 -414 311 -416 243 -454 c 0
EndSplineSet
Validated: 33
Substitution2: "'fina' Terminal Forms lookup 31 subtable" uniFE88
Substitution2: "'aalt' Access All Alternates lookup 0 subtable" uniFE88
EndChar

StartChar: uniFE88
Encoding: 65160 65160 9
Width: 700
GlyphClass: 2
Flags: MW
HStem: -218 57<319 337> 0 98<406 445 445 700>
VStem: 193 89<756 756> 235 37<-277.5 -268>
AnchorPoint: "Anchor-1" 258 1000 basechar 0
AnchorPoint: "Anchor-0" 410 -500 basechar 0
LayerCount: 2
Fore
SplineSet
445 0 m 2xe0
 303 0 222 29 214 225 c 0
 208 409 209 512 193 756 c 1
 282 833 l 1
 282 271 l 2
 282 132 305 98 406 98 c 2
 700 98 l 1
 700 0 l 1
 445 0 l 2xe0
228 -478 m 0
 222 -481 219 -474 217 -470 c 0
 214 -459 211 -453 211 -446 c 0
 211 -440 219 -434 230 -427 c 2
 292 -392 l 1
 251 -374 235 -343 235 -307 c 0
 235 -229 283 -161 355 -161 c 0
 397 -161 413 -192 416 -223 c 0
 418 -238 409 -245 402 -245 c 0
 397 -245 353 -218 321 -218 c 0
 282 -218 272 -232 272 -262 c 0
 272 -293 279 -363 366 -363 c 0xd0
 380 -363 409 -361 429 -361 c 0
 449 -361 464 -359 472 -374 c 2
 478 -383 l 2
 483 -393 469 -401 457 -403 c 0
 305 -438 296 -440 228 -478 c 0
EndSplineSet
Validated: 33
EndChar

StartChar: uni0622
Encoding: 1570 1570 10
Width: 700
GlyphClass: 2
Flags: MW
HStem: 849 20G<376 376> 981 69<359 403.5 346 418.5>
VStem: 280 100
AnchorPoint: "Anchor-1" 350 1280 basechar 0
AnchorPoint: "Anchor-0" 380 -110 basechar 0
LayerCount: 2
Fore
SplineSet
160 964 m 1
 134 994 l 1
 159 1079 212 1115 251 1115 c 0
 295 1115 306 1050 386 1050 c 0
 421 1050 461 1064 557 1112 c 1
 575 1112 582 1079 554 1049 c 0
 531 1024 448 981 389 981 c 0
 329 981 264 1027 233 1082 c 1
 207 1069 184 1028 160 964 c 1
320 -40 m 1
 280 762 l 1
 376 869 l 1
 384 110 l 1
 340 -40 l 1
 320 -40 l 1
EndSplineSet
Validated: 33
Substitution2: "'fina' Terminal Forms lookup 31 subtable" uniFE82
Substitution2: "'aalt' Access All Alternates lookup 0 subtable" uniFE82
EndChar

StartChar: uniFE82
Encoding: 65154 65154 11
Width: 700
GlyphClass: 2
Flags: MW
HStem: 0 98<406 445 445 700> 931 69<249 293.5 236 308.5>
VStem: 193 89<756 756>
AnchorPoint: "Anchor-1" 290 1220 basechar 0
AnchorPoint: "Anchor-0" 420 -120 basechar 0
LayerCount: 2
Fore
SplineSet
50 914 m 1
 24 944 l 1
 49 1029 102 1065 141 1065 c 0
 185 1065 196 1000 276 1000 c 0
 311 1000 351 1014 447 1062 c 1
 465 1062 472 1029 444 999 c 0
 421 974 338 931 279 931 c 0
 219 931 154 977 123 1032 c 1
 97 1019 74 978 50 914 c 1
445 0 m 2
 303 0 222 29 214 225 c 0
 208 409 209 512 193 756 c 1
 282 833 l 1
 282 271 l 2
 282 132 305 98 406 98 c 2
 700 98 l 1
 700 0 l 1
 445 0 l 2
EndSplineSet
Validated: 33
EndChar

StartChar: uni0671
Encoding: 1649 1649 12
Width: 700
GlyphClass: 2
Flags: MW
HStem: 905 32<128 128> 905 46<382 427.5 382 429.5> 1075 51<429 471.5>
VStem: 243 28<982 1056 1034 1056> 280 100 519 30<987 1016>
AnchorPoint: "Anchor-1" 350 1250 basechar 0
AnchorPoint: "Anchor-0" 380 -110 basechar 0
LayerCount: 2
Fore
SplineSet
128 905 m 1xb4
 128 937 l 1
 204 945 243 960 243 982 c 2
 243 1034 l 1xb4
 271 1056 l 1
 267 1034 267 992 269 977 c 0
 270 968 272 964 274 964 c 0
 289 964 386 1126 472 1126 c 0
 519 1126 549 1077 549 1015 c 0
 549 921 483 905 376 905 c 0x74
 301 905 266 913 253 941 c 1
 217 906 194 904 128 905 c 1xb4
391 951 m 0x7c
 464 951 519 970 519 1004 c 0
 519 1028 491 1075 452 1075 c 0
 404 1075 344 1002 311 963 c 1
 340 952 373 951 391 951 c 0x7c
320 -37 m 1
 280 701 l 1
 376 799 l 1
 384 101 l 1
 340 -37 l 1
 320 -37 l 1
EndSplineSet
Validated: 33
Substitution2: "'fina' Terminal Forms lookup 31 subtable" uniFB51
Substitution2: "'aalt' Access All Alternates lookup 0 subtable" uniFB51
EndChar

StartChar: uniFB51
Encoding: 64337 64337 13
Width: 700
GlyphClass: 2
Flags: MW
HStem: 0 98<406 445 445 700> 925 32<79 79> 925 46<333 378.5 333 380.5> 1095 51<380 422.5>
VStem: 193 89<756 756> 194 28<1002 1076 1054 1076> 470 30<1007 1036>
AnchorPoint: "Anchor-1" 300 1250 basechar 0
AnchorPoint: "Anchor-0" 420 -120 basechar 0
LayerCount: 2
Fore
SplineSet
79 925 m 1xda
 79 957 l 1
 155 965 194 980 194 1002 c 2
 194 1054 l 1xd6
 222 1076 l 1
 218 1054 218 1012 220 997 c 0
 221 988 223 984 225 984 c 0
 240 984 337 1146 423 1146 c 0
 470 1146 500 1097 500 1035 c 0
 500 941 434 925 327 925 c 0xb6
 252 925 217 933 204 961 c 1
 168 926 145 924 79 925 c 1xda
342 971 m 0xba
 415 971 470 990 470 1024 c 0
 470 1048 442 1095 403 1095 c 0
 355 1095 295 1022 262 983 c 1
 291 972 324 971 342 971 c 0xba
445 0 m 2
 303 0 222 29 214 225 c 0
 208 409 209 512 193 756 c 1
 282 833 l 1
 282 271 l 2
 282 132 305 98 406 98 c 2
 700 98 l 1
 700 0 l 1
 445 0 l 2
EndSplineSet
Validated: 33
EndChar

StartChar: uni066E
Encoding: 1646 1646 14
Width: 700
GlyphClass: 2
Flags: MW
HStem: 0 98<203 213 213 482>
VStem: 0 73<184.5 191.5> 619 81<172 214>
AnchorPoint: "Anchor-1" 350 650 basechar 0
AnchorPoint: "Anchor-0" 420 -110 basechar 0
LayerCount: 2
Fore
SplineSet
213 0 m 2
 85 0 0 68 0 170 c 0
 0 213 27 302 68 393 c 1
 102 361 l 1
 85 317 73 258 73 211 c 0
 73 158 115 98 203 98 c 2
 511 98 l 2
 590 98 619 156 619 188 c 0
 619 240 602 318 577 383 c 1
 642 490 l 1
 677 400 700 294 700 225 c 0
 700 90 613 0 482 0 c 2
 213 0 l 2
EndSplineSet
Validated: 1
Substitution2: "'fina' Terminal Forms lookup 31 subtable" uni066E.fina
Substitution2: "'medi' Medial Forms lookup 30 subtable" uni066E.medi
Substitution2: "'init' Initial Forms lookup 29 subtable" uni066E.init
AlternateSubs2: "'aalt' Access All Alternates lookup 1 subtable" uni066E.init uni066E.medi uni066E.fina
EndChar

StartChar: uni066E.fina
Encoding: 1114205 -1 15
Width: 700
GlyphClass: 2
Flags: MW
HStem: 0 98<181 213 213 382 675.5 695 695 700>
VStem: 0 70.08 599 26.63
AnchorPoint: "Anchor-1" 350 650 basechar 0
AnchorPoint: "Anchor-0" 380 -110 basechar 0
LayerCount: 2
Fore
SplineSet
213 0 m 2
 86 0 0 65 0 166 c 0
 0 238 37 330 76 387 c 1
 104 384 l 1
 44 230 60 98 181 98 c 2
 437 98 l 2
 497 98 545 129 570 192 c 0
 583 226 590 263 591 276 c 1
 650 319 l 1
 637 248 637 255 628 212 c 0
 616 145 651 98 700 98 c 1
 700 0 l 1
 695 0 l 2
 652 0 617 44 599 140 c 1
 569 39 502 0 382 0 c 2
 213 0 l 2
EndSplineSet
Validated: 33
EndChar

StartChar: uni066E.medi
Encoding: 1114206 -1 16
Width: 700
GlyphClass: 2
Flags: MW
HStem: 0 98<0 230 230 239 0 230 645 700>
VStem: 423 83<169 232>
AnchorPoint: "Anchor-1" 350 710 basechar 0
AnchorPoint: "Anchor-0" 400 -110 basechar 0
LayerCount: 2
Fore
SplineSet
700 98 m 1
 700 0 l 1
 555 0 491 33 452 164 c 1
 414 47 364 0 239 0 c 2
 0 0 l 1
 0 98 l 1
 230 98 l 2
 345 98 423 120 423 217 c 0
 423 247 419 283 413 323 c 1
 506 406 l 1
 504 358 504 200 506 169 c 0
 510 118 590 98 700 98 c 1
EndSplineSet
Validated: 33
EndChar

StartChar: uni066E.init
Encoding: 1114207 -1 17
Width: 700
GlyphClass: 2
Flags: MW
HStem: 0 98<0 439 0 409>
VStem: 576 81<186 198.5>
AnchorPoint: "Anchor-1" 316 600 basechar 0
AnchorPoint: "Anchor-0" 450 -80 basechar 0
LayerCount: 2
Fore
SplineSet
0 0 m 1
 0 98 l 1
 439 98 l 2
 522 98 577 140 576 186 c 0
 576 211 557 307 536 379 c 1
 601 474 l 1
 619 417 657 282 657 213 c 0
 657 111 576 0 409 0 c 2
 0 0 l 1
EndSplineSet
Validated: 33
EndChar

StartChar: uni0628
Encoding: 1576 1576 18
Width: 700
GlyphClass: 2
Flags: MW
HStem: 0 98<203 213 213 482>
VStem: 0 73<184.5 191.5> 619 81<172 214>
AnchorPoint: "Anchor-1" 350 700 basechar 0
AnchorPoint: "Anchor-0" 420 -420 basechar 0
LayerCount: 2
Fore
SplineSet
213 0 m 2
 85 0 0 68 0 170 c 0
 0 213 27 302 68 393 c 1
 102 361 l 1
 85 317 73 258 73 211 c 0
 73 158 115 98 203 98 c 2
 511 98 l 2
 590 98 619 156 619 188 c 0
 619 240 602 318 577 383 c 1
 642 490 l 1
 677 400 700 294 700 225 c 0
 700 90 613 0 482 0 c 2
 213 0 l 2
351 -336 m 1
 282 -260 l 1
 351 -185 l 1
 419 -260 l 1
 351 -336 l 1
EndSplineSet
Validated: 1
Substitution2: "'fina' Terminal Forms lookup 31 subtable" uniFE90
Substitution2: "'medi' Medial Forms lookup 30 subtable" uniFE92
Substitution2: "'init' Initial Forms lookup 29 subtable" uniFE91
AlternateSubs2: "'aalt' Access All Alternates lookup 1 subtable" uniFE91 uniFE92 uniFE90
EndChar

StartChar: uniFE90
Encoding: 65168 65168 19
Width: 700
GlyphClass: 2
Flags: MW
HStem: 0 98<181 213 213 382 675.5 695 695 700>
VStem: 0 70.08 599 26.63
AnchorPoint: "Anchor-1" 350 650 basechar 0
AnchorPoint: "Anchor-0" 380 -420 basechar 0
LayerCount: 2
Fore
SplineSet
213 0 m 2
 86 0 0 65 0 166 c 0
 0 238 37 330 76 387 c 1
 104 384 l 1
 44 230 60 98 181 98 c 2
 437 98 l 2
 497 98 545 129 570 192 c 0
 583 226 590 263 591 276 c 1
 650 319 l 1
 637 248 637 255 628 212 c 0
 616 145 651 98 700 98 c 1
 700 0 l 1
 695 0 l 2
 652 0 617 44 599 140 c 1
 569 39 502 0 382 0 c 2
 213 0 l 2
351 -336 m 1
 282 -260 l 1
 351 -185 l 1
 419 -260 l 1
 351 -336 l 1
EndSplineSet
Validated: 33
EndChar

StartChar: uniFE92
Encoding: 65170 65170 20
Width: 700
GlyphClass: 2
Flags: MW
HStem: 0 98<0 230 230 239 0 230 645 700>
VStem: 423 83<169 232>
AnchorPoint: "Anchor-1" 350 710 basechar 0
AnchorPoint: "Anchor-0" 460 -450 basechar 0
LayerCount: 2
Fore
SplineSet
700 98 m 1
 700 0 l 1
 555 0 491 33 452 164 c 1
 414 47 364 0 239 0 c 2
 0 0 l 1
 0 98 l 1
 230 98 l 2
 345 98 423 120 423 217 c 0
 423 247 419 283 413 323 c 1
 506 406 l 1
 504 358 504 200 506 169 c 0
 510 118 590 98 700 98 c 1
385 -336 m 1
 316 -260 l 1
 385 -185 l 1
 453 -260 l 1
 385 -336 l 1
EndSplineSet
Validated: 33
EndChar

StartChar: uniFE91
Encoding: 65169 65169 21
Width: 700
GlyphClass: 2
Flags: MW
HStem: 0 98<0 439 0 409>
VStem: 576 81<186 198.5>
AnchorPoint: "Anchor-1" 320 680 basechar 0
AnchorPoint: "Anchor-0" 430 -450 basechar 0
LayerCount: 2
Fore
SplineSet
0 0 m 1
 0 98 l 1
 439 98 l 2
 522 98 577 140 576 186 c 0
 576 211 557 307 536 379 c 1
 601 474 l 1
 619 417 657 282 657 213 c 0
 657 111 576 0 409 0 c 2
 0 0 l 1
351 -336 m 1
 282 -260 l 1
 351 -185 l 1
 419 -260 l 1
 351 -336 l 1
EndSplineSet
Validated: 33
EndChar

StartChar: uni067E
Encoding: 1662 1662 22
Width: 700
GlyphClass: 2
Flags: MW
HStem: 0 98<203 213 213 482>
VStem: 0 73<184.5 191.5> 619 81<172 214>
AnchorPoint: "Anchor-1" 350 650 basechar 0
AnchorPoint: "Anchor-0" 400 -580 basechar 0
LayerCount: 2
Fore
SplineSet
213 0 m 2
 85 0 0 68 0 170 c 0
 0 213 27 302 68 393 c 1
 102 361 l 1
 85 317 73 258 73 211 c 0
 73 158 115 98 203 98 c 2
 511 98 l 2
 590 98 619 156 619 188 c 0
 619 240 602 318 577 383 c 1
 642 490 l 1
 677 400 700 294 700 225 c 0
 700 90 613 0 482 0 c 2
 213 0 l 2
436 -300 m 1
 368 -227 l 1
 434 -153 l 1
 501 -225 l 1
 436 -300 l 1
264 -302 m 1
 196 -228 l 1
 261 -155 l 1
 328 -227 l 1
 264 -302 l 1
348 -466 m 1
 280 -393 l 1
 345 -320 l 1
 412 -391 l 1
 348 -466 l 1
EndSplineSet
Validated: 1
Substitution2: "'fina' Terminal Forms lookup 31 subtable" uniFB57
Substitution2: "'medi' Medial Forms lookup 30 subtable" uniFB59
Substitution2: "'init' Initial Forms lookup 29 subtable" uniFB58
AlternateSubs2: "'aalt' Access All Alternates lookup 1 subtable" uniFB58 uniFB59 uniFB57
EndChar

StartChar: uniFB57
Encoding: 64343 64343 23
Width: 700
GlyphClass: 2
Flags: MW
HStem: 0 98<181 213 213 382 675.5 695 695 700>
VStem: 0 70.08 599 26.63
AnchorPoint: "Anchor-1" 350 600 basechar 0
AnchorPoint: "Anchor-0" 380 -580 basechar 0
LayerCount: 2
Fore
SplineSet
213 0 m 2
 86 0 0 65 0 166 c 0
 0 238 37 330 76 387 c 1
 104 384 l 1
 44 230 60 98 181 98 c 2
 437 98 l 2
 497 98 545 129 570 192 c 0
 583 226 590 263 591 276 c 1
 650 319 l 1
 637 248 637 255 628 212 c 0
 616 145 651 98 700 98 c 1
 700 0 l 1
 695 0 l 2
 652 0 617 44 599 140 c 1
 569 39 502 0 382 0 c 2
 213 0 l 2
426 -300 m 1
 358 -227 l 1
 424 -153 l 1
 491 -225 l 1
 426 -300 l 1
254 -302 m 1
 186 -228 l 1
 251 -155 l 1
 318 -227 l 1
 254 -302 l 1
338 -466 m 1
 270 -393 l 1
 335 -320 l 1
 402 -391 l 1
 338 -466 l 1
EndSplineSet
Validated: 33
EndChar

StartChar: uniFB59
Encoding: 64345 64345 24
Width: 700
GlyphClass: 2
Flags: MW
HStem: 0 98<0 230 230 239 0 230 645 700>
VStem: 423 83<169 232>
AnchorPoint: "Anchor-1" 350 700 basechar 0
AnchorPoint: "Anchor-0" 350 -580 basechar 0
LayerCount: 2
Fore
SplineSet
700 98 m 1
 700 0 l 1
 555 0 491 33 452 164 c 1
 414 47 364 0 239 0 c 2
 0 0 l 1
 0 98 l 1
 230 98 l 2
 345 98 423 120 423 217 c 0
 423 247 419 283 413 323 c 1
 506 406 l 1
 504 358 504 200 506 169 c 0
 510 118 590 98 700 98 c 1
439 -300 m 1
 371 -227 l 1
 437 -153 l 1
 504 -225 l 1
 439 -300 l 1
267 -302 m 1
 199 -228 l 1
 264 -155 l 1
 331 -227 l 1
 267 -302 l 1
351 -466 m 1
 283 -393 l 1
 348 -320 l 1
 415 -391 l 1
 351 -466 l 1
EndSplineSet
Validated: 33
EndChar

StartChar: uniFB58
Encoding: 64344 64344 25
Width: 700
GlyphClass: 2
Flags: MW
HStem: 0 98<0 439 0 409>
VStem: 576 81<186 198.5>
AnchorPoint: "Anchor-1" 380 600 basechar 0
AnchorPoint: "Anchor-0" 430 -580 basechar 0
LayerCount: 2
Fore
SplineSet
0 0 m 1
 0 98 l 1
 439 98 l 2
 522 98 577 140 576 186 c 0
 576 211 557 307 536 379 c 1
 601 474 l 1
 619 417 657 282 657 213 c 0
 657 111 576 0 409 0 c 2
 0 0 l 1
461 -300 m 1
 393 -227 l 1
 459 -153 l 1
 526 -225 l 1
 461 -300 l 1
289 -302 m 1
 221 -228 l 1
 286 -155 l 1
 353 -227 l 1
 289 -302 l 1
373 -466 m 1
 305 -393 l 1
 370 -320 l 1
 437 -391 l 1
 373 -466 l 1
EndSplineSet
Validated: 33
EndChar

StartChar: uni062A
Encoding: 1578 1578 26
Width: 700
GlyphClass: 2
Flags: MW
HStem: 0 98<203 213 213 482>
VStem: 0 73<184.5 191.5> 619 81<172 214>
AnchorPoint: "Anchor-1" 340 900 basechar 0
AnchorPoint: "Anchor-0" 420 -110 basechar 0
LayerCount: 2
Fore
SplineSet
449 552 m 1
 379 626 l 1
 446 701 l 1
 515 628 l 1
 449 552 l 1
261 549 m 1
 191 623 l 1
 257 698 l 1
 326 626 l 1
 261 549 l 1
213 0 m 2
 85 0 0 68 0 170 c 0
 0 213 27 302 68 393 c 1
 102 361 l 1
 85 317 73 258 73 211 c 0
 73 158 115 98 203 98 c 2
 511 98 l 2
 590 98 619 156 619 188 c 0
 619 240 602 318 577 383 c 1
 642 490 l 1
 677 400 700 294 700 225 c 0
 700 90 613 0 482 0 c 2
 213 0 l 2
EndSplineSet
Validated: 1
Substitution2: "'fina' Terminal Forms lookup 31 subtable" uniFE96
Substitution2: "'medi' Medial Forms lookup 30 subtable" uniFE98
Substitution2: "'init' Initial Forms lookup 29 subtable" uniFE97
AlternateSubs2: "'aalt' Access All Alternates lookup 1 subtable" uniFE97 uniFE98 uniFE96
EndChar

StartChar: uniFE96
Encoding: 65174 65174 27
Width: 700
GlyphClass: 2
Flags: MW
HStem: 0 98<181 213 213 382 675.5 695 695 700>
VStem: 0 70.08 599 26.63
AnchorPoint: "Anchor-1" 346 900 basechar 0
AnchorPoint: "Anchor-0" 380 -110 basechar 0
LayerCount: 2
Fore
SplineSet
471 552 m 1
 401 626 l 1
 468 701 l 1
 537 628 l 1
 471 552 l 1
283 549 m 1
 213 623 l 1
 279 698 l 1
 348 626 l 1
 283 549 l 1
213 0 m 2
 86 0 0 65 0 166 c 0
 0 238 37 330 76 387 c 1
 104 384 l 1
 44 230 60 98 181 98 c 2
 437 98 l 2
 497 98 545 129 570 192 c 0
 583 226 590 263 591 276 c 1
 650 319 l 1
 637 248 637 255 628 212 c 0
 616 145 651 98 700 98 c 1
 700 0 l 1
 695 0 l 2
 652 0 617 44 599 140 c 1
 569 39 502 0 382 0 c 2
 213 0 l 2
EndSplineSet
Validated: 33
EndChar

StartChar: uniFE98
Encoding: 65176 65176 28
Width: 700
GlyphClass: 2
Flags: MW
HStem: 0 98<0 230 230 239 0 230 645 700>
VStem: 423 83<169 232>
AnchorPoint: "Anchor-1" 315 900 basechar 0
AnchorPoint: "Anchor-0" 446 -110 basechar 0
LayerCount: 2
Fore
SplineSet
380 552 m 1
 310 626 l 1
 377 701 l 1
 446 628 l 1
 380 552 l 1
192 549 m 1
 122 623 l 1
 188 698 l 1
 257 626 l 1
 192 549 l 1
700 98 m 1
 700 0 l 1
 555 0 491 33 452 164 c 1
 414 47 364 0 239 0 c 2
 0 0 l 1
 0 98 l 1
 230 98 l 2
 345 98 423 120 423 217 c 0
 423 247 419 283 413 323 c 1
 506 406 l 1
 504 358 504 200 506 169 c 0
 510 118 590 98 700 98 c 1
EndSplineSet
Validated: 33
EndChar

StartChar: uniFE97
Encoding: 65175 65175 29
Width: 700
GlyphClass: 2
Flags: MW
HStem: 0 98<0 439 0 409>
VStem: 576 81<186 198.5>
AnchorPoint: "Anchor-1" 290 900 basechar 0
AnchorPoint: "Anchor-0" 450 -110 basechar 0
LayerCount: 2
Fore
SplineSet
380 552 m 1
 310 626 l 1
 377 701 l 1
 446 628 l 1
 380 552 l 1
192 549 m 1
 122 623 l 1
 188 698 l 1
 257 626 l 1
 192 549 l 1
0 0 m 1
 0 98 l 1
 439 98 l 2
 522 98 577 140 576 186 c 0
 576 211 557 307 536 379 c 1
 601 474 l 1
 619 417 657 282 657 213 c 0
 657 111 576 0 409 0 c 2
 0 0 l 1
EndSplineSet
Validated: 33
EndChar

StartChar: uni062B
Encoding: 1579 1579 30
Width: 700
GlyphClass: 2
Flags: MW
HStem: 0 98<203 213 213 482>
VStem: 0 73<184.5 191.5> 619 81<172 214>
AnchorPoint: "Anchor-1" 350 1030 basechar 0
AnchorPoint: "Anchor-0" 420 -110 basechar 0
LayerCount: 2
Fore
SplineSet
348 693 m 1
 279 769 l 1
 348 844 l 1
 416 769 l 1
 348 693 l 1
281 523 m 1
 212 599 l 1
 281 674 l 1
 349 599 l 1
 281 523 l 1
447 523 m 1
 378 599 l 1
 447 674 l 1
 515 599 l 1
 447 523 l 1
213 0 m 2
 85 0 0 68 0 170 c 0
 0 213 27 302 68 393 c 1
 102 361 l 1
 85 317 73 258 73 211 c 0
 73 158 115 98 203 98 c 2
 511 98 l 2
 590 98 619 156 619 188 c 0
 619 240 602 318 577 383 c 1
 642 490 l 1
 677 400 700 294 700 225 c 0
 700 90 613 0 482 0 c 2
 213 0 l 2
EndSplineSet
Validated: 1
Substitution2: "'fina' Terminal Forms lookup 31 subtable" uniFE9A
Substitution2: "'medi' Medial Forms lookup 30 subtable" uniFE9C
Substitution2: "'init' Initial Forms lookup 29 subtable" uniFE9B
AlternateSubs2: "'aalt' Access All Alternates lookup 1 subtable" uniFE9B uniFE9C uniFE9A
EndChar

StartChar: uniFE9A
Encoding: 65178 65178 31
Width: 700
GlyphClass: 2
Flags: MW
HStem: 0 98<181 213 213 382 675.5 695 695 700>
VStem: 0 70.08 599 26.63
AnchorPoint: "Anchor-1" 320 1000 basechar 0
AnchorPoint: "Anchor-0" 380 -110 basechar 0
LayerCount: 2
Fore
SplineSet
353 638 m 1
 284 714 l 1
 353 789 l 1
 421 714 l 1
 353 638 l 1
286 468 m 1
 217 544 l 1
 286 619 l 1
 354 544 l 1
 286 468 l 1
452 468 m 1
 383 544 l 1
 452 619 l 1
 520 544 l 1
 452 468 l 1
213 0 m 2
 86 0 0 65 0 166 c 0
 0 238 37 330 76 387 c 1
 104 384 l 1
 44 230 60 98 181 98 c 2
 437 98 l 2
 497 98 545 129 570 192 c 0
 583 226 590 263 591 276 c 1
 650 319 l 1
 637 248 637 255 628 212 c 0
 616 145 651 98 700 98 c 1
 700 0 l 1
 695 0 l 2
 652 0 617 44 599 140 c 1
 569 39 502 0 382 0 c 2
 213 0 l 2
EndSplineSet
Validated: 33
EndChar

StartChar: uniFE9C
Encoding: 65180 65180 32
Width: 700
GlyphClass: 2
Flags: MW
HStem: 0 98<0 230 230 239 0 230 645 700>
VStem: 423 83<169 232>
AnchorPoint: "Anchor-1" 338 1030 basechar 0
AnchorPoint: "Anchor-0" 440 -110 basechar 0
LayerCount: 2
Fore
SplineSet
288 693 m 1
 219 769 l 1
 288 844 l 1
 356 769 l 1
 288 693 l 1
221 523 m 1
 152 599 l 1
 221 674 l 1
 289 599 l 1
 221 523 l 1
387 523 m 1
 318 599 l 1
 387 674 l 1
 455 599 l 1
 387 523 l 1
700 98 m 1
 700 0 l 1
 555 0 491 33 452 164 c 1
 414 47 364 0 239 0 c 2
 0 0 l 1
 0 98 l 1
 230 98 l 2
 345 98 423 120 423 217 c 0
 423 247 419 283 413 323 c 1
 506 406 l 1
 504 358 504 200 506 169 c 0
 510 118 590 98 700 98 c 1
EndSplineSet
Validated: 33
EndChar

StartChar: uniFE9B
Encoding: 65179 65179 33
Width: 700
GlyphClass: 2
Flags: MW
HStem: 0 98<0 439 0 409>
VStem: 576 81<186 198.5>
AnchorPoint: "Anchor-1" 290 1030 basechar 0
AnchorPoint: "Anchor-0" 450 -110 basechar 0
LayerCount: 2
Fore
SplineSet
243 693 m 1
 174 769 l 1
 243 844 l 1
 311 769 l 1
 243 693 l 1
176 523 m 1
 107 599 l 1
 176 674 l 1
 244 599 l 1
 176 523 l 1
342 523 m 1
 273 599 l 1
 342 674 l 1
 410 599 l 1
 342 523 l 1
0 0 m 1
 0 98 l 1
 439 98 l 2
 522 98 577 140 576 186 c 0
 576 211 557 307 536 379 c 1
 601 474 l 1
 619 417 657 282 657 213 c 0
 657 111 576 0 409 0 c 2
 0 0 l 1
EndSplineSet
Validated: 33
EndChar

StartChar: uni0679
Encoding: 1657 1657 34
Width: 700
GlyphClass: 2
Flags: MW
HStem: 0 98<203 213 213 482> 551 45 551 49<178 385.5> 700 44<372.5 392> 861 20G<265 265>
VStem: 0 73<184.5 191.5> 240 23 436 28<622 653> 619 81<172 214>
AnchorPoint: "Anchor-1" 360 1030 basechar 0
AnchorPoint: "Anchor-0" 420 -80 basechar 0
LayerCount: 2
Fore
SplineSet
464 640 m 0xbf80
 464 576 423 551 338 551 c 2
 178 551 l 1xbf80
 178 583 194 595 205 596 c 0
 215 597 226 597 233 601 c 1
 239 619 241 634 240 669 c 0xdf80
 239 751 238 822 232 852 c 1
 265 881 l 1
 275 833 l 1
 265 802 265 711 263 642 c 1
 302 695 350 744 395 744 c 0
 444 744 464 685 464 640 c 0xbf80
378 700 m 0
 345 700 307 656 260 599 c 1
 362 600 l 2
 409 600 436 607 436 637 c 0
 436 669 406 700 378 700 c 0
642 490 m 1
 677 400 700 294 700 225 c 0
 700 90 613 0 482 0 c 2
 213 0 l 2
 85 0 0 68 0 170 c 0
 0 213 27 302 68 393 c 1
 102 361 l 1
 85 317 73 258 73 211 c 0
 73 158 115 98 203 98 c 2
 511 98 l 2
 590 98 619 156 619 188 c 0
 619 240 602 318 577 383 c 1
 642 490 l 1
EndSplineSet
Validated: 33
Substitution2: "'fina' Terminal Forms lookup 31 subtable" uniFB67
Substitution2: "'medi' Medial Forms lookup 30 subtable" uniFB69
Substitution2: "'init' Initial Forms lookup 29 subtable" uniFB68
AlternateSubs2: "'aalt' Access All Alternates lookup 1 subtable" uniFB68 uniFB69 uniFB67
EndChar

StartChar: uniFB67
Encoding: 64359 64359 35
Width: 700
GlyphClass: 2
Flags: MW
HStem: 0 98<181 213 213 382 675.5 695 695 700> 502 49<208 415.5> 651 44<402.5 422>
VStem: 0 70.08 270 23 466 28<573 604> 599 26.63
AnchorPoint: "Anchor-1" 320 1000 basechar 0
AnchorPoint: "Anchor-0" 380 -110 basechar 0
LayerCount: 2
Fore
SplineSet
494 591 m 0
 494 527 453 502 368 502 c 2
 208 502 l 1
 208 534 224 546 235 547 c 0
 245 548 256 548 263 552 c 1
 269 570 271 585 270 620 c 0
 269 702 268 773 262 803 c 1
 295 832 l 1
 305 784 l 1
 295 753 295 662 293 593 c 1
 332 646 380 695 425 695 c 0
 474 695 494 636 494 591 c 0
408 651 m 0
 375 651 337 607 290 550 c 1
 392 551 l 2
 439 551 466 558 466 588 c 0
 466 620 436 651 408 651 c 0
628 212 m 0
 616 145 651 98 700 98 c 1
 700 0 l 1
 695 0 l 2
 652 0 617 44 599 140 c 1
 569 39 502 0 382 0 c 2
 213 0 l 2
 86 0 0 65 0 166 c 0
 0 238 37 330 76 387 c 1
 104 384 l 1
 44 230 60 98 181 98 c 2
 437 98 l 2
 497 98 545 129 570 192 c 0
 583 226 590 263 591 276 c 1
 650 319 l 1
 637 248 637 255 628 212 c 0
EndSplineSet
Validated: 33
EndChar

StartChar: uniFB69
Encoding: 64361 64361 36
Width: 700
GlyphClass: 2
Flags: MW
HStem: 0 98<0 230 230 239 0 230 645 700> 522 49<118 325.5> 593 20G 671 44<312.5 332>
VStem: 180 23 376 28<593 624> 423 83<169 232>
AnchorPoint: "Anchor-1" 350 1030 basechar 0
AnchorPoint: "Anchor-0" 440 -110 basechar 0
LayerCount: 2
Fore
SplineSet
404 611 m 0
 404 547 363 522 278 522 c 2
 118 522 l 1
 118 554 134 566 145 567 c 0
 155 568 166 568 173 572 c 1
 179 590 181 605 180 640 c 0
 179 722 178 793 172 823 c 1
 205 852 l 1
 215 804 l 1
 205 773 205 682 203 613 c 1
 242 666 290 715 335 715 c 0
 384 715 404 656 404 611 c 0
318 671 m 0
 285 671 247 627 200 570 c 1
 302 571 l 2
 349 571 376 578 376 608 c 0
 376 640 346 671 318 671 c 0
506 169 m 0xfa
 510 118 590 98 700 98 c 1
 700 0 l 1
 555 0 491 33 452 164 c 1
 414 47 364 0 239 0 c 2
 0 0 l 1
 0 98 l 1
 230 98 l 2
 345 98 423 120 423 217 c 0
 423 247 419 283 413 323 c 1
 506 406 l 1
 504 358 504 200 506 169 c 0xfa
EndSplineSet
Validated: 33
EndChar

StartChar: uniFB68
Encoding: 64360 64360 37
Width: 700
GlyphClass: 2
Flags: MW
HStem: 0 98<0 409 0 439> 552 45 552 49<158 365.5> 701 44<352.5 372>
VStem: 220 23 416 28<623 654> 576 81<186 198.5>
AnchorPoint: "Anchor-1" 290 1030 basechar 0
AnchorPoint: "Anchor-0" 450 -110 basechar 0
LayerCount: 2
Fore
SplineSet
444 641 m 0xbe
 444 577 403 552 318 552 c 2
 158 552 l 1xbe
 158 584 174 596 185 597 c 0
 195 598 206 598 213 602 c 1
 219 620 221 635 220 670 c 0xde
 219 752 218 823 212 853 c 1
 245 882 l 1
 255 834 l 1
 245 803 245 712 243 643 c 1
 282 696 330 745 375 745 c 0
 424 745 444 686 444 641 c 0xbe
358 701 m 0
 325 701 287 657 240 600 c 1
 342 601 l 2
 389 601 416 608 416 638 c 0
 416 670 386 701 358 701 c 0
601 474 m 1
 619 417 657 282 657 213 c 0
 657 111 576 0 409 0 c 2
 0 0 l 1
 0 98 l 1
 439 98 l 2
 522 98 577 140 576 186 c 0
 576 211 557 307 536 379 c 1
 601 474 l 1
EndSplineSet
Validated: 33
EndChar

StartChar: uni062C
Encoding: 1580 1580 38
Width: 700
GlyphClass: 2
Flags: MW
HStem: -486 94<276.5 408.5> 366 99<280.5 340>
VStem: 33 77<-218.5 -63>
AnchorPoint: "Anchor-1" 350 677 basechar 0
AnchorPoint: "Anchor-0" 420 -560 basechar 0
LayerCount: 2
Fore
SplineSet
363 -392 m 0
 478 -392 564 -339 622 -282 c 1
 637 -300 l 1
 587 -391 490 -486 327 -486 c 0
 142 -486 33 -365 33 -180 c 0
 33 54 209 228 542 295 c 1
 443 337 379 366 301 366 c 0
 229 366 151 341 88 304 c 1
 80 310 l 1
 123 405 l 1
 180 448 249 465 312 465 c 0
 462 465 494 370 664 364 c 1
 666 340 633 277 625 256 c 1
 493 264 110 147 110 -150 c 0
 110 -287 190 -392 363 -392 c 0
437 -133 m 1
 368 -57 l 1
 437 18 l 1
 505 -57 l 1
 437 -133 l 1
EndSplineSet
Validated: 33
Substitution2: "'fina' Terminal Forms lookup 31 subtable" uniFE9E
Substitution2: "'medi' Medial Forms lookup 30 subtable" uniFEA0
Substitution2: "'init' Initial Forms lookup 29 subtable" uniFE9F
AlternateSubs2: "'aalt' Access All Alternates lookup 1 subtable" uniFE9F uniFEA0 uniFE9E
EndChar

StartChar: uniFE9E
Encoding: 65182 65182 39
Width: 700
GlyphClass: 2
Flags: MW
HStem: -468 94<276.5 408.5> 0 98<596 616 616 700> 384 99<280.5 340>
VStem: 33 77<-200.5 -45>
AnchorPoint: "Anchor-1" 350 780 basechar 0
AnchorPoint: "Anchor-0" 420 -560 basechar 0
LayerCount: 2
Fore
SplineSet
616 0 m 2
 512 0 440 77 436 239 c 1
 283 186 110 67 110 -132 c 0
 110 -269 190 -374 363 -374 c 0
 478 -374 564 -321 622 -264 c 1
 637 -282 l 1
 587 -373 490 -468 327 -468 c 0
 142 -468 33 -347 33 -162 c 0
 33 72 209 246 542 313 c 1
 443 355 379 384 301 384 c 0
 229 384 151 359 88 322 c 1
 80 328 l 1
 123 423 l 1
 180 466 249 483 312 483 c 0
 462 483 494 388 664 382 c 1
 666 358 633 295 625 274 c 1
 591 276 539 270 482 254 c 1
 496 125 541 98 596 98 c 2
 700 98 l 1
 700 0 l 1
 616 0 l 2
396 -207 m 1
 327 -131 l 1
 396 -56 l 1
 464 -131 l 1
 396 -207 l 1
EndSplineSet
Validated: 33
EndChar

StartChar: uniFEA0
Encoding: 65184 65184 40
Width: 700
GlyphClass: 2
Flags: MW
HStem: 0 98<0 185 185 194 0 185 678 700> 380 97<294.5 334>
VStem: 574 34
AnchorPoint: "Anchor-1" 380 780 basechar 0
AnchorPoint: "Anchor-0" 420 -500 basechar 0
LayerCount: 2
Fore
SplineSet
678 98 m 2
 700 98 l 1
 700 0 l 1
 678 0 l 2
 591 0 576 118 574 187 c 1
 555 160 530 131 494 100 c 0
 381 3 283 0 194 0 c 2
 0 0 l 1
 0 98 l 1
 185 98 l 2
 241 98 404 102 510 181 c 0
 553 213 572 247 598 308 c 1
 437 366 365 380 303 380 c 0
 230 380 182 361 127 317 c 1
 119 323 l 1
 144 417 l 1
 202 457 263 477 326 477 c 0
 458 477 565 388 679 370 c 1
 665 291 l 1
 640 290 627 270 608 239 c 1
 608 141 615 98 678 98 c 2
282 -260 m 1
 351 -185 l 1
 419 -260 l 1
 351 -336 l 1
 282 -260 l 1
EndSplineSet
Validated: 1
EndChar

StartChar: uniFE9F
Encoding: 65183 65183 41
Width: 700
GlyphClass: 2
Flags: MW
HStem: 0 98<0 185 0 185 185 194> 379 98<294.5 323.5>
VStem: 0 679<0 370 98 370>
AnchorPoint: "Anchor-1" 380 780 basechar 0
AnchorPoint: "Anchor-0" 420 -500 basechar 0
LayerCount: 2
Fore
SplineSet
0 0 m 1
 0 98 l 1
 185 98 l 2
 241 98 404 102 509 180 c 0
 553 213 572 247 598 308 c 1
 435 367 351 379 296 379 c 0
 230 379 173 362 121 317 c 1
 113 323 l 1
 144 417 l 1
 202 457 263 477 326 477 c 0
 458 477 565 388 679 370 c 1
 665 303 l 1
 609 299 625 203 500 94 c 0
 395 2 274 0 194 0 c 2
 0 0 l 1
351 -336 m 1
 282 -260 l 1
 351 -185 l 1
 419 -260 l 1
 351 -336 l 1
EndSplineSet
Validated: 1
EndChar

StartChar: uni0686
Encoding: 1670 1670 42
Width: 700
GlyphClass: 2
Flags: MW
HStem: -486 94<276.5 408.5> -14 21G<577 577> 366 99<280.5 340>
VStem: 33 77<-218.5 -63>
AnchorPoint: "Anchor-1" 350 677 basechar 0
AnchorPoint: "Anchor-0" 420 -560 basechar 0
LayerCount: 2
Fore
SplineSet
363 -392 m 0
 478 -392 564 -339 622 -282 c 1
 637 -300 l 1
 587 -391 490 -486 327 -486 c 0
 142 -486 33 -365 33 -180 c 0
 33 54 209 228 542 295 c 1
 443 337 379 366 301 366 c 0
 229 366 151 341 88 304 c 1
 80 310 l 1
 123 405 l 1
 180 448 249 465 312 465 c 0
 462 465 494 370 664 364 c 1
 666 340 633 277 625 256 c 1
 493 264 110 147 110 -150 c 0
 110 -287 190 -392 363 -392 c 0
577 -14 m 1
 514 -86 l 1
 449 -16 l 1
 512 55 l 1
 577 -14 l 1
284 -17 m 1
 347 53 l 1
 411 -16 l 1
 349 -88 l 1
 284 -17 l 1
492 -174 m 1
 430 -246 l 1
 364 -175 l 1
 427 -105 l 1
 492 -174 l 1
EndSplineSet
Validated: 33
Substitution2: "'fina' Terminal Forms lookup 31 subtable" uniFB7B
Substitution2: "'medi' Medial Forms lookup 30 subtable" uniFB7D
Substitution2: "'init' Initial Forms lookup 29 subtable" uniFB7C
AlternateSubs2: "'aalt' Access All Alternates lookup 1 subtable" uniFB7C uniFB7D uniFB7B
EndChar

StartChar: uniFB7B
Encoding: 64379 64379 43
Width: 700
GlyphClass: 2
Flags: MW
HStem: -468 94<276.5 408.5> 0 98<596 616 616 700> 384 99<280.5 340>
VStem: 33 77<-200.5 -45>
AnchorPoint: "Anchor-1" 350 700 basechar 0
AnchorPoint: "Anchor-0" 420 -530 basechar 0
LayerCount: 2
Fore
SplineSet
700 0 m 1
 616 0 l 2
 512 0 440 77 436 239 c 1
 283 186 110 67 110 -132 c 0
 110 -269 190 -374 363 -374 c 0
 478 -374 564 -321 622 -264 c 1
 637 -282 l 1
 587 -373 490 -468 327 -468 c 0
 142 -468 33 -347 33 -162 c 0
 33 72 209 246 542 313 c 1
 443 355 379 384 301 384 c 0
 229 384 151 359 88 322 c 1
 80 328 l 1
 123 423 l 1
 180 466 249 483 312 483 c 0
 462 483 494 388 664 382 c 1
 666 358 633 295 625 274 c 1
 591 276 539 270 482 254 c 1
 496 125 541 98 596 98 c 2
 700 98 l 1
 700 0 l 1
514 -69 m 1
 454 -138 l 1
 391 -70 l 1
 452 -3 l 1
 514 -69 l 1
233 -72 m 1
 293 -5 l 1
 355 -70 l 1
 296 -139 l 1
 233 -72 l 1
432 -222 m 1
 373 -291 l 1
 310 -224 l 1
 371 -156 l 1
 432 -222 l 1
EndSplineSet
Validated: 33
EndChar

StartChar: uniFB7D
Encoding: 64381 64381 44
Width: 700
GlyphClass: 2
Flags: MW
HStem: 0 98<0 185 185 194 0 185 678 700> 380 97<294.5 334>
VStem: 574 34
AnchorPoint: "Anchor-1" 380 780 basechar 0
AnchorPoint: "Anchor-0" 380 -580 basechar 0
LayerCount: 2
Fore
SplineSet
678 98 m 2
 700 98 l 1
 700 0 l 1
 678 0 l 2
 591 0 576 118 574 187 c 1
 555 160 530 131 494 100 c 0
 381 3 283 0 194 0 c 2
 0 0 l 1
 0 98 l 1
 185 98 l 2
 241 98 404 102 510 181 c 0
 553 213 572 247 598 308 c 1
 437 366 365 380 303 380 c 0
 230 380 182 361 127 317 c 1
 119 323 l 1
 144 417 l 1
 202 457 263 477 326 477 c 0
 458 477 565 388 679 370 c 1
 665 291 l 1
 640 290 627 270 608 239 c 1
 608 141 615 98 678 98 c 2
383 -227 m 1
 449 -153 l 1
 516 -225 l 1
 451 -300 l 1
 383 -227 l 1
276 -155 m 1
 343 -227 l 1
 279 -302 l 1
 211 -228 l 1
 276 -155 l 1
295 -393 m 1
 360 -320 l 1
 427 -391 l 1
 363 -466 l 1
 295 -393 l 1
EndSplineSet
Validated: 1
EndChar

StartChar: uniFB7C
Encoding: 64380 64380 45
Width: 700
GlyphClass: 2
Flags: MW
HStem: 0 98<0 185 0 185 185 194> 379 98<294.5 323.5>
VStem: 0 679<0 370 98 370>
AnchorPoint: "Anchor-1" 350 700 basechar 0
AnchorPoint: "Anchor-0" 460 -530 basechar 0
LayerCount: 2
Fore
SplineSet
0 0 m 1
 0 98 l 1
 185 98 l 2
 241 98 404 102 509 180 c 0
 553 213 572 247 598 308 c 1
 435 367 351 379 296 379 c 0
 230 379 173 362 121 317 c 1
 113 323 l 1
 144 417 l 1
 202 457 263 477 326 477 c 0
 458 477 565 388 679 370 c 1
 665 303 l 1
 609 299 625 203 500 94 c 0
 395 2 274 0 194 0 c 2
 0 0 l 1
451 -300 m 1
 383 -227 l 1
 449 -153 l 1
 516 -225 l 1
 451 -300 l 1
279 -302 m 1
 211 -228 l 1
 276 -155 l 1
 343 -227 l 1
 279 -302 l 1
363 -466 m 1
 295 -393 l 1
 360 -320 l 1
 427 -391 l 1
 363 -466 l 1
EndSplineSet
Validated: 1
EndChar

StartChar: uni062D
Encoding: 1581 1581 46
Width: 700
GlyphClass: 2
Flags: MW
HStem: -486 94<276.5 408.5> 366 99<280.5 340>
VStem: 33 77<-218.5 -63>
AnchorPoint: "Anchor-1" 350 700 basechar 0
AnchorPoint: "Anchor-0" 420 -530 basechar 0
LayerCount: 2
Fore
SplineSet
363 -392 m 0
 478 -392 564 -339 622 -282 c 1
 637 -300 l 1
 587 -391 490 -486 327 -486 c 0
 142 -486 33 -365 33 -180 c 0
 33 54 209 228 542 295 c 1
 443 337 379 366 301 366 c 0
 229 366 151 341 88 304 c 1
 80 310 l 1
 123 405 l 1
 180 448 249 465 312 465 c 0
 462 465 494 370 664 364 c 1
 666 340 633 277 625 256 c 1
 493 264 110 147 110 -150 c 0
 110 -287 190 -392 363 -392 c 0
EndSplineSet
Validated: 33
Substitution2: "'fina' Terminal Forms lookup 31 subtable" uniFEA2
Substitution2: "'medi' Medial Forms lookup 30 subtable" uniFEA4
Substitution2: "'init' Initial Forms lookup 29 subtable" uniFEA3
AlternateSubs2: "'aalt' Access All Alternates lookup 1 subtable" uniFEA3 uniFEA4 uniFEA2
EndChar

StartChar: uniFEA2
Encoding: 65186 65186 47
Width: 700
GlyphClass: 2
Flags: MW
HStem: -468 94<276.5 408.5> 0 98<596 616 616 700> 384 99<280.5 340>
VStem: 33 77<-200.5 -45>
AnchorPoint: "Anchor-1" 350 700 basechar 0
AnchorPoint: "Anchor-0" 420 -530 basechar 0
LayerCount: 2
Fore
SplineSet
436 239 m 1
 283 186 110 67 110 -132 c 0
 110 -269 190 -374 363 -374 c 0
 478 -374 564 -321 622 -264 c 1
 637 -282 l 1
 587 -373 490 -468 327 -468 c 0
 142 -468 33 -347 33 -162 c 0
 33 72 209 246 542 313 c 1
 443 355 379 384 301 384 c 0
 229 384 151 359 88 322 c 1
 80 328 l 1
 123 423 l 1
 180 466 249 483 312 483 c 0
 462 483 494 388 664 382 c 1
 666 358 633 295 625 274 c 1
 591 276 539 270 482 254 c 1
 496 125 541 98 596 98 c 2
 700 98 l 1
 700 0 l 1
 616 0 l 2
 512 0 440 77 436 239 c 1
EndSplineSet
Validated: 33
EndChar

StartChar: uniFEA4
Encoding: 65188 65188 48
Width: 700
GlyphClass: 2
Flags: MW
HStem: 0 98<0 185 185 194 0 185 678 700> 380 97<294.5 334>
VStem: 574 34
AnchorPoint: "Anchor-1" 323 659 basechar 0
AnchorPoint: "Anchor-0" 450 -110 basechar 0
LayerCount: 2
Fore
SplineSet
678 98 m 2
 700 98 l 1
 700 0 l 1
 678 0 l 2
 591 0 576 118 574 187 c 1
 555 160 530 131 494 100 c 0
 381 3 283 0 194 0 c 2
 0 0 l 1
 0 98 l 1
 185 98 l 2
 241 98 404 102 510 181 c 0
 553 213 572 247 598 308 c 1
 437 366 365 380 303 380 c 0
 230 380 182 361 127 317 c 1
 119 323 l 1
 144 417 l 1
 202 457 263 477 326 477 c 0
 458 477 565 388 679 370 c 1
 665 291 l 1
 640 290 627 270 608 239 c 1
 608 141 615 98 678 98 c 2
EndSplineSet
Validated: 1
EndChar

StartChar: uniFEA3
Encoding: 65187 65187 49
Width: 700
GlyphClass: 2
Flags: MW
HStem: 0 98<0 185 0 185 185 194> 379 98<294.5 323.5>
VStem: 0 679<0 370 98 370>
AnchorPoint: "Anchor-1" 416 733 basechar 0
AnchorPoint: "Anchor-0" 420 -110 basechar 0
LayerCount: 2
Fore
SplineSet
0 0 m 1
 0 98 l 1
 185 98 l 2
 241 98 404 102 509 180 c 0
 553 213 572 247 598 308 c 1
 435 367 351 379 296 379 c 0
 230 379 173 362 121 317 c 1
 113 323 l 1
 144 417 l 1
 202 457 263 477 326 477 c 0
 458 477 565 388 679 370 c 1
 665 303 l 1
 609 299 625 203 500 94 c 0
 395 2 274 0 194 0 c 2
 0 0 l 1
EndSplineSet
Validated: 1
EndChar

StartChar: uni062E
Encoding: 1582 1582 50
Width: 700
GlyphClass: 2
Flags: MW
HStem: -486 94<276.5 408.5> 366 99<280.5 340>
VStem: 33 77<-218.5 -63>
AnchorPoint: "Anchor-1" 350 910 basechar 0
AnchorPoint: "Anchor-0" 420 -530 basechar 0
LayerCount: 2
Fore
SplineSet
418 700 m 1
 350 624 l 1
 281 700 l 1
 350 775 l 1
 418 700 l 1
363 -392 m 0
 478 -392 564 -339 622 -282 c 1
 637 -300 l 1
 587 -391 490 -486 327 -486 c 0
 142 -486 33 -365 33 -180 c 0
 33 54 209 228 542 295 c 1
 443 337 379 366 301 366 c 0
 229 366 151 341 88 304 c 1
 80 310 l 1
 123 405 l 1
 180 448 249 465 312 465 c 0
 462 465 494 370 664 364 c 1
 666 340 633 277 625 256 c 1
 493 264 110 147 110 -150 c 0
 110 -287 190 -392 363 -392 c 0
EndSplineSet
Validated: 33
Substitution2: "'fina' Terminal Forms lookup 31 subtable" uniFEA6
Substitution2: "'medi' Medial Forms lookup 30 subtable" uniFEA8
Substitution2: "'init' Initial Forms lookup 29 subtable" uniFEA7
AlternateSubs2: "'aalt' Access All Alternates lookup 1 subtable" uniFEA7 uniFEA8 uniFEA6
EndChar

StartChar: uniFEA6
Encoding: 65190 65190 51
Width: 700
GlyphClass: 2
Flags: MW
HStem: -468 94<276.5 408.5> 0 98<596 616 616 700> 384 99<280.5 340>
VStem: 33 77<-200.5 -45>
AnchorPoint: "Anchor-1" 350 910 basechar 0
AnchorPoint: "Anchor-0" 420 -530 basechar 0
LayerCount: 2
Fore
SplineSet
418 700 m 1
 350 624 l 1
 281 700 l 1
 350 775 l 1
 418 700 l 1
436 239 m 1
 283 186 110 67 110 -132 c 0
 110 -269 190 -374 363 -374 c 0
 478 -374 564 -321 622 -264 c 1
 637 -282 l 1
 587 -373 490 -468 327 -468 c 0
 142 -468 33 -347 33 -162 c 0
 33 72 209 246 542 313 c 1
 443 355 379 384 301 384 c 0
 229 384 151 359 88 322 c 1
 80 328 l 1
 123 423 l 1
 180 466 249 483 312 483 c 0
 462 483 494 388 664 382 c 1
 666 358 633 295 625 274 c 1
 591 276 539 270 482 254 c 1
 496 125 541 98 596 98 c 2
 700 98 l 1
 700 0 l 1
 616 0 l 2
 512 0 440 77 436 239 c 1
EndSplineSet
Validated: 33
EndChar

StartChar: uniFEA8
Encoding: 65192 65192 52
Width: 700
GlyphClass: 2
Flags: MW
HStem: 0 98<0 185 185 194 0 185 678 700> 380 97<294.5 334>
VStem: 574 34
AnchorPoint: "Anchor-1" 380 920 basechar 0
AnchorPoint: "Anchor-0" 418 -136 basechar 0
LayerCount: 2
Fore
SplineSet
458 720 m 1
 390 644 l 1
 321 720 l 1
 390 795 l 1
 458 720 l 1
678 98 m 2
 700 98 l 1
 700 0 l 1
 678 0 l 2
 591 0 576 118 574 187 c 1
 555 160 530 131 494 100 c 0
 381 3 283 0 194 0 c 2
 0 0 l 1
 0 98 l 1
 185 98 l 2
 241 98 404 102 510 181 c 0
 553 213 572 247 598 308 c 1
 437 366 365 380 303 380 c 0
 230 380 182 361 127 317 c 1
 119 323 l 1
 144 417 l 1
 202 457 263 477 326 477 c 0
 458 477 565 388 679 370 c 1
 665 291 l 1
 640 290 627 270 608 239 c 1
 608 141 615 98 678 98 c 2
EndSplineSet
Validated: 1
EndChar

StartChar: uniFEA7
Encoding: 65191 65191 53
Width: 700
GlyphClass: 2
Flags: MW
HStem: 0 98<0 185 0 185 185 194> 379 98<294.5 323.5>
VStem: 0 679<0 370 98 370>
AnchorPoint: "Anchor-1" 380 920 basechar 0
AnchorPoint: "Anchor-0" 420 -110 basechar 0
LayerCount: 2
Fore
SplineSet
350 644 m 1
 281 720 l 1
 350 795 l 1
 418 720 l 1
 350 644 l 1
0 0 m 1
 0 98 l 1
 185 98 l 2
 241 98 404 102 509 180 c 0
 553 213 572 247 598 308 c 1
 435 367 351 379 296 379 c 0
 230 379 173 362 121 317 c 1
 113 323 l 1
 144 417 l 1
 202 457 263 477 326 477 c 0
 458 477 565 388 679 370 c 1
 665 303 l 1
 609 299 625 203 500 94 c 0
 395 2 274 0 194 0 c 2
 0 0 l 1
EndSplineSet
Validated: 1
EndChar

StartChar: uni062F
Encoding: 1583 1583 54
Width: 700
GlyphClass: 2
Flags: MW
HStem: 0 98
VStem: 521 59
AnchorPoint: "Anchor-1" 340 800 basechar 0
AnchorPoint: "Anchor-0" 450 -110 basechar 0
LayerCount: 2
Fore
SplineSet
256 0 m 2
 162 0 121 19 121 71 c 0
 121 93 129 124 148 124 c 0
 169 124 178 100 229 98 c 0
 276 96 464 101 489 109 c 0
 522 115 522 141 521 152 c 0
 510 265 456 368 318 479 c 1
 356 578 l 1
 526 451 580 285 580 163 c 0
 580 117 572 69 562 49 c 0
 549 24 510 0 430 0 c 2
 256 0 l 2
EndSplineSet
Validated: 33
Substitution2: "'fina' Terminal Forms lookup 31 subtable" uniFEAA
Substitution2: "'aalt' Access All Alternates lookup 0 subtable" uniFEAA
EndChar

StartChar: uniFEAA
Encoding: 65194 65194 55
Width: 700
GlyphClass: 2
Flags: MW
HStem: 0 98<616 700>
VStem: 406 21<142.5 213>
AnchorPoint: "Anchor-1" 350 800 basechar 0
AnchorPoint: "Anchor-0" 450 -120 basechar 0
LayerCount: 2
Fore
SplineSet
194 0 m 0
 142 2 92 4 92 70 c 0
 92 95 99 130 122 130 c 0
 145 130 168 98 228 98 c 2
 280 98 l 2
 359 98 406 99 406 186 c 0
 406 240 386 324 351 461 c 1
 420 555 l 1
 464 371 487 210 498 171 c 0
 512 118 563 98 616 98 c 2
 700 98 l 1
 700 0 l 1
 616 0 l 2
 578 0 445 0 427 140 c 1
 389 12 326 -4 194 0 c 0
EndSplineSet
Validated: 33
EndChar

StartChar: uni0630
Encoding: 1584 1584 56
Width: 700
GlyphClass: 2
Flags: MW
HStem: 0 98
VStem: 521 59
AnchorPoint: "Anchor-1" 340 1000 basechar 0
AnchorPoint: "Anchor-0" 450 -110 basechar 0
LayerCount: 2
Fore
SplineSet
297 683 m 1
 228 759 l 1
 297 834 l 1
 365 759 l 1
 297 683 l 1
256 0 m 2
 162 0 121 19 121 71 c 0
 121 93 129 124 148 124 c 0
 169 124 178 100 229 98 c 0
 276 96 464 101 489 109 c 0
 522 115 522 141 521 152 c 0
 510 265 456 368 318 479 c 1
 356 578 l 1
 526 451 580 285 580 163 c 0
 580 117 572 69 562 49 c 0
 549 24 510 0 430 0 c 2
 256 0 l 2
EndSplineSet
Validated: 33
Substitution2: "'fina' Terminal Forms lookup 31 subtable" uniFEAC
Substitution2: "'aalt' Access All Alternates lookup 0 subtable" uniFEAC
EndChar

StartChar: uniFEAC
Encoding: 65196 65196 57
Width: 700
GlyphClass: 2
Flags: MW
HStem: 0 98<616 700>
VStem: 406 21<142.5 213>
AnchorPoint: "Anchor-1" 340 960 basechar 0
AnchorPoint: "Anchor-0" 450 -120 basechar 0
LayerCount: 2
Fore
SplineSet
345 678 m 1
 276 754 l 1
 345 829 l 1
 413 754 l 1
 345 678 l 1
194 0 m 0
 142 2 92 4 92 70 c 0
 92 95 99 130 122 130 c 0
 145 130 168 98 228 98 c 2
 280 98 l 2
 359 98 406 99 406 186 c 0
 406 240 386 324 351 461 c 1
 420 555 l 1
 464 371 487 210 498 171 c 0
 512 118 563 98 616 98 c 2
 700 98 l 1
 700 0 l 1
 616 0 l 2
 578 0 445 0 427 140 c 1
 389 12 326 -4 194 0 c 0
EndSplineSet
Validated: 33
EndChar

StartChar: uni0688
Encoding: 1672 1672 58
Width: 700
GlyphClass: 2
Flags: MW
HStem: 0 98 742 49<180 387.5> 891 44<374.5 394>
VStem: 242 23 438 28<813 844> 521 59
AnchorPoint: "Anchor-1" 350 1140 basechar 0
AnchorPoint: "Anchor-0" 450 -110 basechar 0
LayerCount: 2
Fore
SplineSet
466 831 m 0
 466 767 425 742 340 742 c 2
 180 742 l 1
 180 774 196 786 207 787 c 0
 217 788 228 788 235 792 c 1
 241 810 243 825 242 860 c 0
 241 942 240 1013 234 1043 c 1
 267 1072 l 1
 277 1024 l 1
 267 993 267 902 265 833 c 1
 304 886 352 935 397 935 c 0
 446 935 466 876 466 831 c 0
380 891 m 0
 347 891 309 847 262 790 c 1
 364 791 l 2
 411 791 438 798 438 828 c 0
 438 860 408 891 380 891 c 0
356 578 m 1
 526 451 580 285 580 163 c 0
 580 117 572 69 562 49 c 0
 549 24 510 0 430 0 c 2
 256 0 l 2
 162 0 121 19 121 71 c 0
 121 93 129 124 148 124 c 0
 169 124 178 100 229 98 c 0
 276 96 464 101 489 109 c 0
 522 115 522 141 521 152 c 0
 510 265 456 368 318 479 c 1
 356 578 l 1
EndSplineSet
Validated: 33
Substitution2: "'fina' Terminal Forms lookup 31 subtable" uniFB89
Substitution2: "'aalt' Access All Alternates lookup 0 subtable" uniFB89
EndChar

StartChar: uniFB89
Encoding: 64393 64393 59
Width: 700
GlyphClass: 2
Flags: MW
HStem: 0 98<616 700> 722 49<201 408.5> 871 44<395.5 415>
VStem: 263 23 406 21<142.5 213> 459 28<793 824>
AnchorPoint: "Anchor-1" 350 1120 basechar 0
AnchorPoint: "Anchor-0" 450 -120 basechar 0
LayerCount: 2
Fore
SplineSet
487 811 m 0
 487 747 446 722 361 722 c 2
 201 722 l 1
 201 754 217 766 228 767 c 0
 238 768 249 768 256 772 c 1
 262 790 264 805 263 840 c 0
 262 922 261 993 255 1023 c 1
 288 1052 l 1
 298 1004 l 1
 288 973 288 882 286 813 c 1
 325 866 373 915 418 915 c 0
 467 915 487 856 487 811 c 0
401 871 m 0
 368 871 330 827 283 770 c 1
 385 771 l 2
 432 771 459 778 459 808 c 0
 459 840 429 871 401 871 c 0
616 98 m 2
 700 98 l 1
 700 0 l 1
 616 0 l 2
 578 0 445 0 427 140 c 1
 389 12 326 -4 194 0 c 0
 142 2 92 4 92 70 c 0
 92 95 99 130 122 130 c 0
 145 130 168 98 228 98 c 2
 280 98 l 2
 359 98 406 99 406 186 c 0
 406 240 386 324 351 461 c 1
 420 555 l 1
 464 371 487 210 498 171 c 0
 512 118 563 98 616 98 c 2
EndSplineSet
Validated: 33
EndChar

StartChar: uni0631
Encoding: 1585 1585 60
Width: 700
GlyphClass: 2
Flags: MW
HStem: -350 66<73 323.5>
VStem: 504 58<71.5 107.5>
AnchorPoint: "Anchor-1" 350 600 basechar 0
AnchorPoint: "Anchor-0" 450 -500 basechar 0
LayerCount: 2
Fore
SplineSet
199 -350 m 0
 178 -350 142 -348 73 -317 c 1
 73 -284 l 1
 134 -284 l 2
 177 -284 263 -277 340 -222 c 0
 466 -130 504 51 504 92 c 0
 504 123 475 207 401 318 c 1
 439 419 l 1
 524 298 562 227 562 94 c 0
 562 -139 448 -350 199 -350 c 0
EndSplineSet
Validated: 1
Substitution2: "'fina' Terminal Forms lookup 31 subtable" uniFEAE
Substitution2: "'aalt' Access All Alternates lookup 0 subtable" uniFEAE
EndChar

StartChar: uniFEAE
Encoding: 65198 65198 61
Width: 700
GlyphClass: 2
Flags: MW
HStem: -345 64<55 205> 0 98<637 657 657 700>
VStem: 458 43.95
AnchorPoint: "Anchor-1" 350 650 basechar 0
AnchorPoint: "Anchor-0" 480 -450 basechar 0
LayerCount: 2
Fore
SplineSet
166 -345 m 0
 139 -345 92 -342 55 -317 c 1
 55 -281 l 1
 188 -281 264 -243 318 -195 c 0
 400 -123 458 -7 458 74 c 0
 458 150 408 248 381 327 c 1
 446 392 l 1
 477 303 522 98 637 98 c 2
 700 98 l 1
 700 0 l 1
 657 0 l 2
 601 0 553 15 499 79 c 1
 516 -41 458 -207 374 -279 c 0
 322 -323 244 -345 166 -345 c 0
EndSplineSet
Validated: 33
Substitution2: "Single Substitution lookup 54 subtable" uniFEAE.rehAlef
Substitution2: "'aalt' Access All Alternates lookup 0 subtable" uniFEAE.rehAlef
EndChar

StartChar: uniFEAE.rehAlef
Encoding: 1114208 -1 62
Width: 700
GlyphClass: 2
Flags: MW
HStem: -345 64<-145 5> 0 98<437 457 457 700>
VStem: 258 43.95
AnchorPoint: "Anchor-1" 230 600 basechar 0
AnchorPoint: "Anchor-0" 370 -450 basechar 0
LayerCount: 2
Fore
SplineSet
700 98 m 1
 700 0 l 1
 457 0 l 2
 401 0 353 15 299 79 c 1
 316 -41 258 -207 174 -279 c 0
 122 -323 44 -345 -34 -345 c 0
 -61 -345 -108 -342 -145 -317 c 1
 -145 -281 l 1
 -12 -281 64 -243 118 -195 c 0
 200 -123 258 -7 258 74 c 0
 258 150 208 248 181 327 c 1
 246 392 l 1
 277 303 322 98 437 98 c 2
 700 98 l 1
EndSplineSet
Validated: 33
EndChar

StartChar: uni0632
Encoding: 1586 1586 63
Width: 700
GlyphClass: 2
Flags: MW
HStem: -350 66<73 323.5>
VStem: 504 58<71.5 107.5>
AnchorPoint: "Anchor-1" 350 900 basechar 0
AnchorPoint: "Anchor-0" 450 -500 basechar 0
LayerCount: 2
Fore
SplineSet
316 564 m 1
 247 640 l 1
 316 715 l 1
 384 640 l 1
 316 564 l 1
199 -350 m 0
 178 -350 142 -348 73 -317 c 1
 73 -284 l 1
 134 -284 l 2
 177 -284 263 -277 340 -222 c 0
 466 -130 504 51 504 92 c 0
 504 123 475 207 401 318 c 1
 439 419 l 1
 524 298 562 227 562 94 c 0
 562 -139 448 -350 199 -350 c 0
EndSplineSet
Validated: 1
Substitution2: "'fina' Terminal Forms lookup 31 subtable" uniFEB0
Substitution2: "'aalt' Access All Alternates lookup 0 subtable" uniFEB0
EndChar

StartChar: uniFEB0
Encoding: 65200 65200 64
Width: 700
GlyphClass: 2
Flags: MW
HStem: -345 64<55 205> 0 98<637 657 657 700> 590 20G<281 281 418 418>
VStem: 458 43.95
AnchorPoint: "Anchor-1" 350 900 basechar 0
AnchorPoint: "Anchor-0" 480 -450 basechar 0
LayerCount: 2
Fore
SplineSet
350 534 m 1
 281 610 l 1
 350 685 l 1
 418 610 l 1
 350 534 l 1
166 -345 m 0
 139 -345 92 -342 55 -317 c 1
 55 -281 l 1
 188 -281 264 -243 318 -195 c 0
 400 -123 458 -7 458 74 c 0
 458 150 408 248 381 327 c 1
 446 392 l 1
 477 303 522 98 637 98 c 2
 700 98 l 1
 700 0 l 1
 657 0 l 2
 601 0 553 15 499 79 c 1
 516 -41 458 -207 374 -279 c 0
 322 -323 244 -345 166 -345 c 0
EndSplineSet
Validated: 33
Substitution2: "Single Substitution lookup 54 subtable" uniFEB0.zainAlef
Substitution2: "'aalt' Access All Alternates lookup 0 subtable" uniFEB0.zainAlef
EndChar

StartChar: uniFEB0.zainAlef
Encoding: 1114209 -1 65
Width: 700
GlyphClass: 2
Flags: MW
HStem: -345 64<-145 5> 0 98<437 457 457 700> 590 20G<52 52 189 189>
VStem: 258 43.95
AnchorPoint: "Anchor-1" 100 900 basechar 0
AnchorPoint: "Anchor-0" 340 -450 basechar 0
LayerCount: 2
Fore
SplineSet
189 610 m 1
 121 534 l 1
 52 610 l 1
 121 685 l 1
 189 610 l 1
700 98 m 1
 700 0 l 1
 457 0 l 2
 401 0 353 15 299 79 c 1
 316 -41 258 -207 174 -279 c 0
 122 -323 44 -345 -34 -345 c 0
 -61 -345 -108 -342 -145 -317 c 1
 -145 -281 l 1
 -12 -281 64 -243 118 -195 c 0
 200 -123 258 -7 258 74 c 0
 258 150 208 248 181 327 c 1
 246 392 l 1
 277 303 322 98 437 98 c 2
 700 98 l 1
EndSplineSet
Validated: 33
EndChar

StartChar: uni0691
Encoding: 1681 1681 66
Width: 700
GlyphClass: 2
Flags: MW
HStem: -350 66<73 323.5> 605 49<258 465.5> 754 44<452.5 472>
VStem: 320 23 504 58<71.5 107.5> 516 28<676 707>
AnchorPoint: "Anchor-1" 370 1050 basechar 0
AnchorPoint: "Anchor-0" 450 -500 basechar 0
LayerCount: 2
Fore
SplineSet
544 694 m 0xf4
 544 630 503 605 418 605 c 2
 258 605 l 1
 258 637 274 649 285 650 c 0
 295 651 306 651 313 655 c 1
 319 673 321 688 320 723 c 0
 319 805 318 876 312 906 c 1
 345 935 l 1
 355 887 l 1
 345 856 345 765 343 696 c 1
 382 749 430 798 475 798 c 0
 524 798 544 739 544 694 c 0xf4
458 754 m 0
 425 754 387 710 340 653 c 1
 442 654 l 2
 489 654 516 661 516 691 c 0
 516 723 486 754 458 754 c 0
439 419 m 1xf8
 524 298 562 227 562 94 c 0
 562 -139 448 -350 199 -350 c 0
 178 -350 142 -348 73 -317 c 1
 73 -284 l 1
 134 -284 l 2
 177 -284 263 -277 340 -222 c 0
 466 -130 504 51 504 92 c 0
 504 123 475 207 401 318 c 1
 439 419 l 1xf8
EndSplineSet
Validated: 33
Substitution2: "'fina' Terminal Forms lookup 31 subtable" uniFB8D
Substitution2: "'aalt' Access All Alternates lookup 0 subtable" uniFB8D
EndChar

StartChar: uniFB8D
Encoding: 64397 64397 67
Width: 700
GlyphClass: 2
Flags: MW
HStem: -345 64<55 205> 0 98<637 657 657 700> 604 49<256 463.5> 753 44<450.5 470>
VStem: 318 23 458 43.95 514 28<675 706>
AnchorPoint: "Anchor-1" 350 1050 basechar 0
AnchorPoint: "Anchor-0" 480 -450 basechar 0
LayerCount: 2
Fore
SplineSet
542 693 m 0
 542 629 501 604 416 604 c 2
 256 604 l 1
 256 636 272 648 283 649 c 0
 293 650 304 650 311 654 c 1
 317 672 319 687 318 722 c 0
 317 804 316 875 310 905 c 1
 343 934 l 1
 353 886 l 1
 343 855 343 764 341 695 c 1
 380 748 428 797 473 797 c 0
 522 797 542 738 542 693 c 0
456 753 m 0
 423 753 385 709 338 652 c 1
 440 653 l 2
 487 653 514 660 514 690 c 0
 514 722 484 753 456 753 c 0
637 98 m 2
 700 98 l 1
 700 0 l 1
 657 0 l 2
 601 0 553 15 499 79 c 1
 516 -41 458 -207 374 -279 c 0
 322 -323 244 -345 166 -345 c 0
 139 -345 92 -342 55 -317 c 1
 55 -281 l 1
 188 -281 264 -243 318 -195 c 0
 400 -123 458 -7 458 74 c 0
 458 150 408 248 381 327 c 1
 446 392 l 1xfc
 477 303 522 98 637 98 c 2
EndSplineSet
Validated: 33
EndChar

StartChar: uni0698
Encoding: 1688 1688 68
Width: 700
GlyphClass: 2
Flags: MW
HStem: -350 66<73 323.5> 586 20G<260 260 397 397 426 426 563 563>
VStem: 504 58<71.5 107.5>
AnchorPoint: "Anchor-1" 370 1050 basechar 0
AnchorPoint: "Anchor-0" 450 -500 basechar 0
LayerCount: 2
Fore
SplineSet
396 700 m 1
 327 776 l 1
 396 851 l 1
 464 776 l 1
 396 700 l 1
329 530 m 1
 260 606 l 1
 329 681 l 1
 397 606 l 1
 329 530 l 1
495 530 m 1
 426 606 l 1
 495 681 l 1
 563 606 l 1
 495 530 l 1
199 -350 m 0
 178 -350 142 -348 73 -317 c 1
 73 -284 l 1
 134 -284 l 2
 177 -284 263 -277 340 -222 c 0
 466 -130 504 51 504 92 c 0
 504 123 475 207 401 318 c 1
 439 419 l 1
 524 298 562 227 562 94 c 0
 562 -139 448 -350 199 -350 c 0
EndSplineSet
Validated: 1
Substitution2: "'fina' Terminal Forms lookup 31 subtable" uniFB8B
Substitution2: "'aalt' Access All Alternates lookup 0 subtable" uniFB8B
EndChar

StartChar: uniFB8B
Encoding: 64395 64395 69
Width: 700
GlyphClass: 2
Flags: MW
HStem: -345 64<55 205> 0 98<637 657 657 700> 591 20G<249 249 386 386 415 415 552 552>
VStem: 458 43.95
AnchorPoint: "Anchor-1" 350 1050 basechar 0
AnchorPoint: "Anchor-0" 480 -450 basechar 0
LayerCount: 2
Fore
SplineSet
385 705 m 1
 316 781 l 1
 385 856 l 1
 453 781 l 1
 385 705 l 1
318 535 m 1
 249 611 l 1
 318 686 l 1
 386 611 l 1
 318 535 l 1
484 535 m 1
 415 611 l 1
 484 686 l 1
 552 611 l 1
 484 535 l 1
166 -345 m 0
 139 -345 92 -342 55 -317 c 1
 55 -281 l 1
 188 -281 264 -243 318 -195 c 0
 400 -123 458 -7 458 74 c 0
 458 150 408 248 381 327 c 1
 446 392 l 1
 477 303 522 98 637 98 c 2
 700 98 l 1
 700 0 l 1
 657 0 l 2
 601 0 553 15 499 79 c 1
 516 -41 458 -207 374 -279 c 0
 322 -323 244 -345 166 -345 c 0
EndSplineSet
Validated: 33
EndChar

StartChar: uni0633
Encoding: 1587 1587 70
Width: 700
GlyphClass: 2
Flags: MW
HStem: -380 98<39.5 136.5 39.5 175> 5 94<528.5 557> 414 20G<683 683>
VStem: -125 46<-142.5 -47> 265 76 431 70<124.5 165 124.5 261> 610 73<144 165 165 372 372 372>
AnchorPoint: "Anchor-1" 423 700 basechar 0
AnchorPoint: "Anchor-0" 500 -310 basechar 0
LayerCount: 2
Fore
SplineSet
610 372 m 1
 683 434 l 1
 683 165 l 2
 683 75 626 9 557 5 c 2
 539 4 l 2
 504 2 475 21 456 55 c 1
 429 26 389 8 343 4 c 1
 340 -250 253 -380 97 -380 c 0
 -46 -380 -125 -271 -125 -99 c 0
 -125 5 -96 70 -34 152 c 1
 -12 120 l 1
 -25 100 -79 31 -79 -79 c 0
 -79 -206 -8 -282 87 -282 c 0
 186 -282 265 -202 265 1 c 0
 265 83 250 154 235 210 c 1
 316 239 l 1
 330 194 338 146 341 90 c 1
 382 91 423 101 431 148 c 1
 431 165 l 1
 431 261 l 2
 431 286 445 306 465 306 c 0
 487 306 500 278 500 261 c 2
 501 139 l 2
 501 110 516 99 541 99 c 0
 573 99 610 113 610 144 c 2
 610 372 l 1
EndSplineSet
Validated: 33
Substitution2: "'fina' Terminal Forms lookup 31 subtable" uniFEB2
Substitution2: "'medi' Medial Forms lookup 30 subtable" uniFEB4
Substitution2: "'init' Initial Forms lookup 29 subtable" uniFEB3
AlternateSubs2: "'aalt' Access All Alternates lookup 1 subtable" uniFEB3 uniFEB4 uniFEB2
EndChar

StartChar: uniFEB2
Encoding: 65202 65202 71
Width: 700
GlyphClass: 2
Flags: MW
HStem: -380 98<39.5 136.5 39.5 175> 0 21G<686 700> 0 98<696.5 700 696.5 700> 4.5 94.5 414 20G<683 683>
VStem: -125 46<-142.5 -47> 265 76 431 70<124.5 165 124.5 261> 610 73<154 165 165 372 372 372>
AnchorPoint: "Anchor-1" 390 700 basechar 0
AnchorPoint: "Anchor-0" 500 -310 basechar 0
LayerCount: 2
Fore
SplineSet
673 103 m 1xad80
 682 99 693 98 700 98 c 1xad80
 700 0 l 1
 672 0 650 14 636 41 c 1xcd80
 614 20 587 7 557 5 c 2
 539 4 l 2
 504 2 475 21 456 55 c 1
 429 26 389 8 343 4 c 1
 340 -250 253 -380 97 -380 c 0
 -46 -380 -125 -271 -125 -99 c 0
 -125 5 -96 70 -34 152 c 1
 -12 120 l 1
 -25 100 -79 31 -79 -79 c 0
 -79 -206 -8 -282 87 -282 c 0
 186 -282 265 -202 265 1 c 0
 265 83 250 154 235 210 c 1
 316 239 l 1
 330 194 338 146 341 90 c 1
 382 91 423 101 431 148 c 1
 431 165 l 1
 431 261 l 2
 431 286 445 306 465 306 c 0
 487 306 500 278 500 261 c 2
 501 139 l 2
 501 110 516 99 541 99 c 0
 573 99 610 113 610 144 c 2x9f80
 610 372 l 1
 683 434 l 1
 683 165 l 2
 683 143 679 122 673 103 c 1xad80
EndSplineSet
Validated: 33
EndChar

StartChar: uniFEB4
Encoding: 65204 65204 72
Width: 700
GlyphClass: 2
Flags: MW
HStem: -4 100<230.5 259.5> 0 98<0 24 0 64 687 700>
VStem: 0 183<0 127.5 98 127.5> 372.06 63.94 568 63
AnchorPoint: "Anchor-1" 420 700 basechar 0
AnchorPoint: "Anchor-0" 420 -110 basechar 0
LayerCount: 2
Fore
SplineSet
617 127 m 1x58
 632 101 674 98 700 98 c 1
 700 0 l 1
 642 0 610 25 590 74 c 1
 561 32 518 0 462 0 c 0x58
 420 0 388 19 372 40 c 1
 326 -2 270 -4 249 -4 c 0xb8
 193 -4 152 12 141 76 c 1
 117 31 73 0 24 0 c 2
 0 0 l 1
 0 98 l 1
 64 98 l 2x78
 125 98 128 150 143 215 c 0
 149 243 157 263 174 263 c 0
 189 263 192 248 192 228 c 0
 192 194 183 133 183 122 c 0
 183 103 211 96 250 96 c 0xb8
 392 96 374 188 368 267 c 0
 367 294 376 313 400 315 c 0
 423 316 433 305 436 237 c 0
 437 197 436 154 418 107 c 1
 442 100 468 97 490 100 c 0
 531 104 566 129 572 160 c 0
 576 185 571 285 568 328 c 0
 566 368 622 386 631 330 c 0
 638 286 638 216 630 173 c 0
 627 158 623 142 617 127 c 1x58
EndSplineSet
Validated: 33
Substitution2: "Single Substitution lookup 54 subtable" uniFEB4.seenYeh
Substitution2: "'aalt' Access All Alternates lookup 0 subtable" uniFEB4.seenYeh
EndChar

StartChar: uniFEB4.seenYeh
Encoding: 1114210 -1 73
Width: 700
GlyphClass: 2
Flags: MW
HStem: -2 100<151 223> 0 103 230 84<0 24 24 31 0 24> 412 20G<604 604>
VStem: 321.2 66.8 533 71<204 216 216 369 369 369>
AnchorPoint: "Anchor-1" 420 700 basechar 0
AnchorPoint: "Anchor-0" 420 -110 basechar 0
LayerCount: 2
Fore
SplineSet
595 147 m 1xbc
 629 102 658 98 700 98 c 1xbc
 700 0 l 1
 647 0 608 30 573 91 c 1
 543 35 491 0 429 0 c 0x7c
 381 0 348 22 330 45 c 1
 299 16 255 -2 191 -2 c 0
 111 -2 68 23 54 86 c 0
 46 134 39 182 31 230 c 1
 0 230 l 1
 0 314 l 1
 24 314 l 2
 55 314 86 281 92 215 c 0
 102 109 98 98 181 98 c 0xbc
 338 98 324 170 318 275 c 0
 318 313 320 337 354 339 c 0
 380 340 385 331 388 257 c 0
 391 205 387 155 372 113 c 1
 399 103 427 99 452 103 c 0
 499 106 533 143 533 187 c 2x7c
 533 369 l 1
 604 432 l 1
 604 216 l 2
 604 192 601 168 595 147 c 1xbc
EndSplineSet
Validated: 33
EndChar

StartChar: uniFEB3
Encoding: 65203 65203 74
Width: 700
GlyphClass: 2
Flags: MW
HStem: -2 100<229 284.5> 0 98<0 38 0 52> 0 101 412 20G<656 656>
VStem: 376 67 586 70<187 216 216 369 369 369>
AnchorPoint: "Anchor-1" 420 700 basechar 0
AnchorPoint: "Anchor-0" 420 -110 basechar 0
LayerCount: 2
Fore
SplineSet
586 369 m 1x5c
 656 432 l 1
 656 216 l 2
 656 95 584 0 482 0 c 0x5c
 433 0 402 24 383 48 c 1
 352 17 311 -2 258 -2 c 0x9c
 192 -2 147 14 124 72 c 1
 105 31 77 0 38 0 c 2
 0 0 l 1
 0 98 l 1
 52 98 l 2
 97 98 111 166 128 247 c 0
 135 280 141 309 160 309 c 0
 179 309 180 281 180 257 c 0
 180 226 172 164 153 117 c 1
 179 103 201 98 257 98 c 0x5c
 380 98 376 153 376 269 c 0
 376 326 381 344 409 345 c 0
 435 346 440 333 443 232 c 0
 444 189 438 148 424 113 c 1
 448 103 475 99 500 101 c 0
 550 104 586 141 586 187 c 2x3c
 586 369 l 1x5c
EndSplineSet
Validated: 33
Substitution2: "Single Substitution lookup 54 subtable" uniFEB3.seenYeh
Substitution2: "'aalt' Access All Alternates lookup 0 subtable" uniFEB3.seenYeh
EndChar

StartChar: uniFEB3.seenYeh
Encoding: 1114211 -1 75
Width: 700
GlyphClass: 2
Flags: MW
HStem: -2 100<151 223> 0 103 230 84<0 24 24 31 0 24> 412 20G<604 604>
VStem: 321.2 66.8 533 71<187 216 216 369 369 369>
AnchorPoint: "Anchor-1" 420 700 basechar 0
AnchorPoint: "Anchor-0" 416 -110 basechar 0
LayerCount: 2
Fore
SplineSet
533 369 m 1xbc
 604 432 l 1
 604 216 l 2
 604 95 531 0 429 0 c 0x7c
 381 0 348 22 330 45 c 1
 299 16 255 -2 191 -2 c 0
 111 -2 68 23 54 86 c 0
 46 134 39 182 31 230 c 1
 0 230 l 1
 0 314 l 1
 24 314 l 2
 55 314 86 281 92 215 c 0
 102 109 98 98 181 98 c 0xbc
 338 98 324 170 318 275 c 0
 318 313 320 337 354 339 c 0
 380 340 385 331 388 257 c 0
 391 205 387 155 372 113 c 1
 399 103 427 99 452 103 c 0
 499 106 533 143 533 187 c 2x7c
 533 369 l 1xbc
EndSplineSet
Validated: 33
EndChar

StartChar: uni0634
Encoding: 1588 1588 76
Width: 700
GlyphClass: 2
Flags: MW
HStem: -380 98<39.5 136.5 39.5 175> 5 94<528.5 557> 414 20G<683 683>
VStem: -125 46<-142.5 -47> 265 76 431 70<124.5 165 124.5 261> 610 73<144 165 165 372 372 372>
AnchorPoint: "Anchor-1" 420 1010 basechar 0
AnchorPoint: "Anchor-0" 500 -310 basechar 0
LayerCount: 2
Fore
SplineSet
471 764 m 1
 403 688 l 1
 334 764 l 1
 403 839 l 1
 471 764 l 1
404 594 m 1
 336 518 l 1
 267 594 l 1
 336 669 l 1
 404 594 l 1
502 518 m 1
 433 594 l 1
 502 669 l 1
 570 594 l 1
 502 518 l 1
610 372 m 1
 683 434 l 1
 683 165 l 2
 683 75 626 9 557 5 c 2
 539 4 l 2
 504 2 475 21 456 55 c 1
 429 26 389 8 343 4 c 1
 340 -250 253 -380 97 -380 c 0
 -46 -380 -125 -271 -125 -99 c 0
 -125 5 -96 70 -34 152 c 1
 -12 120 l 1
 -25 100 -79 31 -79 -79 c 0
 -79 -206 -8 -282 87 -282 c 0
 186 -282 265 -202 265 1 c 0
 265 83 250 154 235 210 c 1
 316 239 l 1
 330 194 338 146 341 90 c 1
 382 91 423 101 431 148 c 1
 431 165 l 1
 431 261 l 2
 431 286 445 306 465 306 c 0
 487 306 500 278 500 261 c 2
 501 139 l 2
 501 110 516 99 541 99 c 0
 573 99 610 113 610 144 c 2
 610 372 l 1
EndSplineSet
Validated: 33
Substitution2: "'fina' Terminal Forms lookup 31 subtable" uniFEB6
Substitution2: "'medi' Medial Forms lookup 30 subtable" uniFEB8
Substitution2: "'init' Initial Forms lookup 29 subtable" uniFEB7
AlternateSubs2: "'aalt' Access All Alternates lookup 1 subtable" uniFEB7 uniFEB8 uniFEB6
EndChar

StartChar: uniFEB6
Encoding: 65206 65206 77
Width: 700
GlyphClass: 2
Flags: MW
HStem: -380 98<39.5 136.5 39.5 175> 0 21G<686 700> 0 98<696.5 700 696.5 700> 4.5 94.5 414 20G<683 683>
VStem: -125 46<-142.5 -47> 265 76 431 70<124.5 165 124.5 261> 610 73<154 165 165 372 372 372>
AnchorPoint: "Anchor-1" 400 1010 basechar 0
AnchorPoint: "Anchor-0" 520 -300 basechar 0
LayerCount: 2
Fore
SplineSet
471 764 m 1xcd80
 403 688 l 1
 334 764 l 1
 403 839 l 1
 471 764 l 1xcd80
404 594 m 1
 336 518 l 1
 267 594 l 1
 336 669 l 1
 404 594 l 1
502 518 m 1
 433 594 l 1
 502 669 l 1
 570 594 l 1
 502 518 l 1
673 103 m 1xad80
 682 99 693 98 700 98 c 1xad80
 700 0 l 1
 672 0 650 14 636 41 c 1xcd80
 614 20 587 7 557 5 c 2
 539 4 l 2
 504 2 475 21 456 55 c 1
 429 26 389 8 343 4 c 1
 340 -250 253 -380 97 -380 c 0
 -46 -380 -125 -271 -125 -99 c 0
 -125 5 -96 70 -34 152 c 1
 -12 120 l 1
 -25 100 -79 31 -79 -79 c 0
 -79 -206 -8 -282 87 -282 c 0
 186 -282 265 -202 265 1 c 0
 265 83 250 154 235 210 c 1
 316 239 l 1
 330 194 338 146 341 90 c 1
 382 91 423 101 431 148 c 1
 431 165 l 1
 431 261 l 2
 431 286 445 306 465 306 c 0
 487 306 500 278 500 261 c 2
 501 139 l 2
 501 110 516 99 541 99 c 0
 573 99 610 113 610 144 c 2x9f80
 610 372 l 1
 683 434 l 1
 683 165 l 2
 683 143 679 122 673 103 c 1xad80
EndSplineSet
Validated: 33
EndChar

StartChar: uniFEB8
Encoding: 65208 65208 78
Width: 700
GlyphClass: 2
Flags: MW
HStem: -4 100<230.5 259.5> 0 98<0 24 0 64 687 700>
VStem: 0 183<0 127.5 98 127.5> 372.06 63.94 568 63
AnchorPoint: "Anchor-1" 420 1010 basechar 0
AnchorPoint: "Anchor-0" 426 -136 basechar 0
LayerCount: 2
Fore
SplineSet
471 746 m 1x58
 403 670 l 1
 334 746 l 1
 403 821 l 1
 471 746 l 1x58
404 576 m 1
 336 500 l 1
 267 576 l 1
 336 651 l 1
 404 576 l 1
502 500 m 1
 433 576 l 1
 502 651 l 1
 570 576 l 1
 502 500 l 1
617 127 m 1
 632 101 674 98 700 98 c 1
 700 0 l 1
 642 0 610 25 590 74 c 1
 561 32 518 0 462 0 c 0x58
 420 0 388 19 372 40 c 1
 326 -2 270 -4 249 -4 c 0xb8
 193 -4 152 12 141 76 c 1
 117 31 73 0 24 0 c 2
 0 0 l 1
 0 98 l 1
 64 98 l 2x78
 125 98 128 150 143 215 c 0
 149 243 157 263 174 263 c 0
 189 263 192 248 192 228 c 0
 192 194 183 133 183 122 c 0
 183 103 211 96 250 96 c 0xb8
 392 96 374 188 368 267 c 0
 367 294 376 313 400 315 c 0
 423 316 433 305 436 237 c 0
 437 197 436 154 418 107 c 1
 442 100 468 97 490 100 c 0
 531 104 566 129 572 160 c 0
 576 185 571 285 568 328 c 0
 566 368 622 386 631 330 c 0
 638 286 638 216 630 173 c 0
 627 158 623 142 617 127 c 1
EndSplineSet
Validated: 33
Substitution2: "Single Substitution lookup 54 subtable" uniFEB8.sheenYeh
Substitution2: "'aalt' Access All Alternates lookup 0 subtable" uniFEB8.sheenYeh
EndChar

StartChar: uniFEB8.sheenYeh
Encoding: 1114212 -1 79
Width: 700
GlyphClass: 2
Flags: MW
HStem: -2 100<151 223> 0 103 230 84<0 24 24 31 0 24> 412 20G<604 604> 849 20G<433 433>
VStem: 321.2 66.8 533 71<204 216 216 369 369 369>
AnchorPoint: "Anchor-1" 433 1010 basechar 0
AnchorPoint: "Anchor-0" 460 -82 basechar 0
LayerCount: 2
Fore
SplineSet
501 794 m 1xbe
 433 718 l 1
 364 794 l 1
 433 869 l 1
 501 794 l 1xbe
434 624 m 1
 366 548 l 1
 297 624 l 1
 366 699 l 1
 434 624 l 1
532 548 m 1
 463 624 l 1
 532 699 l 1
 600 624 l 1
 532 548 l 1
595 147 m 1
 629 102 658 98 700 98 c 1xbe
 700 0 l 1
 647 0 608 30 573 91 c 1
 543 35 491 0 429 0 c 0x7e
 381 0 348 22 330 45 c 1
 299 16 255 -2 191 -2 c 0
 111 -2 68 23 54 86 c 0
 46 134 39 182 31 230 c 1
 0 230 l 1
 0 314 l 1
 24 314 l 2
 55 314 86 281 92 215 c 0
 102 109 98 98 181 98 c 0xbe
 338 98 324 170 318 275 c 0
 318 313 320 337 354 339 c 0
 380 340 385 331 388 257 c 0
 391 205 387 155 372 113 c 1
 399 103 427 99 452 103 c 0
 499 106 533 143 533 187 c 2x7e
 533 369 l 1
 604 432 l 1
 604 216 l 2
 604 192 601 168 595 147 c 1
EndSplineSet
Validated: 33
EndChar

StartChar: uniFEB7
Encoding: 65207 65207 80
Width: 700
GlyphClass: 2
Flags: MW
HStem: -2 100<229 284.5> 0 98<0 38 0 52> 0 101 412 20G<656 656> 849 20G<393 393>
VStem: 376 67 586 70<187 216 216 369 369 369>
AnchorPoint: "Anchor-1" 400 1010 basechar 0
AnchorPoint: "Anchor-0" 414 -118 basechar 0
LayerCount: 2
Fore
SplineSet
461 794 m 1x5e
 393 718 l 1
 324 794 l 1
 393 869 l 1
 461 794 l 1x5e
394 624 m 1
 326 548 l 1
 257 624 l 1
 326 699 l 1
 394 624 l 1
492 548 m 1
 423 624 l 1
 492 699 l 1
 560 624 l 1
 492 548 l 1
586 369 m 1
 656 432 l 1
 656 216 l 2
 656 95 584 0 482 0 c 0x5e
 433 0 402 24 383 48 c 1
 352 17 311 -2 258 -2 c 0x9e
 192 -2 147 14 124 72 c 1
 105 31 77 0 38 0 c 2
 0 0 l 1
 0 98 l 1
 52 98 l 2
 97 98 111 166 128 247 c 0
 135 280 141 309 160 309 c 0
 179 309 180 281 180 257 c 0
 180 226 172 164 153 117 c 1
 179 103 201 98 257 98 c 0x5e
 380 98 376 153 376 269 c 0
 376 326 381 344 409 345 c 0
 435 346 440 333 443 232 c 0
 444 189 438 148 424 113 c 1
 448 103 475 99 500 101 c 0
 550 104 586 141 586 187 c 2x3e
 586 369 l 1
EndSplineSet
Validated: 33
Substitution2: "Single Substitution lookup 54 subtable" uniFEB7.sheenYeh
Substitution2: "'aalt' Access All Alternates lookup 0 subtable" uniFEB7.sheenYeh
EndChar

StartChar: uniFEB7.sheenYeh
Encoding: 1114213 -1 81
Width: 700
GlyphClass: 2
Flags: MW
HStem: -2 100<151 223> 0 103 230 84<0 24 24 31 0 24> 412 20G<604 604> 849 20G<393 393>
VStem: 321.2 66.8 533 71<187 216 216 369 369 369>
AnchorPoint: "Anchor-1" 390 1010 basechar 0
AnchorPoint: "Anchor-0" 408 -94 basechar 0
LayerCount: 2
Fore
SplineSet
461 794 m 1xbe
 393 718 l 1
 324 794 l 1
 393 869 l 1
 461 794 l 1xbe
394 624 m 1
 326 548 l 1
 257 624 l 1
 326 699 l 1
 394 624 l 1
492 548 m 1
 423 624 l 1
 492 699 l 1
 560 624 l 1
 492 548 l 1
533 369 m 1
 604 432 l 1
 604 216 l 2
 604 95 531 0 429 0 c 0x7e
 381 0 348 22 330 45 c 1
 299 16 255 -2 191 -2 c 0
 111 -2 68 23 54 86 c 0
 46 134 39 182 31 230 c 1
 0 230 l 1
 0 314 l 1
 24 314 l 2
 55 314 86 281 92 215 c 0
 102 109 98 98 181 98 c 0xbe
 338 98 324 170 318 275 c 0
 318 313 320 337 354 339 c 0
 380 340 385 331 388 257 c 0
 391 205 387 155 372 113 c 1
 399 103 427 99 452 103 c 0
 499 106 533 143 533 187 c 2x7e
 533 369 l 1
EndSplineSet
Validated: 33
EndChar

StartChar: uni0635
Encoding: 1589 1589 82
Width: 700
GlyphClass: 2
Flags: MW
HStem: -380 98<39.5 136.5 39.5 175> 0 98<354 509> 388 86<524 590>
VStem: -125 46<-142.5 -47> 265 78 638 58<151.5 232.5>
AnchorPoint: "Anchor-1" 440 700 basechar 0
AnchorPoint: "Anchor-0" 420 -420 basechar 0
LayerCount: 2
Fore
SplineSet
574 474 m 0
 672 474 696 339 696 218 c 0
 696 40 557 0 461 0 c 0
 408 0 370 2 343 5 c 1
 340 -250 253 -380 97 -380 c 0
 -46 -380 -125 -271 -125 -99 c 0
 -125 5 -102 70 -46 152 c 1
 -24 120 l 1
 -31 100 -79 31 -79 -79 c 0
 -79 -206 -8 -282 87 -282 c 0
 186 -282 265 -202 265 1 c 0
 265 83 244 190 229 246 c 1
 310 275 l 1
 319 246 328 202 334 158 c 1
 385 301 449 474 574 474 c 0
359 98 m 2
 480 98 638 88 638 215 c 0
 638 250 623 388 557 388 c 0
 491 388 418 268 354 98 c 1
 359 98 l 2
EndSplineSet
Validated: 33
Substitution2: "'fina' Terminal Forms lookup 31 subtable" uniFEBA
Substitution2: "'medi' Medial Forms lookup 30 subtable" uniFEBC
Substitution2: "'init' Initial Forms lookup 29 subtable" uniFEBB
AlternateSubs2: "'aalt' Access All Alternates lookup 1 subtable" uniFEBB uniFEBC uniFEBA
EndChar

StartChar: uniFEBA
Encoding: 65210 65210 83
Width: 700
GlyphClass: 2
Flags: MW
HStem: -380 98<39.5 136.5 39.5 175> 0 98<354 461 667 700> 388 86<524 590>
VStem: -125 46<-142.5 -47> 265 78 638 58<193 232.5>
AnchorPoint: "Anchor-1" 400 700 basechar 0
AnchorPoint: "Anchor-0" 420 -420 basechar 0
LayerCount: 2
Fore
SplineSet
667 98 m 1
 700 98 l 1
 700 0 l 1
 471 0 l 1
 461 0 l 2
 408 0 370 2 343 5 c 1
 340 -250 253 -380 97 -380 c 0
 -46 -380 -125 -271 -125 -99 c 0
 -125 5 -102 70 -46 152 c 1
 -24 120 l 1
 -31 100 -79 31 -79 -79 c 0
 -79 -206 -8 -282 87 -282 c 0
 186 -282 265 -202 265 1 c 0
 265 83 244 190 229 246 c 1
 310 275 l 1
 319 246 328 202 334 158 c 1
 385 301 449 474 574 474 c 0
 672 474 696 339 696 218 c 0
 696 168 685 128 667 98 c 1
359 98 m 2
 480 98 638 88 638 215 c 0
 638 250 623 388 557 388 c 0
 491 388 418 268 354 98 c 1
 359 98 l 2
EndSplineSet
Validated: 33
EndChar

StartChar: uniFEBC
Encoding: 65212 65212 84
Width: 700
GlyphClass: 2
Flags: MW
HStem: 0 98<0 17.5 188.5 228 228 414 414 470> 396 96<456.5 524.5>
VStem: 0 109 83 60<130.5 282> 612 49<187 247>
AnchorPoint: "Anchor-1" 350 710 basechar 0
AnchorPoint: "Anchor-0" 460 -110 basechar 0
LayerCount: 2
Fore
SplineSet
614 97 m 1xd8
 700 98 l 1
 700 0 l 1
 228 0 l 2
 149 0 117 44 109 59 c 1
 105 13 35 0 0 0 c 1
 0 98 l 1xe8
 62 98 l 2
 71 98 83 111 83 146 c 2
 83 282 l 1
 145 282 l 1
 143 138 l 2
 143 123 143 115 141 111 c 1
 147 114 155 119 159 125 c 0
 282 337 405 492 508 492 c 0
 610 492 661 343 661 217 c 0
 661 157 646 115 614 97 c 1xd8
414 98 m 2
 526 98 612 117 612 210 c 0
 612 284 563 396 486 396 c 0
 394 396 280 240 184 98 c 1
 414 98 l 2
EndSplineSet
Validated: 1
Substitution2: "Single Substitution lookup 54 subtable" uniFEBC.sadYeh
Substitution2: "'aalt' Access All Alternates lookup 0 subtable" uniFEBC.sadYeh
EndChar

StartChar: uniFEBC.sadYeh
Encoding: 1114214 -1 85
Width: 700
GlyphClass: 2
Flags: MW
HStem: 0 98<200 271 362 432 432 496 654 700 362 362> 230 84<0 24 24 32 0 24> 386 110<474 530.5>
VStem: 616 66<198 246>
AnchorPoint: "Anchor-1" 350 700 basechar 0
AnchorPoint: "Anchor-0" 460 -110 basechar 0
LayerCount: 2
Fore
SplineSet
654 98 m 1
 700 98 l 1
 700 0 l 1
 362 0 l 1
 362 1 l 1
 328 0 291 0 251 0 c 0
 115 0 69 18 53 101 c 2
 32 230 l 1
 0 230 l 1
 0 314 l 1
 24 314 l 2
 53 314 84 270 89 198 c 0
 96 114 104 98 131 98 c 0
 158 98 166 109 180 136 c 0
 284 354 423 496 525 496 c 0
 627 496 682 353 682 225 c 0
 682 171 673 129 654 98 c 1
200 98 m 1
 432 98 l 2
 560 98 616 112 616 200 c 0
 616 292 568 386 493 386 c 0
 404 386 293 253 200 98 c 1
EndSplineSet
Validated: 1
EndChar

StartChar: uniFEBB
Encoding: 65211 65211 86
Width: 700
GlyphClass: 2
Flags: MW
HStem: 0 98<0 17.5 200 393> 386 101<472 531>
VStem: 45 59<221 222 222 241 221 241.5> 628 58<162.5 246>
AnchorPoint: "Anchor-1" 350 700 basechar 0
AnchorPoint: "Anchor-0" 460 -110 basechar 0
LayerCount: 2
Fore
SplineSet
0 0 m 1
 0 98 l 1
 21 98 l 2
 38 98 45 110 45 161 c 2
 45 222 l 2
 45 261 54 282 75 282 c 0
 97 282 104 261 104 221 c 2
 103 138 l 2
 103 108 104 98 139 98 c 0
 155 98 165 106 173 125 c 0
 270 337 419 487 525 487 c 0
 624 487 686 353 686 227 c 0
 686 59 584 0 393 0 c 2
 194 0 l 2
 149 0 99 44 91 59 c 1
 81 32 35 0 0 0 c 1
200 98 m 1
 453 98 l 2
 585 98 628 123 628 202 c 0
 628 290 567 386 495 386 c 0
 403 386 293 253 200 98 c 1
EndSplineSet
Validated: 1
Substitution2: "Single Substitution lookup 54 subtable" uniFEBB.sadYeh
Substitution2: "'aalt' Access All Alternates lookup 0 subtable" uniFEBB.sadYeh
EndChar

StartChar: uniFEBB.sadYeh
Encoding: 1114215 -1 87
Width: 700
GlyphClass: 2
Flags: MW
HStem: 0 98<200 391.5> 230 84<0 24 24 32 0 24> 386 110<474 530.5>
VStem: 616 66<156 246>
AnchorPoint: "Anchor-1" 400 700 basechar 0
AnchorPoint: "Anchor-0" 480 -110 basechar 0
LayerCount: 2
Fore
SplineSet
251 0 m 0
 115 0 69 18 53 101 c 2
 32 230 l 1
 0 230 l 1
 0 314 l 1
 24 314 l 2
 53 314 84 270 89 198 c 0
 96 114 104 98 131 98 c 0
 158 98 166 109 180 136 c 0
 284 354 423 496 525 496 c 0
 627 496 682 353 682 225 c 0
 682 6 532 0 251 0 c 0
200 98 m 1
 432 98 l 2
 560 98 616 112 616 200 c 0
 616 292 568 386 493 386 c 0
 404 386 293 253 200 98 c 1
EndSplineSet
Validated: 1
EndChar

StartChar: uni0636
Encoding: 1590 1590 88
Width: 700
GlyphClass: 2
Flags: MW
HStem: -380 98<39.5 136.5 39.5 175> 0 98<354 509> 388 86<524 590>
VStem: -125 46<-142.5 -47> 265 78 638 58<151.5 232.5>
AnchorPoint: "Anchor-1" 450 900 basechar 0
AnchorPoint: "Anchor-0" 420 -420 basechar 0
LayerCount: 2
Fore
SplineSet
535 660 m 1
 467 584 l 1
 398 660 l 1
 467 735 l 1
 535 660 l 1
574 474 m 0
 672 474 696 339 696 218 c 0
 696 40 557 0 461 0 c 0
 408 0 370 2 343 5 c 1
 340 -250 253 -380 97 -380 c 0
 -46 -380 -125 -271 -125 -99 c 0
 -125 5 -102 70 -46 152 c 1
 -24 120 l 1
 -31 100 -79 31 -79 -79 c 0
 -79 -206 -8 -282 87 -282 c 0
 186 -282 265 -202 265 1 c 0
 265 83 244 190 229 246 c 1
 310 275 l 1
 319 246 328 202 334 158 c 1
 385 301 449 474 574 474 c 0
359 98 m 2
 480 98 638 88 638 215 c 0
 638 250 623 388 557 388 c 0
 491 388 418 268 354 98 c 1
 359 98 l 2
EndSplineSet
Validated: 33
Substitution2: "'fina' Terminal Forms lookup 31 subtable" uniFEBE
Substitution2: "'medi' Medial Forms lookup 30 subtable" uniFEC0
Substitution2: "'init' Initial Forms lookup 29 subtable" uniFEBF
AlternateSubs2: "'aalt' Access All Alternates lookup 1 subtable" uniFEBF uniFEC0 uniFEBE
EndChar

StartChar: uniFEBE
Encoding: 65214 65214 89
Width: 700
GlyphClass: 2
Flags: MW
HStem: -380 98<39.5 136.5 39.5 175> 0 98<354 461 667 700> 388 86<524 590>
VStem: -125 46<-142.5 -47> 265 78 638 58<193 232.5>
AnchorPoint: "Anchor-1" 350 900 basechar 0
AnchorPoint: "Anchor-0" 420 -420 basechar 0
LayerCount: 2
Fore
SplineSet
531 660 m 1
 463 584 l 1
 394 660 l 1
 463 735 l 1
 531 660 l 1
667 98 m 1
 700 98 l 1
 700 0 l 1
 471 0 l 1
 461 0 l 2
 408 0 370 2 343 5 c 1
 340 -250 253 -380 97 -380 c 0
 -46 -380 -125 -271 -125 -99 c 0
 -125 5 -102 70 -46 152 c 1
 -24 120 l 1
 -31 100 -79 31 -79 -79 c 0
 -79 -206 -8 -282 87 -282 c 0
 186 -282 265 -202 265 1 c 0
 265 83 244 190 229 246 c 1
 310 275 l 1
 319 246 328 202 334 158 c 1
 385 301 449 474 574 474 c 0
 672 474 696 339 696 218 c 0
 696 168 685 128 667 98 c 1
359 98 m 2
 480 98 638 88 638 215 c 0
 638 250 623 388 557 388 c 0
 491 388 418 268 354 98 c 1
 359 98 l 2
EndSplineSet
Validated: 33
EndChar

StartChar: uniFEC0
Encoding: 65216 65216 90
Width: 700
GlyphClass: 2
Flags: MW
HStem: 0 98<0 17.5 188.5 228 228 414 414 470> 396 96<456.5 524.5>
VStem: 0 109 83 60<130.5 282> 612 49<187 247>
AnchorPoint: "Anchor-1" 350 900 basechar 0
AnchorPoint: "Anchor-0" 400 -110 basechar 0
LayerCount: 2
Fore
SplineSet
418 680 m 1xd8
 350 604 l 1
 281 680 l 1
 350 755 l 1
 418 680 l 1xd8
614 97 m 1
 700 98 l 1
 700 0 l 1
 228 0 l 2
 149 0 117 44 109 59 c 1
 105 13 35 0 0 0 c 1
 0 98 l 1xe8
 62 98 l 2
 71 98 83 111 83 146 c 2
 83 282 l 1
 145 282 l 1
 143 138 l 2
 143 123 143 115 141 111 c 1
 147 114 155 119 159 125 c 0
 282 337 405 492 508 492 c 0
 610 492 661 343 661 217 c 0
 661 157 646 115 614 97 c 1
414 98 m 2
 526 98 612 117 612 210 c 0
 612 284 563 396 486 396 c 0
 394 396 280 240 184 98 c 1
 414 98 l 2
EndSplineSet
Validated: 1
Substitution2: "Single Substitution lookup 54 subtable" uniFEC0.dadYeh
Substitution2: "'aalt' Access All Alternates lookup 0 subtable" uniFEC0.dadYeh
EndChar

StartChar: uniFEC0.dadYeh
Encoding: 1114216 -1 91
Width: 700
GlyphClass: 2
Flags: MW
HStem: 0 98<200 271 362 432 432 496 654 700 362 362> 230 84<0 24 24 32 0 24> 386 110<474 530.5>
VStem: 616 66<198 246>
AnchorPoint: "Anchor-1" 350 900 basechar 0
AnchorPoint: "Anchor-0" 400 -110 basechar 0
LayerCount: 2
Fore
SplineSet
418 660 m 1
 350 584 l 1
 281 660 l 1
 350 735 l 1
 418 660 l 1
654 98 m 1
 700 98 l 1
 700 0 l 1
 362 0 l 1
 362 1 l 1
 328 0 291 0 251 0 c 0
 115 0 69 18 53 101 c 2
 32 230 l 1
 0 230 l 1
 0 314 l 1
 24 314 l 2
 53 314 84 270 89 198 c 0
 96 114 104 98 131 98 c 0
 158 98 166 109 180 136 c 0
 284 354 423 496 525 496 c 0
 627 496 682 353 682 225 c 0
 682 171 673 129 654 98 c 1
200 98 m 1
 432 98 l 2
 560 98 616 112 616 200 c 0
 616 292 568 386 493 386 c 0
 404 386 293 253 200 98 c 1
EndSplineSet
Validated: 1
EndChar

StartChar: uniFEBF
Encoding: 65215 65215 92
Width: 700
GlyphClass: 2
Flags: MW
HStem: 0 98<0 17.5 200 393> 386 101<472 531>
VStem: 45 59<221 222 222 241 221 241.5> 628 58<162.5 246>
AnchorPoint: "Anchor-1" 380 900 basechar 0
AnchorPoint: "Anchor-0" 500 -110 basechar 0
LayerCount: 2
Fore
SplineSet
350 584 m 1
 281 660 l 1
 350 735 l 1
 418 660 l 1
 350 584 l 1
0 0 m 1
 0 98 l 1
 21 98 l 2
 38 98 45 110 45 161 c 2
 45 222 l 2
 45 261 54 282 75 282 c 0
 97 282 104 261 104 221 c 2
 103 138 l 2
 103 108 104 98 139 98 c 0
 155 98 165 106 173 125 c 0
 270 337 419 487 525 487 c 0
 624 487 686 353 686 227 c 0
 686 59 584 0 393 0 c 2
 194 0 l 2
 149 0 99 44 91 59 c 1
 81 32 35 0 0 0 c 1
200 98 m 1
 453 98 l 2
 585 98 628 123 628 202 c 0
 628 290 567 386 495 386 c 0
 403 386 293 253 200 98 c 1
EndSplineSet
Validated: 1
Substitution2: "Single Substitution lookup 54 subtable" uniFEBF.dadYeh
Substitution2: "'aalt' Access All Alternates lookup 0 subtable" uniFEBF.dadYeh
EndChar

StartChar: uniFEBF.dadYeh
Encoding: 1114217 -1 93
Width: 700
GlyphClass: 2
Flags: MW
HStem: 0 98<200 391.5> 230 84<0 24 24 32 0 24> 386 110<474 530.5>
VStem: 616 66<156 246>
AnchorPoint: "Anchor-1" 380 900 basechar 0
AnchorPoint: "Anchor-0" 499 -110 basechar 0
LayerCount: 2
Fore
SplineSet
350 584 m 1
 281 660 l 1
 350 735 l 1
 418 660 l 1
 350 584 l 1
251 0 m 0
 115 0 69 18 53 101 c 2
 32 230 l 1
 0 230 l 1
 0 314 l 1
 24 314 l 2
 53 314 84 270 89 198 c 0
 96 114 104 98 131 98 c 0
 158 98 166 109 180 136 c 0
 284 354 423 496 525 496 c 0
 627 496 682 353 682 225 c 0
 682 6 532 0 251 0 c 0
200 98 m 1
 432 98 l 2
 560 98 616 112 616 200 c 0
 616 292 568 386 493 386 c 0
 404 386 293 253 200 98 c 1
EndSplineSet
Validated: 1
EndChar

StartChar: uni0637
Encoding: 1591 1591 94
Width: 700
GlyphClass: 2
Flags: MW
HStem: 0 98<54 61 61 74 164 357 0 61> 386 101<431 495.5> 852 20G<181 181>
VStem: 142 44 592 58<175 260.5>
AnchorPoint: "Anchor-1" 450 900 basechar 0
AnchorPoint: "Anchor-0" 420 -110 basechar 0
LayerCount: 2
Fore
SplineSet
486 487 m 0
 591 487 650 354 650 230 c 0
 650 45 530 0 357 0 c 2
 0 0 l 1
 0 74 37 97 54 98 c 2
 61 98 l 2
 87 98 109 101 123 112 c 1
 139 148 144 199 142 289 c 0
 141 376 134 740 113 790 c 1
 181 872 l 1
 226 767 l 1
 183 702 184 388 186 215 c 1
 264 344 376 487 486 487 c 0
417 98 m 2
 518 98 592 128 592 222 c 0
 592 299 531 386 460 386 c 0
 369 386 268 264 164 98 c 1
 417 98 l 2
EndSplineSet
Validated: 33
Substitution2: "'fina' Terminal Forms lookup 31 subtable" uniFEC2
Substitution2: "'medi' Medial Forms lookup 30 subtable" uniFEC4
Substitution2: "'init' Initial Forms lookup 29 subtable" uniFEC3
AlternateSubs2: "'aalt' Access All Alternates lookup 1 subtable" uniFEC3 uniFEC4 uniFEC2
EndChar

StartChar: uniFEC2
Encoding: 65218 65218 95
Width: 700
GlyphClass: 2
Flags: MW
HStem: 0 98<54 61 61 74 164 417 417 467.5 619 700 0 61> 386 101<431 495.5> 852 20G<181 181>
VStem: 142 44 592 58<202 260.5>
AnchorPoint: "Anchor-1" 450 900 basechar 0
AnchorPoint: "Anchor-0" 420 -110 basechar 0
LayerCount: 2
Fore
SplineSet
619 98 m 1
 700 98 l 1
 700 0 l 1
 0 0 l 1
 0 74 37 97 54 98 c 2
 61 98 l 2
 87 98 109 101 123 112 c 1
 139 148 144 199 142 289 c 0
 141 376 134 740 113 790 c 1
 181 872 l 1
 226 767 l 1
 183 702 184 388 186 215 c 1
 264 344 376 487 486 487 c 0
 591 487 650 354 650 230 c 0
 650 174 639 131 619 98 c 1
417 98 m 2
 518 98 592 128 592 222 c 0
 592 299 531 386 460 386 c 0
 369 386 268 264 164 98 c 1
 417 98 l 2
EndSplineSet
Validated: 33
EndChar

StartChar: uniFEC4
Encoding: 65220 65220 96
Width: 700
GlyphClass: 2
Flags: MW
HStem: 0 98<1 61 61 74 164 417 417 467.5 619 700 1 61> 386 101<431 495.5> 852 20G<181 181>
VStem: 142 44 592 58<202 260.5>
AnchorPoint: "Anchor-1" 450 900 basechar 0
AnchorPoint: "Anchor-0" 420 -110 basechar 0
LayerCount: 2
Fore
SplineSet
619 98 m 1
 700 98 l 1
 700 0 l 1
 1 0 l 1
 1 98 l 1
 61 98 l 2
 87 98 109 101 123 112 c 1
 139 148 144 199 142 289 c 0
 141 376 134 740 113 790 c 1
 181 872 l 1
 226 767 l 1
 183 702 184 388 186 215 c 1
 264 344 376 487 486 487 c 0
 591 487 650 354 650 230 c 0
 650 174 639 131 619 98 c 1
417 98 m 2
 518 98 592 128 592 222 c 0
 592 299 531 386 460 386 c 0
 369 386 268 264 164 98 c 1
 417 98 l 2
EndSplineSet
Validated: 33
EndChar

StartChar: uniFEC3
Encoding: 65219 65219 97
Width: 700
GlyphClass: 2
Flags: MW
HStem: 0 98<0 97 97 107.5 200 393 0 97> 386 101<465.5 531.5> 852 20G<211 211>
VStem: 172 44 628 58<175 260.5>
AnchorPoint: "Anchor-1" 550 900 basechar 0
AnchorPoint: "Anchor-0" 420 -110 basechar 0
LayerCount: 2
Fore
SplineSet
522 487 m 0
 627 487 686 354 686 230 c 0
 686 45 566 0 393 0 c 2
 0 0 l 1
 0 98 l 1
 97 98 l 2
 118 98 137 100 150 107 c 1
 169 143 174 194 172 289 c 0
 171 376 164 740 143 790 c 1
 211 872 l 1
 256 767 l 1
 212 701 214 376 216 205 c 1
 295 337 409 487 522 487 c 0
453 98 m 2
 554 98 628 128 628 222 c 0
 628 299 567 386 496 386 c 0
 405 386 304 264 200 98 c 1
 453 98 l 2
EndSplineSet
Validated: 33
EndChar

StartChar: uni0638
Encoding: 1592 1592 98
Width: 700
GlyphClass: 2
Flags: MW
HStem: 0 98<54 61 61 74 164 357 0 61> 386 101<431 495.5> 852 20G<181 181>
VStem: 142 44 592 58<175 260.5>
AnchorPoint: "Anchor-1" 470 935 basechar 0
AnchorPoint: "Anchor-0" 470 -110 basechar 0
LayerCount: 2
Fore
SplineSet
486 487 m 0
 591 487 650 354 650 230 c 0
 650 45 530 0 357 0 c 2
 0 0 l 1
 0 74 37 97 54 98 c 2
 61 98 l 2
 87 98 109 101 123 112 c 1
 139 148 144 199 142 289 c 0
 141 376 134 740 113 790 c 1
 181 872 l 1
 226 767 l 1
 183 702 184 388 186 215 c 1
 264 344 376 487 486 487 c 0
538 675 m 1
 470 599 l 1
 401 675 l 1
 470 750 l 1
 538 675 l 1
417 98 m 2
 518 98 592 128 592 222 c 0
 592 299 531 386 460 386 c 0
 369 386 268 264 164 98 c 1
 417 98 l 2
EndSplineSet
Validated: 33
Substitution2: "'fina' Terminal Forms lookup 31 subtable" uniFEC6
Substitution2: "'medi' Medial Forms lookup 30 subtable" uniFEC8
Substitution2: "'init' Initial Forms lookup 29 subtable" uniFEC7
AlternateSubs2: "'aalt' Access All Alternates lookup 1 subtable" uniFEC7 uniFEC8 uniFEC6
EndChar

StartChar: uniFEC6
Encoding: 65222 65222 99
Width: 700
GlyphClass: 2
Flags: MW
HStem: 0 98<54 61 61 74 164 417 417 467.5 619 700 0 61> 386 101<431 495.5> 852 20G<181 181>
VStem: 142 44 592 58<202 260.5>
AnchorPoint: "Anchor-1" 470 935 basechar 0
AnchorPoint: "Anchor-0" 420 -110 basechar 0
LayerCount: 2
Fore
SplineSet
619 98 m 1
 700 98 l 1
 700 0 l 1
 0 0 l 1
 0 74 37 97 54 98 c 2
 61 98 l 2
 87 98 109 101 123 112 c 1
 139 148 144 199 142 289 c 0
 141 376 134 740 113 790 c 1
 181 872 l 1
 226 767 l 1
 183 702 184 388 186 215 c 1
 264 344 376 487 486 487 c 0
 591 487 650 354 650 230 c 0
 650 174 639 131 619 98 c 1
518 660 m 1
 450 584 l 1
 381 660 l 1
 450 735 l 1
 518 660 l 1
417 98 m 2
 518 98 592 128 592 222 c 0
 592 299 531 386 460 386 c 0
 369 386 268 264 164 98 c 1
 417 98 l 2
EndSplineSet
Validated: 33
EndChar

StartChar: uniFEC8
Encoding: 65224 65224 100
Width: 700
GlyphClass: 2
Flags: MW
HStem: 0 98<1 61 61 74 164 417 417 467.5 619 700 1 61> 386 101<431 495.5> 852 20G<181 181>
VStem: 142 44 592 58<202 260.5>
AnchorPoint: "Anchor-1" 470 935 basechar 0
AnchorPoint: "Anchor-0" 420 -110 basechar 0
LayerCount: 2
Fore
SplineSet
619 98 m 1
 700 98 l 1
 700 0 l 1
 1 0 l 1
 1 98 l 1
 61 98 l 2
 87 98 109 101 123 112 c 1
 139 148 144 199 142 289 c 0
 141 376 134 740 113 790 c 1
 181 872 l 1
 226 767 l 1
 183 702 184 388 186 215 c 1
 264 344 376 487 486 487 c 0
 591 487 650 354 650 230 c 0
 650 174 639 131 619 98 c 1
518 675 m 1
 450 599 l 1
 381 675 l 1
 450 750 l 1
 518 675 l 1
417 98 m 2
 518 98 592 128 592 222 c 0
 592 299 531 386 460 386 c 0
 369 386 268 264 164 98 c 1
 417 98 l 2
EndSplineSet
Validated: 33
EndChar

StartChar: uniFEC7
Encoding: 65223 65223 101
Width: 700
GlyphClass: 2
Flags: MW
HStem: 0 98<0 97 97 107.5 200 393 0 97> 386 101<465.5 531.5> 852 20G<211 211>
VStem: 172 44 628 58<175 260.5>
AnchorPoint: "Anchor-1" 520 935 basechar 0
AnchorPoint: "Anchor-0" 420 -110 basechar 0
LayerCount: 2
Fore
SplineSet
522 487 m 0
 627 487 686 354 686 230 c 0
 686 45 566 0 393 0 c 2
 0 0 l 1
 0 98 l 1
 97 98 l 2
 118 98 137 100 150 107 c 1
 169 143 174 194 172 289 c 0
 171 376 164 740 143 790 c 1
 211 872 l 1
 256 767 l 1
 212 701 214 376 216 205 c 1
 295 337 409 487 522 487 c 0
558 675 m 1
 490 599 l 1
 421 675 l 1
 490 750 l 1
 558 675 l 1
453 98 m 2
 554 98 628 128 628 222 c 0
 628 299 567 386 496 386 c 0
 405 386 304 264 200 98 c 1
 453 98 l 2
EndSplineSet
Validated: 33
EndChar

StartChar: uni0639
Encoding: 1593 1593 102
Width: 700
GlyphClass: 2
Flags: MW
HStem: -486 94<276 396.5> 579 99
VStem: 33 77<-218 -109.5> 156 55
AnchorPoint: "Anchor-1" 370 830 basechar 0
AnchorPoint: "Anchor-0" 420 -530 basechar 0
LayerCount: 2
Fore
SplineSet
622 -282 m 1
 637 -300 l 1
 582 -387 477 -486 316 -486 c 0
 142 -486 33 -370 33 -200 c 0
 33 -19 165 162 342 220 c 1
 262 207 160 295 156 397 c 0
 152 513 262 674 375 678 c 0
 439 680 504 633 530 561 c 1
 513 523 l 1
 467 562 425 581 380 579 c 0
 309 575 199 529 211 430 c 1
 231 363 266 302 408 315 c 0
 470 319 539 340 618 365 c 1
 603 275 l 1
 410 220 110 111 110 -150 c 0
 110 -286 191 -392 361 -392 c 0
 479 -392 562 -341 622 -282 c 1
EndSplineSet
Validated: 33
Substitution2: "'fina' Terminal Forms lookup 31 subtable" uniFECA
Substitution2: "'medi' Medial Forms lookup 30 subtable" uniFECC
Substitution2: "'init' Initial Forms lookup 29 subtable" uniFECB
AlternateSubs2: "'aalt' Access All Alternates lookup 1 subtable" uniFECB uniFECC uniFECA
EndChar

StartChar: uniFECA
Encoding: 65226 65226 103
Width: 700
GlyphClass: 2
Flags: MW
HStem: -534 94<294.5 415> 0 98<553 585 585 700> 427 99<287 391>
VStem: 43 77<-272 -163.5> 148 59<365 395 365 435> 478 57
AnchorPoint: "Anchor-1" 420 781 basechar 0
AnchorPoint: "Anchor-0" 420 -578 basechar 0
LayerCount: 2
Fore
SplineSet
304 88 m 0
 205 15 120 -66 120 -202 c 0
 120 -342 208 -440 381 -440 c 0
 503 -440 587 -386 644 -330 c 1
 659 -348 l 1
 598 -441 497 -534 333 -534 c 0
 177 -534 43 -443 43 -246 c 0xf4
 43 -81 149 26 261 108 c 0
 286 129 319 151 349 170 c 1
 284 214 247 238 202 273 c 0
 160 307 148 328 148 378 c 0xfc
 148 492 211 526 349 526 c 0
 509 526 533 480 535 414 c 0
 536 373 530 319 487 256 c 0
 465 224 438 195 408 169 c 1
 459 122 499 98 553 98 c 2
 700 98 l 1
 700 0 l 1
 585 0 l 2
 500 0 431 81 379 144 c 1
 353 123 327 105 304 88 c 0
237 317 m 0xfc
 277 286 293 274 386 201 c 1
 439 271 481 342 478 404 c 1
 471 421 436 427 346 427 c 0
 228 427 207 417 207 373 c 0
 207 357 210 337 237 317 c 0xfc
EndSplineSet
Validated: 33
EndChar

StartChar: uniFECC
Encoding: 65228 65228 104
Width: 700
GlyphClass: 2
Flags: MW
HStem: 0 98<0 105 0 127 648 660 660 700> 422 98<337 441>
VStem: 198 59<359.5 389.5 359.5 429> 528 57
AnchorPoint: "Anchor-1" 410 710 basechar 0
AnchorPoint: "Anchor-0" 433 -110 basechar 0
LayerCount: 2
Fore
SplineSet
648 98 m 2
 700 98 l 1
 700 0 l 1
 660 0 l 2
 614 0 566 11 521 44 c 0
 488 67 461 99 439 128 c 1
 361 57 251 0 105 0 c 2
 0 0 l 1
 0 98 l 1
 127 98 l 2
 235 98 358 128 399 164 c 1
 331 210 296 233 252 267 c 0
 210 301 198 322 198 372 c 0
 198 486 261 520 400 520 c 0
 564 520 581 473 585 405 c 0
 588 357 583 326 545 260 c 0
 526 228 502 194 472 162 c 1
 493 136 513 117 549 107 c 0
 579 98 613 98 648 98 c 2
287 311 m 0
 327 281 343 268 436 196 c 1
 477 249 532 333 528 399 c 1
 521 416 486 422 396 422 c 0
 278 422 257 411 257 368 c 0
 257 351 260 332 287 311 c 0
EndSplineSet
Validated: 33
Substitution2: "Single Substitution lookup 54 subtable" uniFECC.ainAlef
Substitution2: "'aalt' Access All Alternates lookup 0 subtable" uniFECC.ainAlef
EndChar

StartChar: uniFECC.ainAlef
Encoding: 1114218 -1 105
Width: 700
GlyphClass: 2
Flags: MW
HStem: 0 98<0 25 0 45 592 700> 421 99<222 330>
VStem: 80 59<360 392 360 420.5> 410 57
AnchorPoint: "Anchor-1" 260 710 basechar 0
AnchorPoint: "Anchor-0" 300 -110 basechar 0
LayerCount: 2
Fore
SplineSet
592 98 m 2
 700 98 l 1
 700 0 l 1
 592 0 l 2
 482 0 400 32 316 116 c 1
 246 51 150 0 25 0 c 2
 0 0 l 1
 0 98 l 1
 45 98 l 2
 117 98 240 128 281 164 c 1
 200 219 172 238 134 268 c 0
 93 301 80 323 80 362 c 0
 80 479 128 520 282 520 c 0
 446 520 462 474 467 405 c 0
 471 354 463 323 427 260 c 0
 408 226 383 188 352 153 c 1
 418 102 490 98 592 98 c 2
169 311 m 2
 318 196 l 1
 374 271 412 335 410 399 c 1
 396 417 375 421 285 421 c 0
 159 421 139 413 139 371 c 0
 139 349 142 332 169 311 c 2
EndSplineSet
Validated: 33
EndChar

StartChar: uniFECB
Encoding: 65227 65227 106
Width: 700
GlyphClass: 2
Flags: MW
HStem: 0 98<0 71 0 305> 471 98<376.5 442>
VStem: 175 54<303.5 362>
AnchorPoint: "Anchor-1" 376 770 basechar 0
AnchorPoint: "Anchor-0" 420 -110 basechar 0
LayerCount: 2
Fore
SplineSet
450 117 m 0
 495 118 560 132 604 143 c 1
 592 52 l 1
 384 3 277 0 71 0 c 2
 0 0 l 1
 0 98 l 1
 305 98 l 1
 217 144 175 223 175 297 c 0
 175 427 305 569 413 569 c 0
 479 569 542 515 563 439 c 1
 548 402 l 1
 517 429 474 471 410 471 c 0
 343 471 229 431 229 335 c 0
 229 272 283 112 450 117 c 0
EndSplineSet
Validated: 33
EndChar

StartChar: uni063A
Encoding: 1594 1594 107
Width: 700
GlyphClass: 2
Flags: MW
HStem: -486 94<276 396.5> 579 99
VStem: 33 77<-218 -109.5> 156 55
AnchorPoint: "Anchor-1" 370 1030 basechar 0
AnchorPoint: "Anchor-0" 420 -530 basechar 0
LayerCount: 2
Fore
SplineSet
443 824 m 1
 375 748 l 1
 306 824 l 1
 375 899 l 1
 443 824 l 1
622 -282 m 1
 637 -300 l 1
 582 -387 477 -486 316 -486 c 0
 142 -486 33 -370 33 -200 c 0
 33 -19 165 162 342 220 c 1
 262 207 160 295 156 397 c 0
 152 513 262 674 375 678 c 0
 439 680 504 633 530 561 c 1
 513 523 l 1
 467 562 425 581 380 579 c 0
 309 575 199 529 211 430 c 1
 231 363 266 302 408 315 c 0
 470 319 539 340 618 365 c 1
 603 275 l 1
 410 220 110 111 110 -150 c 0
 110 -286 191 -392 361 -392 c 0
 479 -392 562 -341 622 -282 c 1
EndSplineSet
Validated: 33
Substitution2: "'fina' Terminal Forms lookup 31 subtable" uniFECE
Substitution2: "'medi' Medial Forms lookup 30 subtable" uniFED0
Substitution2: "'init' Initial Forms lookup 29 subtable" uniFECF
AlternateSubs2: "'aalt' Access All Alternates lookup 1 subtable" uniFECF uniFED0 uniFECE
EndChar

StartChar: uniFECE
Encoding: 65230 65230 108
Width: 700
GlyphClass: 2
Flags: MW
HStem: -534 94<294.5 415> 0 98<553 585 585 700> 427 99<287 391>
VStem: 43 77<-272 -163.5> 148 59<365 395 365 435> 478 57
AnchorPoint: "Anchor-1" 420 950 basechar 0
AnchorPoint: "Anchor-0" 593 -500 basechar 0
LayerCount: 2
Fore
SplineSet
415 691 m 1
 347 615 l 1
 278 691 l 1
 347 766 l 1
 415 691 l 1
304 88 m 0
 205 15 120 -66 120 -202 c 0
 120 -342 208 -440 381 -440 c 0
 503 -440 587 -386 644 -330 c 1
 659 -348 l 1
 598 -441 497 -534 333 -534 c 0
 177 -534 43 -443 43 -246 c 0xf4
 43 -81 149 26 261 108 c 0
 286 129 319 151 349 170 c 1
 284 214 247 238 202 273 c 0
 160 307 148 328 148 378 c 0xfc
 148 492 211 526 349 526 c 0
 509 526 533 480 535 414 c 0
 536 373 530 319 487 256 c 0
 465 224 438 195 408 169 c 1
 459 122 499 98 553 98 c 2
 700 98 l 1
 700 0 l 1
 585 0 l 2
 500 0 431 81 379 144 c 1
 353 123 327 105 304 88 c 0
237 317 m 0xfc
 277 286 293 274 386 201 c 1
 439 271 481 342 478 404 c 1
 471 421 436 427 346 427 c 0
 228 427 207 417 207 373 c 0
 207 357 210 337 237 317 c 0xfc
EndSplineSet
Validated: 33
EndChar

StartChar: uniFED0
Encoding: 65232 65232 109
Width: 700
GlyphClass: 2
Flags: MW
HStem: 0 98<0 105 0 127 648 660 660 700> 422 98<337 441>
VStem: 198 59<359.5 389.5 359.5 429> 528 57
AnchorPoint: "Anchor-1" 400 950 basechar 0
AnchorPoint: "Anchor-0" 420 -110 basechar 0
LayerCount: 2
Fore
SplineSet
465 701 m 1
 397 625 l 1
 328 701 l 1
 397 776 l 1
 465 701 l 1
648 98 m 2
 700 98 l 1
 700 0 l 1
 660 0 l 2
 614 0 566 11 521 44 c 0
 488 67 461 99 439 128 c 1
 361 57 251 0 105 0 c 2
 0 0 l 1
 0 98 l 1
 127 98 l 2
 235 98 358 128 399 164 c 1
 331 210 296 233 252 267 c 0
 210 301 198 322 198 372 c 0
 198 486 261 520 400 520 c 0
 564 520 581 473 585 405 c 0
 588 357 583 326 545 260 c 0
 526 228 502 194 472 162 c 1
 493 136 513 117 549 107 c 0
 579 98 613 98 648 98 c 2
287 311 m 0
 327 281 343 268 436 196 c 1
 477 249 532 333 528 399 c 1
 521 416 486 422 396 422 c 0
 278 422 257 411 257 368 c 0
 257 351 260 332 287 311 c 0
EndSplineSet
Validated: 33
Substitution2: "Single Substitution lookup 54 subtable" uniFED0.ghainAlef
Substitution2: "'aalt' Access All Alternates lookup 0 subtable" uniFED0.ghainAlef
EndChar

StartChar: uniFED0.ghainAlef
Encoding: 1114219 -1 110
Width: 700
GlyphClass: 2
Flags: MW
HStem: 0 98<0 25 0 45 592 700> 421 99<222 330>
VStem: 80 59<360 392 360 420.5> 410 57
AnchorPoint: "Anchor-1" 260 954 basechar 0
AnchorPoint: "Anchor-0" 300 -110 basechar 0
LayerCount: 2
Fore
SplineSet
325 701 m 1
 257 625 l 1
 188 701 l 1
 257 776 l 1
 325 701 l 1
592 98 m 2
 700 98 l 1
 700 0 l 1
 592 0 l 2
 482 0 400 32 316 116 c 1
 246 51 150 0 25 0 c 2
 0 0 l 1
 0 98 l 1
 45 98 l 2
 117 98 240 128 281 164 c 1
 200 219 172 238 134 268 c 0
 93 301 80 323 80 362 c 0
 80 479 128 520 282 520 c 0
 446 520 462 474 467 405 c 0
 471 354 463 323 427 260 c 0
 408 226 383 188 352 153 c 1
 418 102 490 98 592 98 c 2
169 311 m 2
 318 196 l 1
 374 271 412 335 410 399 c 1
 396 417 375 421 285 421 c 0
 159 421 139 413 139 371 c 0
 139 349 142 332 169 311 c 2
EndSplineSet
Validated: 33
EndChar

StartChar: uniFECF
Encoding: 65231 65231 111
Width: 700
GlyphClass: 2
Flags: MW
HStem: 0 98<0 71 0 305> 471 98<376.5 442>
VStem: 175 54<303.5 362>
AnchorPoint: "Anchor-1" 367 990 basechar 0
AnchorPoint: "Anchor-0" 420 -110 basechar 0
LayerCount: 2
Fore
SplineSet
431 776 m 1
 363 700 l 1
 294 776 l 1
 363 851 l 1
 431 776 l 1
450 117 m 0
 495 118 560 132 604 143 c 1
 592 52 l 1
 384 3 277 0 71 0 c 2
 0 0 l 1
 0 98 l 1
 305 98 l 1
 217 144 175 223 175 297 c 0
 175 427 305 569 413 569 c 0
 479 569 542 515 563 439 c 1
 548 402 l 1
 517 429 474 471 410 471 c 0
 343 471 229 431 229 335 c 0
 229 272 283 112 450 117 c 0
EndSplineSet
Validated: 33
EndChar

StartChar: uni0641
Encoding: 1601 1601 112
Width: 700
GlyphClass: 2
Flags: MW
HStem: 0 98<178 218 218 362> 258.25 89.96
VStem: 5 40<176 192> 348 55 625 63<209 263 263 263>
AnchorPoint: "Anchor-1" 440 1000 basechar 0
AnchorPoint: "Anchor-0" 420 -110 basechar 0
LayerCount: 2
Fore
SplineSet
548 855 m 1
 480 779 l 1
 411 855 l 1
 480 930 l 1
 548 855 l 1
508 650 m 0
 596 650 688 450 688 258 c 0
 688 33 562 0 362 0 c 2
 218 0 l 2
 69 0 5 61 5 166 c 0
 5 218 21 285 50 318 c 1
 67 306 l 1
 58 290 45 252 45 210 c 0
 45 142 80 98 178 98 c 2
 414 98 l 2
 512 98 625 109 625 209 c 2
 625 263 l 1
 486 244 357 275 348 366 c 0
 341 445 419 650 508 650 c 0
403 415 m 0
 403 339 491 344 615 353 c 1
 595 435 549 550 499 565 c 0
 448 581 403 467 403 415 c 0
EndSplineSet
Validated: 33
Substitution2: "'fina' Terminal Forms lookup 31 subtable" uniFED2
Substitution2: "'medi' Medial Forms lookup 30 subtable" uniFED4
Substitution2: "'init' Initial Forms lookup 29 subtable" uniFED3
AlternateSubs2: "'aalt' Access All Alternates lookup 1 subtable" uniFED3 uniFED4 uniFED2
EndChar

StartChar: uniFED2
Encoding: 65234 65234 113
Width: 700
GlyphClass: 2
Flags: MW
HStem: 0 98<173 213 213 365 693.5 700> 451 84<447 514>
VStem: 0 37<163.5 184.5> 342 51<343 375.5> 591.28 59.72
AnchorPoint: "Anchor-1" 378 980 basechar 0
AnchorPoint: "Anchor-0" 434 -110 basechar 0
LayerCount: 2
Fore
SplineSet
549 749 m 1
 481 673 l 1
 412 749 l 1
 481 824 l 1
 549 749 l 1
625 145 m 1
 639 133 687 98 700 98 c 1
 700 0 l 1
 659 0 581 86 572 99 c 1
 529 31 475 0 365 0 c 2
 213 0 l 2
 65 0 0 60 0 167 c 0
 0 202 7 259 47 317 c 1
 67 301 l 1
 39 247 37 216 37 198 c 0
 37 129 62 98 173 98 c 2
 397 98 l 2
 437 98 500 95 543 121 c 1
 408 214 342 268 342 338 c 0
 342 413 409 535 484 535 c 0
 572 535 651 387 651 283 c 0
 651 250 646 214 625 145 c 1
393 370 m 0
 393 316 485 249 582 168 c 1
 584 173 586 178 587 184 c 0
 607 271 557 451 471 451 c 0
 423 451 393 401 393 370 c 0
EndSplineSet
Validated: 33
EndChar

StartChar: uniFED4
Encoding: 65236 65236 114
Width: 700
GlyphClass: 2
Flags: MW
HStem: 0 98<0 120 120 158 0 120 666 700> 472 71<307.5 353.5>
VStem: 189 62<330 357> 469 74<273.5 343 265 349>
AnchorPoint: "Anchor-1" 350 990 basechar 0
AnchorPoint: "Anchor-0" 424 -110 basechar 0
LayerCount: 2
Fore
SplineSet
398 756 m 1
 330 680 l 1
 261 756 l 1
 330 831 l 1
 398 756 l 1
666 98 m 2
 700 98 l 1
 700 0 l 1
 645 0 l 2
 602 0 526 36 459 98 c 1
 410 50 342 0 158 0 c 2
 0 0 l 1
 0 98 l 1
 120 98 l 2
 284 98 354 101 397 127 c 1
 334 160 276 192 240 223 c 0
 207 251 189 282 189 323 c 0
 189 391 242 543 351 543 c 0
 458 543 543 396 543 290 c 0
 543 240 524 191 495 144 c 1
 507 137 534 117 573 106 c 0
 600 98 624 98 666 98 c 2
437 168 m 1
 462 208 469 257 469 290 c 0
 469 408 376 472 331 472 c 0
 284 472 251 404 251 361 c 0
 251 299 318 250 437 168 c 1
EndSplineSet
Validated: 1
EndChar

StartChar: uniFED3
Encoding: 65235 65235 115
Width: 700
GlyphClass: 2
Flags: MW
HStem: 0 98<0 317 0 369> 233 96<411.5 436> 583 79<399.5 466>
VStem: 278 61<376 402.5> 592 56<240 244 244 244>
AnchorPoint: "Anchor-1" 390 1140 basechar 0
AnchorPoint: "Anchor-0" 500 -110 basechar 0
LayerCount: 2
Fore
SplineSet
510 865 m 1
 442 789 l 1
 373 865 l 1
 442 940 l 1
 510 865 l 1
450 662 m 0
 547 662 648 474 648 267 c 0
 648 59 546 0 317 0 c 2
 0 0 l 1
 0 98 l 1
 369 98 l 2
 474 98 592 114 592 240 c 2
 592 244 l 1
 516 237 453 233 419 233 c 0
 311 233 278 276 278 349 c 0
 278 456 349 662 450 662 c 0
449 329 m 0
 474 329 521 330 581 333 c 1
 558 443 504 583 428 583 c 0
 357 583 339 464 339 411 c 0
 339 341 374 329 449 329 c 0
EndSplineSet
Validated: 1
EndChar

StartChar: uni06A4
Encoding: 1700 1700 116
Width: 700
GlyphClass: 2
Flags: MW
HStem: 0 98<178 218 218 362> 258.25 89.96
VStem: 5 40<176 192> 348 55 625 63<209 263 263 263>
AnchorPoint: "Anchor-1" 440 1220 basechar 0
AnchorPoint: "Anchor-0" 420 -110 basechar 0
LayerCount: 2
Fore
SplineSet
521 1013 m 1
 453 937 l 1
 384 1013 l 1
 453 1088 l 1
 521 1013 l 1
454 843 m 1
 386 767 l 1
 317 843 l 1
 386 918 l 1
 454 843 l 1
552 767 m 1
 483 843 l 1
 552 918 l 1
 620 843 l 1
 552 767 l 1
508 650 m 0
 596 650 688 450 688 258 c 0
 688 33 562 0 362 0 c 2
 218 0 l 2
 69 0 5 61 5 166 c 0
 5 218 21 285 50 318 c 1
 67 306 l 1
 58 290 45 252 45 210 c 0
 45 142 80 98 178 98 c 2
 414 98 l 2
 512 98 625 109 625 209 c 2
 625 263 l 1
 486 244 357 275 348 366 c 0
 341 445 419 650 508 650 c 0
403 415 m 0
 403 339 491 344 615 353 c 1
 595 435 549 550 499 565 c 0
 448 581 403 467 403 415 c 0
EndSplineSet
Validated: 33
Substitution2: "'fina' Terminal Forms lookup 31 subtable" uniFB6B
Substitution2: "'medi' Medial Forms lookup 30 subtable" uniFB6D
Substitution2: "'init' Initial Forms lookup 29 subtable" uniFB6C
AlternateSubs2: "'aalt' Access All Alternates lookup 1 subtable" uniFB6C uniFB6D uniFB6B
EndChar

StartChar: uniFB6B
Encoding: 64363 64363 117
Width: 700
GlyphClass: 2
Flags: MW
HStem: 0 98<173 213 213 365 693.5 700> 451 84<447 514>
VStem: 0 37<163.5 184.5> 342 51<343 375.5> 591.28 59.72
AnchorPoint: "Anchor-1" 450 1110 basechar 0
AnchorPoint: "Anchor-0" 455 -110 basechar 0
LayerCount: 2
Fore
SplineSet
543 904 m 1
 475 828 l 1
 406 904 l 1
 475 979 l 1
 543 904 l 1
476 734 m 1
 408 658 l 1
 339 734 l 1
 408 809 l 1
 476 734 l 1
574 658 m 1
 505 734 l 1
 574 809 l 1
 642 734 l 1
 574 658 l 1
625 145 m 1
 639 133 687 98 700 98 c 1
 700 0 l 1
 659 0 581 86 572 99 c 1
 529 31 475 0 365 0 c 2
 213 0 l 2
 65 0 0 60 0 167 c 0
 0 202 7 259 47 317 c 1
 67 301 l 1
 39 247 37 216 37 198 c 0
 37 129 62 98 173 98 c 2
 397 98 l 2
 437 98 500 95 543 121 c 1
 408 214 342 268 342 338 c 0
 342 413 409 535 484 535 c 0
 572 535 651 387 651 283 c 0
 651 250 646 214 625 145 c 1
393 370 m 0
 393 316 485 249 582 168 c 1
 584 173 586 178 587 184 c 0
 607 271 557 451 471 451 c 0
 423 451 393 401 393 370 c 0
EndSplineSet
Validated: 33
EndChar

StartChar: uniFB6D
Encoding: 64365 64365 118
Width: 700
GlyphClass: 2
Flags: MW
HStem: 0 98<0 120 120 158 0 120 666 700> 472 71<307.5 353.5>
VStem: 189 62<330 357> 469 74<273.5 343 265 349>
AnchorPoint: "Anchor-1" 350 1110 basechar 0
AnchorPoint: "Anchor-0" 430 -110 basechar 0
LayerCount: 2
Fore
SplineSet
395 930 m 1
 327 854 l 1
 258 930 l 1
 327 1005 l 1
 395 930 l 1
328 760 m 1
 260 684 l 1
 191 760 l 1
 260 835 l 1
 328 760 l 1
426 684 m 1
 357 760 l 1
 426 835 l 1
 494 760 l 1
 426 684 l 1
666 98 m 2
 700 98 l 1
 700 0 l 1
 645 0 l 2
 602 0 526 36 459 98 c 1
 410 50 342 0 158 0 c 2
 0 0 l 1
 0 98 l 1
 120 98 l 2
 284 98 354 101 397 127 c 1
 334 160 276 192 240 223 c 0
 207 251 189 282 189 323 c 0
 189 391 242 543 351 543 c 0
 458 543 543 396 543 290 c 0
 543 240 524 191 495 144 c 1
 507 137 534 117 573 106 c 0
 600 98 624 98 666 98 c 2
437 168 m 1
 462 208 469 257 469 290 c 0
 469 408 376 472 331 472 c 0
 284 472 251 404 251 361 c 0
 251 299 318 250 437 168 c 1
EndSplineSet
Validated: 1
EndChar

StartChar: uniFB6C
Encoding: 64364 64364 119
Width: 700
GlyphClass: 2
Flags: MW
HStem: 0 98<0 317 0 369> 233 96<411.5 436> 583 79<399.5 466>
VStem: 278 61<376 402.5> 592 56<240 244 244 244>
AnchorPoint: "Anchor-1" 400 1250 basechar 0
AnchorPoint: "Anchor-0" 500 -110 basechar 0
LayerCount: 2
Fore
SplineSet
480 1014 m 1
 412 938 l 1
 343 1014 l 1
 412 1089 l 1
 480 1014 l 1
413 844 m 1
 345 768 l 1
 276 844 l 1
 345 919 l 1
 413 844 l 1
511 768 m 1
 442 844 l 1
 511 919 l 1
 579 844 l 1
 511 768 l 1
450 662 m 0
 547 662 648 474 648 267 c 0
 648 59 546 0 317 0 c 2
 0 0 l 1
 0 98 l 1
 369 98 l 2
 474 98 592 114 592 240 c 2
 592 244 l 1
 516 237 453 233 419 233 c 0
 311 233 278 276 278 349 c 0
 278 456 349 662 450 662 c 0
449 329 m 0
 474 329 521 330 581 333 c 1
 558 443 504 583 428 583 c 0
 357 583 339 464 339 411 c 0
 339 341 374 329 449 329 c 0
EndSplineSet
Validated: 1
EndChar

StartChar: uni06A1
Encoding: 1697 1697 120
Width: 700
GlyphClass: 2
Flags: MW
HStem: 0 98<178 218 218 362> 258.25 89.96
VStem: 5 40<176 192> 348 55 625 63<209 263 263 263>
AnchorPoint: "Anchor-1" 420 900 basechar 0
AnchorPoint: "Anchor-0" 420 -110 basechar 0
LayerCount: 2
Fore
SplineSet
508 650 m 0
 596 650 688 450 688 258 c 0
 688 33 562 0 362 0 c 2
 218 0 l 2
 69 0 5 61 5 166 c 0
 5 218 21 285 50 318 c 1
 67 306 l 1
 58 290 45 252 45 210 c 0
 45 142 80 98 178 98 c 2
 414 98 l 2
 512 98 625 109 625 209 c 2
 625 263 l 1
 486 244 357 275 348 366 c 0
 341 445 419 650 508 650 c 0
403 415 m 0
 403 339 491 344 615 353 c 1
 595 435 549 550 499 565 c 0
 448 581 403 467 403 415 c 0
EndSplineSet
Validated: 33
Substitution2: "'fina' Terminal Forms lookup 31 subtable" uni06A1.fina
Substitution2: "'medi' Medial Forms lookup 30 subtable" uni06A1.medi
Substitution2: "'init' Initial Forms lookup 29 subtable" uni06A1.init
AlternateSubs2: "'aalt' Access All Alternates lookup 1 subtable" uni06A1.init uni06A1.medi uni06A1.fina
EndChar

StartChar: uni06A1.fina
Encoding: 1114220 -1 121
Width: 700
GlyphClass: 2
Flags: MW
HStem: 0 98<173 213 213 365 693.5 700> 451 84<447 514>
VStem: 0 37<163.5 184.5> 342 51<343 375.5> 591.28 59.72
AnchorPoint: "Anchor-1" 420 760 basechar 0
AnchorPoint: "Anchor-0" 455 -110 basechar 0
LayerCount: 2
Fore
SplineSet
625 145 m 1
 639 133 687 98 700 98 c 1
 700 0 l 1
 659 0 581 86 572 99 c 1
 529 31 475 0 365 0 c 2
 213 0 l 2
 65 0 0 60 0 167 c 0
 0 202 7 259 47 317 c 1
 67 301 l 1
 39 247 37 216 37 198 c 0
 37 129 62 98 173 98 c 2
 397 98 l 2
 437 98 500 95 543 121 c 1
 408 214 342 268 342 338 c 0
 342 413 409 535 484 535 c 0
 572 535 651 387 651 283 c 0
 651 250 646 214 625 145 c 1
393 370 m 0
 393 316 485 249 582 168 c 1
 584 173 586 178 587 184 c 0
 607 271 557 451 471 451 c 0
 423 451 393 401 393 370 c 0
EndSplineSet
Validated: 33
EndChar

StartChar: uni06A1.medi
Encoding: 1114221 -1 122
Width: 700
GlyphClass: 2
Flags: MW
HStem: 0 98<0 120 120 158 0 120 666 700> 472 71<307.5 353.5>
VStem: 189 62<330 357> 469 74<273.5 343 265 349>
AnchorPoint: "Anchor-1" 360 760 basechar 0
AnchorPoint: "Anchor-0" 430 -110 basechar 0
LayerCount: 2
Fore
SplineSet
666 98 m 2
 700 98 l 1
 700 0 l 1
 645 0 l 2
 602 0 526 36 459 98 c 1
 410 50 342 0 158 0 c 2
 0 0 l 1
 0 98 l 1
 120 98 l 2
 284 98 354 101 397 127 c 1
 334 160 276 192 240 223 c 0
 207 251 189 282 189 323 c 0
 189 391 242 543 351 543 c 0
 458 543 543 396 543 290 c 0
 543 240 524 191 495 144 c 1
 507 137 534 117 573 106 c 0
 600 98 624 98 666 98 c 2
437 168 m 1
 462 208 469 257 469 290 c 0
 469 408 376 472 331 472 c 0
 284 472 251 404 251 361 c 0
 251 299 318 250 437 168 c 1
EndSplineSet
Validated: 1
EndChar

StartChar: uni06A1.init
Encoding: 1114222 -1 123
Width: 700
GlyphClass: 2
Flags: MW
HStem: 0 98<0 317 0 369> 233 96<411.5 436> 583 79<399.5 466>
VStem: 278 61<376 402.5> 592 56<240 244 244 244>
AnchorPoint: "Anchor-1" 420 850 basechar 0
AnchorPoint: "Anchor-0" 500 -80 basechar 0
LayerCount: 2
Fore
SplineSet
450 662 m 0
 547 662 648 474 648 267 c 0
 648 59 546 0 317 0 c 2
 0 0 l 1
 0 98 l 1
 369 98 l 2
 474 98 592 114 592 240 c 2
 592 244 l 1
 516 237 453 233 419 233 c 0
 311 233 278 276 278 349 c 0
 278 456 349 662 450 662 c 0
449 329 m 0
 474 329 521 330 581 333 c 1
 558 443 504 583 428 583 c 0
 357 583 339 464 339 411 c 0
 339 341 374 329 449 329 c 0
EndSplineSet
Validated: 1
EndChar

StartChar: uni066F
Encoding: 1647 1647 124
Width: 700
GlyphClass: 2
Flags: MW
HStem: -196 98<242.5 386 242.5 427.5> 173 92 593 20G<419 494.5>
VStem: 19 46<42.5 123> 318 61 598 70
AnchorPoint: "Anchor-1" 464 850 basechar 0
AnchorPoint: "Anchor-0" 420 -270 basechar 0
LayerCount: 2
Fore
SplineSet
668 239 m 0
 675 -44 538 -196 317 -196 c 0
 136 -196 19 -95 19 80 c 0
 19 166 48 246 95 298 c 1
 110 276 l 1
 101 260 65 195 65 115 c 0
 65 -30 174 -98 311 -98 c 0
 461 -98 589 -16 598 173 c 1
 461 165 319 197 318 337 c 0
 317 419 364 613 474 613 c 0
 515 613 568 572 615 477 c 0
 641 425 665 350 668 239 c 0
379 355 m 0
 379 292 439 274 593 265 c 1
 575 402 511 548 453 535 c 0
 406 524 379 405 379 355 c 0
EndSplineSet
Validated: 33
Substitution2: "'fina' Terminal Forms lookup 31 subtable" uni066F.fina
Substitution2: "'aalt' Access All Alternates lookup 0 subtable" uni066F.fina
EndChar

StartChar: uni066F.fina
Encoding: 1114223 -1 125
Width: 700
GlyphClass: 2
Flags: MW
HStem: -354 98<224.5 370.5 224.5 408> 0 98<657 700 657 700 655 700>
VStem: 0 46<-104 -17> 307 61 583 72<1 1>
AnchorPoint: "Anchor-1" 389 750 basechar 0
AnchorPoint: "Anchor-0" 409 -420 basechar 0
LayerCount: 2
Fore
SplineSet
657 98 m 1
 700 98 l 1
 700 0 l 1
 655 0 l 1
 645 -227 507 -354 309 -354 c 0
 117 -354 0 -235 0 -60 c 0
 0 26 28 87 71 145 c 1
 90 120 l 1
 81 104 46 50 46 -30 c 0
 46 -178 150 -256 299 -256 c 0
 442 -256 569 -184 583 1 c 1
 457 6 308 38 307 175 c 0
 306 259 354 454 460 454 c 0
 504 454 555 416 597 330 c 0
 635 252 654 164 657 98 c 1
368 199 m 0
 368 127 407 110 581 100 c 1
 567 232 517 391 445 373 c 0
 390 361 368 255 368 199 c 0
EndSplineSet
Validated: 33
EndChar

StartChar: uni0642
Encoding: 1602 1602 126
Width: 700
GlyphClass: 2
Flags: MW
HStem: -196 98<242.5 386 242.5 427.5> 173 92 593 20G<419 494.5>
VStem: 19 46<42.5 123> 318 61 598 70
AnchorPoint: "Anchor-1" 430 1050 basechar 0
AnchorPoint: "Anchor-0" 420 -270 basechar 0
LayerCount: 2
Fore
SplineSet
603 823 m 1
 537 747 l 1
 467 821 l 1
 534 896 l 1
 603 823 l 1
414 821 m 1
 349 744 l 1
 279 818 l 1
 345 893 l 1
 414 821 l 1
668 239 m 0
 675 -44 538 -196 317 -196 c 0
 136 -196 19 -95 19 80 c 0
 19 166 48 246 95 298 c 1
 110 276 l 1
 101 260 65 195 65 115 c 0
 65 -30 174 -98 311 -98 c 0
 461 -98 589 -16 598 173 c 1
 461 165 319 197 318 337 c 0
 317 419 364 613 474 613 c 0
 515 613 568 572 615 477 c 0
 641 425 665 350 668 239 c 0
379 355 m 0
 379 292 439 274 593 265 c 1
 575 402 511 548 453 535 c 0
 406 524 379 405 379 355 c 0
EndSplineSet
Validated: 33
Substitution2: "'fina' Terminal Forms lookup 31 subtable" uniFED6
Substitution2: "'medi' Medial Forms lookup 30 subtable" uniFED8
Substitution2: "'init' Initial Forms lookup 29 subtable" uniFED7
AlternateSubs2: "'aalt' Access All Alternates lookup 1 subtable" uniFED7 uniFED8 uniFED6
EndChar

StartChar: uniFED6
Encoding: 65238 65238 127
Width: 700
GlyphClass: 2
Flags: MW
HStem: -354 98<224.5 370.5 224.5 408> 0 98<657 700 657 700 655 700>
VStem: 0 46<-104 -17> 307 61 583 72<1 1>
AnchorPoint: "Anchor-1" 400 900 basechar 0
AnchorPoint: "Anchor-0" 420 -420 basechar 0
LayerCount: 2
Fore
SplineSet
621 664 m 1
 555 588 l 1
 485 662 l 1
 552 737 l 1
 621 664 l 1
432 662 m 1
 367 585 l 1
 297 659 l 1
 363 734 l 1
 432 662 l 1
657 98 m 1
 700 98 l 1
 700 0 l 1
 655 0 l 1
 645 -227 507 -354 309 -354 c 0
 117 -354 0 -235 0 -60 c 0
 0 26 28 87 71 145 c 1
 90 120 l 1
 81 104 46 50 46 -30 c 0
 46 -178 150 -256 299 -256 c 0
 442 -256 569 -184 583 1 c 1
 457 6 308 38 307 175 c 0
 306 259 354 454 460 454 c 0
 504 454 555 416 597 330 c 0
 635 252 654 164 657 98 c 1
368 199 m 0
 368 127 407 110 581 100 c 1
 567 232 517 391 445 373 c 0
 390 361 368 255 368 199 c 0
EndSplineSet
Validated: 33
EndChar

StartChar: uniFED8
Encoding: 65240 65240 128
Width: 700
GlyphClass: 2
Flags: MW
HStem: 0 98<0 120 120 158 0 120 666 700> 472 71<307.5 353.5>
VStem: 189 62<330 357> 469 74<273.5 343 265 349>
AnchorPoint: "Anchor-1" 350 1040 basechar 0
AnchorPoint: "Anchor-0" 440 -110 basechar 0
LayerCount: 2
Fore
SplineSet
509 760 m 1
 443 684 l 1
 373 758 l 1
 440 833 l 1
 509 760 l 1
320 758 m 1
 255 681 l 1
 185 755 l 1
 251 830 l 1
 320 758 l 1
666 98 m 2
 700 98 l 1
 700 0 l 1
 645 0 l 2
 602 0 526 36 459 98 c 1
 410 50 342 0 158 0 c 2
 0 0 l 1
 0 98 l 1
 120 98 l 2
 284 98 354 101 397 127 c 1
 334 160 276 192 240 223 c 0
 207 251 189 282 189 323 c 0
 189 391 242 543 351 543 c 0
 458 543 543 396 543 290 c 0
 543 240 524 191 495 144 c 1
 507 137 534 117 573 106 c 0
 600 98 624 98 666 98 c 2
437 168 m 1
 462 208 469 257 469 290 c 0
 469 408 376 472 331 472 c 0
 284 472 251 404 251 361 c 0
 251 299 318 250 437 168 c 1
EndSplineSet
Validated: 1
EndChar

StartChar: uniFED7
Encoding: 65239 65239 129
Width: 700
GlyphClass: 2
Flags: MW
HStem: 0 98<0 317 0 369> 233 96<411.5 436> 583 79<399.5 466>
VStem: 278 61<376 402.5> 592 56<240 244 244 244>
AnchorPoint: "Anchor-1" 420 1080 basechar 0
AnchorPoint: "Anchor-0" 500 -110 basechar 0
LayerCount: 2
Fore
SplineSet
575 858 m 1
 509 782 l 1
 439 856 l 1
 506 931 l 1
 575 858 l 1
386 856 m 1
 321 779 l 1
 251 853 l 1
 317 928 l 1
 386 856 l 1
450 662 m 0
 547 662 648 474 648 267 c 0
 648 59 546 0 317 0 c 2
 0 0 l 1
 0 98 l 1
 369 98 l 2
 474 98 592 114 592 240 c 2
 592 244 l 1
 516 237 453 233 419 233 c 0
 311 233 278 276 278 349 c 0
 278 456 349 662 450 662 c 0
449 329 m 0
 474 329 521 330 581 333 c 1
 558 443 504 583 428 583 c 0
 357 583 339 464 339 411 c 0
 339 341 374 329 449 329 c 0
EndSplineSet
Validated: 1
EndChar

StartChar: uni0643
Encoding: 1603 1603 130
Width: 700
GlyphClass: 2
Flags: MW
HStem: 0 98<146.5 213 213 450> 852 20G<690 690>
VStem: 174 38<508.5 523.5> 275 48<409.5 430.5> 633 57<186 195 195 275>
AnchorPoint: "Anchor-1" 330 830 basechar 0
AnchorPoint: "Anchor-0" 350 -110 basechar 0
LayerCount: 2
Fore
SplineSet
213 0 m 2
 80 0 1 8 1 98 c 1
 513 98 l 2
 578 98 633 136 633 236 c 0
 633 314 618 531 600 795 c 1
 690 872 l 1
 690 195 l 2
 690 56 621 0 450 0 c 2
 213 0 l 2
139 306 m 1
 141 332 l 1
 231 375 275 394 275 415 c 0
 275 446 223 450 191 462 c 0
 179 466 174 471 174 489 c 0
 174 558 241 626 297 626 c 0
 305 626 314 626 322 622 c 1
 296 578 l 1
 251 579 212 548 212 528 c 0
 212 489 323 502 323 446 c 0
 323 373 202 330 139 306 c 1
EndSplineSet
Validated: 33
Substitution2: "'fina' Terminal Forms lookup 31 subtable" uniFEDA
Substitution2: "'medi' Medial Forms lookup 30 subtable" uniFEDC
Substitution2: "'init' Initial Forms lookup 29 subtable" uniFEDB
AlternateSubs2: "'aalt' Access All Alternates lookup 1 subtable" uniFEDB uniFEDC uniFEDA
EndChar

StartChar: uniFEDA
Encoding: 65242 65242 131
Width: 700
GlyphClass: 2
Flags: MW
HStem: 0 98<173 213 213 398 689 700> 852 20G<653 661 661 661>
VStem: 0 48<157 193> 228 38<540.5 555.5> 329 48<441.5 462.5> 566 95<787 872> 587 26 613 36
AnchorPoint: "Anchor-1" 320 860 basechar 0
AnchorPoint: "Anchor-0" 400 -110 basechar 0
LayerCount: 2
Fore
SplineSet
213 0 m 2xfc
 91 0 0 45 0 151 c 0
 0 235 32 291 58 339 c 1
 74 331 l 1
 55 283 48 232 48 191 c 0
 48 123 98 98 173 98 c 2
 418 98 l 2
 527 98 579 118 587 251 c 0xfa
 593 358 579 669 566 787 c 1
 653 872 l 1
 661 872 l 1xfc
 661 778 644 372 649 282 c 0
 653 179 678 98 700 98 c 1
 700 0 l 1xf9
 653 0 618 95 613 267 c 1xfa
 598 5 498 0 398 0 c 2
 213 0 l 2xfc
193 338 m 1
 195 364 l 1
 285 407 329 426 329 447 c 0
 329 478 277 482 245 494 c 0
 233 498 228 503 228 521 c 0
 228 590 295 658 351 658 c 0
 359 658 368 658 376 654 c 1
 350 610 l 1
 305 611 266 580 266 560 c 0
 266 521 377 534 377 478 c 0
 377 405 256 362 193 338 c 1
EndSplineSet
Validated: 33
EndChar

StartChar: uniFEDC
Encoding: 65244 65244 132
Width: 700
GlyphClass: 2
Flags: MW
HStem: 0 98<0 70 70 136.5 0 295 0 70 666 700>
VStem: 100.56 48.44 441.78 52.22
AnchorPoint: "Anchor-1" 350 970 basechar 0
AnchorPoint: "Anchor-0" 420 -110 basechar 0
LayerCount: 2
Fore
SplineSet
666 98 m 2
 700 98 l 1
 700 0 l 1
 662 0 l 2
 609 0 549 62 494 156 c 1
 476 81 416 0 295 0 c 2
 0 0 l 1
 0 98 l 1
 70 98 l 2
 203 98 368 89 430 123 c 1
 510 251 161 423 132 417 c 1
 103 417 84 435 121 536 c 1
 220 664 456 802 575 854 c 1
 562 764 l 1
 149 506 l 1
 292 461 432 362 481 275 c 1
 527 216 553 162 583 134 c 0
 607 112 640 98 666 98 c 2
EndSplineSet
Validated: 33
Substitution2: "Single Substitution lookup 54 subtable" uniFEDC.kafAlef
Substitution2: "'aalt' Access All Alternates lookup 0 subtable" uniFEDC.kafAlef
EndChar

StartChar: uniFEDC.kafAlef
Encoding: 1114224 -1 133
Width: 700
GlyphClass: 2
Flags: MW
HStem: 0 98<0 242 242 333 0 242 678 700> 311 87
VStem: -169 56 512 70<233.5 236>
AnchorPoint: "Anchor-1" 250 970 basechar 0
AnchorPoint: "Anchor-0" 350 -110 basechar 0
LayerCount: 2
Fore
SplineSet
678 98 m 2
 700 98 l 1
 700 0 l 1
 678 0 l 2
 614 0 574 45 558 118 c 1
 527 50 461 0 333 0 c 2
 0 0 l 1
 0 98 l 1
 242 98 l 2
 474 98 501 116 512 196 c 1
 512 276 449 319 318 315 c 2
 18 307 l 2
 -82 304 -167 310 -169 381 c 0
 -172 495 -2 675 258 776 c 1
 243 685 l 1
 89 611 -71 500 -113 391 c 1
 314 405 l 2
 492 411 582 331 582 243 c 0
 582 224 581 205 578 187 c 1
 584 130 616 98 678 98 c 2
EndSplineSet
Validated: 33
EndChar

StartChar: uniFEDB
Encoding: 65243 65243 134
Width: 700
GlyphClass: 2
Flags: MW
HStem: 0 98<0 150 150 216.5 0 375 0 150>
VStem: 180.56 48.44 521.78 58.04
AnchorPoint: "Anchor-1" 350 970 basechar 0
AnchorPoint: "Anchor-0" 420 -110 basechar 0
LayerCount: 2
Fore
SplineSet
655 854 m 1
 642 764 l 1
 229 506 l 1
 393 455 552 333 576 239 c 0
 595 163 546 0 375 0 c 2
 0 0 l 1
 0 98 l 1
 150 98 l 2
 283 98 448 89 510 123 c 1
 590 251 241 423 212 417 c 1
 183 417 164 435 201 536 c 1
 300 664 536 802 655 854 c 1
EndSplineSet
Validated: 33
Substitution2: "Single Substitution lookup 54 subtable" uniFEDB.kafAlef
Substitution2: "'aalt' Access All Alternates lookup 0 subtable" uniFEDB.kafAlef
EndChar

StartChar: uniFEDB.kafAlef
Encoding: 1114225 -1 135
Width: 700
GlyphClass: 2
Flags: MW
HStem: 0 98<0 242 242 333 0 242> 311 87
VStem: -169 56 512 70<196 236>
AnchorPoint: "Anchor-1" 250 970 basechar 0
AnchorPoint: "Anchor-0" 350 -110 basechar 0
LayerCount: 2
Fore
SplineSet
314 405 m 2
 492 411 582 331 582 243 c 0
 582 122 533 0 333 0 c 2
 0 0 l 1
 0 98 l 1
 242 98 l 2
 474 98 501 116 512 196 c 1
 512 276 449 319 318 315 c 2
 18 307 l 2
 -82 304 -167 310 -169 381 c 0
 -172 495 -2 675 258 776 c 1
 243 685 l 1
 89 611 -71 500 -113 391 c 1
 314 405 l 2
EndSplineSet
Validated: 33
EndChar

StartChar: uni06A9
Encoding: 1705 1705 136
Width: 700
GlyphClass: 2
Flags: MW
HStem: 0 98<120.5 150 150 216.5 120.5 375>
VStem: 0 60.43 180.56 48.44 521.78 58.04
AnchorPoint: "Anchor-1" 350 970 basechar 0
AnchorPoint: "Anchor-0" 350 -110 basechar 0
LayerCount: 2
Fore
SplineSet
655 854 m 1
 642 764 l 1
 229 506 l 1
 393 455 552 333 576 239 c 0
 595 163 546 0 375 0 c 2
 150 0 l 2
 62 0 0 47 0 120 c 0
 0 174 24 229 57 258 c 1
 66 254 55 228 52 196 c 0
 45 137 91 98 150 98 c 0
 283 98 448 89 510 123 c 1
 590 251 241 423 212 417 c 1
 183 417 164 435 201 536 c 1
 300 664 536 802 655 854 c 1
EndSplineSet
Validated: 33
Substitution2: "'fina' Terminal Forms lookup 31 subtable" uniFB8F
Substitution2: "'medi' Medial Forms lookup 30 subtable" uniFB91
Substitution2: "'init' Initial Forms lookup 29 subtable" uniFB90
AlternateSubs2: "'aalt' Access All Alternates lookup 1 subtable" uniFB90 uniFB91 uniFB8F
EndChar

StartChar: uniFB8F
Encoding: 64399 64399 137
Width: 700
GlyphClass: 2
Flags: MW
HStem: 0 98<120.5 150 150 216.5 120.5 375 688 700>
VStem: 0 60.43 180.56 48.44 521.78 178.22
AnchorPoint: "Anchor-1" 350 970 basechar 0
AnchorPoint: "Anchor-0" 400 -110 basechar 0
LayerCount: 2
Fore
SplineSet
688 98 m 2
 700 98 l 1
 700 0 l 1
 688 0 l 2
 658 0 625 61 574 155 c 1
 555 81 495 0 375 0 c 2
 150 0 l 2
 62 0 0 47 0 120 c 0
 0 174 24 229 57 258 c 1
 66 254 55 228 52 196 c 0
 45 137 91 98 150 98 c 0
 283 98 448 89 510 123 c 1
 590 251 241 423 212 417 c 1
 183 417 164 435 201 536 c 1
 300 664 536 802 655 854 c 1
 642 764 l 1
 229 506 l 1
 352 468 472 390 534 314 c 1
 597 250 665 98 688 98 c 2
EndSplineSet
Validated: 33
EndChar

StartChar: uniFB91
Encoding: 64401 64401 138
Width: 700
GlyphClass: 2
Flags: MW
HStem: 0 98<0 70 70 136.5 0 295 0 70 666 700>
VStem: 100.56 48.44 441.78 52.22
AnchorPoint: "Anchor-1" 350 970 basechar 0
AnchorPoint: "Anchor-0" 420 -110 basechar 0
LayerCount: 2
Fore
SplineSet
666 98 m 2
 700 98 l 1
 700 0 l 1
 662 0 l 2
 609 0 549 62 494 156 c 1
 476 81 416 0 295 0 c 2
 0 0 l 1
 0 98 l 1
 70 98 l 2
 203 98 368 89 430 123 c 1
 510 251 161 423 132 417 c 1
 103 417 84 435 121 536 c 1
 220 664 456 802 575 854 c 1
 562 764 l 1
 149 506 l 1
 292 461 432 362 481 275 c 1
 527 216 553 162 583 134 c 0
 607 112 640 98 666 98 c 2
EndSplineSet
Validated: 33
EndChar

StartChar: uniFB90
Encoding: 64400 64400 139
Width: 700
GlyphClass: 2
Flags: MW
HStem: 0 98<0 150 150 216.5 0 375 0 150>
VStem: 180.56 48.44 521.78 58.04
AnchorPoint: "Anchor-1" 350 970 basechar 0
AnchorPoint: "Anchor-0" 420 -110 basechar 0
LayerCount: 2
Fore
SplineSet
655 854 m 1
 642 764 l 1
 229 506 l 1
 393 455 552 333 576 239 c 0
 595 163 546 0 375 0 c 2
 0 0 l 1
 0 98 l 1
 150 98 l 2
 283 98 448 89 510 123 c 1
 590 251 241 423 212 417 c 1
 183 417 164 435 201 536 c 1
 300 664 536 802 655 854 c 1
EndSplineSet
Validated: 33
EndChar

StartChar: uni06AF
Encoding: 1711 1711 140
Width: 700
GlyphClass: 2
Flags: MW
HStem: 0 98<120.5 150 150 216.5 120.5 375>
VStem: 0 60.43 180.56 48.44 521.78 58.04
AnchorPoint: "Anchor-1" 350 1070 basechar 0
AnchorPoint: "Anchor-0" 350 -110 basechar 0
LayerCount: 2
Fore
SplineSet
574 947 m 1
 416 868 282 778 198 696 c 1
 188 744 l 1
 285 827 421 919 564 998 c 1
 574 947 l 1
655 854 m 1
 642 764 l 1
 229 506 l 1
 393 455 552 333 576 239 c 0
 595 163 546 0 375 0 c 2
 150 0 l 2
 62 0 0 47 0 120 c 0
 0 174 24 229 57 258 c 1
 66 254 55 228 52 196 c 0
 45 137 91 98 150 98 c 0
 283 98 448 89 510 123 c 1
 590 251 241 423 212 417 c 1
 183 417 164 435 201 536 c 1
 300 664 536 802 655 854 c 1
EndSplineSet
Validated: 33
Substitution2: "'fina' Terminal Forms lookup 31 subtable" uniFB93
Substitution2: "'medi' Medial Forms lookup 30 subtable" uniFB95
Substitution2: "'init' Initial Forms lookup 29 subtable" uniFB94
AlternateSubs2: "'aalt' Access All Alternates lookup 1 subtable" uniFB94 uniFB95 uniFB93
EndChar

StartChar: uniFB93
Encoding: 64403 64403 141
Width: 700
GlyphClass: 2
Flags: MW
HStem: 0 98<120.5 150 150 216.5 120.5 375 688 700>
VStem: 0 60.43 180.56 48.44 521.78 178.22
AnchorPoint: "Anchor-1" 350 1056 basechar 0
AnchorPoint: "Anchor-0" 400 -134 basechar 0
LayerCount: 2
Fore
SplineSet
564 936 m 1
 406 857 272 767 188 685 c 1
 178 733 l 1
 275 816 411 908 554 987 c 1
 564 936 l 1
688 98 m 2
 700 98 l 1
 700 0 l 1
 688 0 l 2
 658 0 625 61 574 155 c 1
 555 81 495 0 375 0 c 2
 150 0 l 2
 62 0 0 47 0 120 c 0
 0 174 24 229 57 258 c 1
 66 254 55 228 52 196 c 0
 45 137 91 98 150 98 c 0
 283 98 448 89 510 123 c 1
 590 251 241 423 212 417 c 1
 183 417 164 435 201 536 c 1
 300 664 536 802 655 854 c 1
 642 764 l 1
 229 506 l 1
 352 468 472 390 534 314 c 1
 597 250 665 98 688 98 c 2
EndSplineSet
Validated: 33
EndChar

StartChar: uniFB95
Encoding: 64405 64405 142
Width: 700
GlyphClass: 2
Flags: MW
HStem: 0 98<0 70 70 136.5 0 295 0 70 666 700>
VStem: 100.56 48.44 441.78 52.22
AnchorPoint: "Anchor-1" 350 1100 basechar 0
AnchorPoint: "Anchor-0" 420 -110 basechar 0
LayerCount: 2
Fore
SplineSet
504 959 m 1
 346 880 212 790 128 708 c 1
 118 756 l 1
 215 839 351 931 494 1010 c 1
 504 959 l 1
666 98 m 2
 700 98 l 1
 700 0 l 1
 662 0 l 2
 609 0 549 62 494 156 c 1
 476 81 416 0 295 0 c 2
 0 0 l 1
 0 98 l 1
 70 98 l 2
 203 98 368 89 430 123 c 1
 510 251 161 423 132 417 c 1
 103 417 84 435 121 536 c 1
 220 664 456 802 575 854 c 1
 562 764 l 1
 149 506 l 1
 292 461 432 362 481 275 c 1
 527 216 553 162 583 134 c 0
 607 112 640 98 666 98 c 2
EndSplineSet
Validated: 33
EndChar

StartChar: uniFB94
Encoding: 64404 64404 143
Width: 700
GlyphClass: 2
Flags: MW
HStem: 0 98<0 150 150 216.5 0 375 0 150>
VStem: 180.56 48.44 521.78 58.04
AnchorPoint: "Anchor-1" 350 1100 basechar 0
AnchorPoint: "Anchor-0" 420 -110 basechar 0
LayerCount: 2
Fore
SplineSet
574 959 m 1
 416 880 282 790 198 708 c 1
 188 756 l 1
 285 839 421 931 564 1010 c 1
 574 959 l 1
655 854 m 1
 642 764 l 1
 229 506 l 1
 393 455 552 333 576 239 c 0
 595 163 546 0 375 0 c 2
 0 0 l 1
 0 98 l 1
 150 98 l 2
 283 98 448 89 510 123 c 1
 590 251 241 423 212 417 c 1
 183 417 164 435 201 536 c 1
 300 664 536 802 655 854 c 1
EndSplineSet
Validated: 33
EndChar

StartChar: uni0644
Encoding: 1604 1604 144
Width: 700
GlyphClass: 2
Flags: MW
HStem: -263 98 852 20G<599 599>
VStem: 86 49 536 79
AnchorPoint: "Anchor-1" 460 950 basechar 0
AnchorPoint: "Anchor-0" 370 -370 basechar 0
LayerCount: 2
Fore
SplineSet
353 -263 m 0
 203 -266 91 -176 86 -14 c 0
 83 82 118 189 171 239 c 1
 188 222 l 1
 150 186 126 78 135 -4 c 0
 149 -124 232 -167 346 -165 c 0
 468 -163 538 -108 536 -5 c 0
 532 271 518 562 500 754 c 1
 599 872 l 1
 615 72 l 2
 619 -124 534 -259 353 -263 c 0
EndSplineSet
Validated: 33
Substitution2: "'fina' Terminal Forms lookup 31 subtable" uniFEDE
Substitution2: "'medi' Medial Forms lookup 30 subtable" uniFEE0
Substitution2: "'init' Initial Forms lookup 29 subtable" uniFEDF
AlternateSubs2: "'aalt' Access All Alternates lookup 1 subtable" uniFEDF uniFEE0 uniFEDE
EndChar

StartChar: uniFEDE
Encoding: 65246 65246 145
Width: 700
GlyphClass: 2
Flags: MW
HStem: -350 98<195 312 195 330.5> 0 98<644.5 700 662 700> 852 20G<494 494>
VStem: 0 52<-139 -32> 433 80<-63 61 -63 130.5>
AnchorPoint: "Anchor-1" 460 950 basechar 0
AnchorPoint: "Anchor-0" 450 -400 basechar 0
LayerCount: 2
Fore
SplineSet
239 -350 m 0
 96 -350 0 -248 0 -86 c 0
 0 22 35 136 90 182 c 1
 105 160 l 1
 79 122 52 22 52 -73 c 0
 52 -205 137 -252 253 -252 c 0
 371 -252 433 -193 433 51 c 0
 433 210 410 636 399 771 c 1
 494 872 l 1
 503 678 500 182 522 135 c 1
 545 96 614 98 662 98 c 2
 700 98 l 1
 700 0 l 1
 662 0 l 2
 627 0 548 18 513 61 c 1
 513 -187 422 -350 239 -350 c 0
EndSplineSet
Validated: 33
EndChar

StartChar: uniFEE0
Encoding: 65248 65248 146
Width: 700
GlyphClass: 2
Flags: MW
HStem: 0 98<0 105 0 105 105 155 621.5 700> 852 20G<420 430 430 430>
VStem: 392 39
AnchorPoint: "Anchor-1" 360 990 basechar 0
AnchorPoint: "Anchor-0" 424 -110 basechar 0
LayerCount: 2
Fore
SplineSet
0 0 m 1
 0 98 l 1
 105 98 l 2
 328 98 359 167 359 272 c 0
 359 396 346 603 327 771 c 1
 420 872 l 1
 430 872 l 1
 431 283 l 2
 431 165 496 98 700 98 c 1
 700 0 l 1
 543 0 409 28 392 266 c 1
 366 47 282 0 155 0 c 2
 0 0 l 1
EndSplineSet
Validated: 1
Substitution2: "Single Substitution lookup 54 subtable" uniFEE0.LamHeh
Substitution2: "Single Substitution lookup 7 subtable" uniFEE0.LamLamInit
Substitution2: "Single Substitution lookup 6 subtable" uniFEE0.Lellah
Substitution2: "Single Substitution lookup 4 subtable" uniFEE0.FaLellah
Substitution2: "'aalt' Access All Alternates lookup 0 subtable" uniFEE0.LamHeh
EndChar

StartChar: uniFEE0.FaLellah
Encoding: 1114226 -1 147
Width: 700
GlyphClass: 2
Flags: MW
HStem: -20 98<171 276.5> 0 98<649.5 700>
VStem: 408 65<270 270 270 301.5>
AnchorPoint: "Anchor-1" 448 1090 basechar 0
AnchorPoint: "Anchor-0" 520 -99 basechar 0
LayerCount: 2
Fore
SplineSet
473 270 m 1x60
 490 137 507 98 700 98 c 1
 700 0 l 1x60
 599 0 510 18 460 136 c 1
 428 27 337 -20 216 -20 c 0
 126 -20 52 3 0 52 c 1
 0 160 l 1
 42 105 116 78 219 78 c 0xa0
 343 78 408 118 408 267 c 0
 408 336 391 547 369 722 c 1
 454 807 l 1
 508 693 l 1
 479 661 473 590 473 397 c 2
 473 270 l 1x60
EndSplineSet
Validated: 1
EndChar

StartChar: uniFEE0.LamHeh
Encoding: 1114227 -1 148
Width: 700
GlyphClass: 2
Flags: MW
HStem: -273 99<92 179.5 88 182> 0 98<528.5 700 625 700 625 700> 852 20G<315 315>
VStem: 213 102<789 872> 274 58.93
AnchorPoint: "Anchor-1" 230 950 basechar 0
AnchorPoint: "Anchor-0" 330 -350 basechar 0
LayerCount: 2
Fore
SplineSet
113 -273 m 0xe8
 71 -273 41 -255 0 -209 c 1
 0 -108 l 1
 29 -152 58 -174 118 -174 c 0
 241 -174 284 -74 274 75 c 0xe8
 257 330 224 708 213 789 c 1
 315 872 l 1
 320 674 330 346 335 272 c 0xf0
 344 115 435 98 625 98 c 2
 700 98 l 1
 700 0 l 1
 591 0 l 2
 466 0 390 7 324 140 c 1
 367 -156 251 -273 113 -273 c 0xe8
EndSplineSet
Validated: 33
EndChar

StartChar: uniFEE0.LamLamInit
Encoding: 1114228 -1 149
Width: 700
GlyphClass: 2
Flags: MW
HStem: 0 98<0 181 0 181 181 231 677.5 700> 852 20G<532 542 542 542>
VStem: 504 39
AnchorPoint: "Anchor-1" 446 990 basechar 0
AnchorPoint: "Anchor-0" 494 -110 basechar 0
LayerCount: 2
Fore
SplineSet
0 0 m 1
 0 98 l 1
 181 98 l 2
 440 98 471 167 471 272 c 0
 471 396 458 603 439 771 c 1
 532 872 l 1
 542 872 l 1
 543 283 l 2
 543 165 608 98 700 98 c 1
 700 0 l 1
 655 0 521 28 504 266 c 1
 478 47 340 0 231 0 c 2
 0 0 l 1
EndSplineSet
Validated: 1
Substitution2: "Single Substitution lookup 54 subtable" uniFEE0.LamHeh
Substitution2: "'aalt' Access All Alternates lookup 0 subtable" uniFEE0.LamHeh
EndChar

StartChar: uniFEE0.Lellah
Encoding: 1114229 -1 150
Width: 700
GlyphClass: 2
Flags: MW
HStem: -20 98<227.5 396>
VStem: 0 16<161 650 639 650> 581 76.13
AnchorPoint: "Anchor-1" 673 982 basechar 0
AnchorPoint: "Anchor-0" 677 -116 basechar 0
LayerCount: 2
Fore
SplineSet
303 -20 m 0
 119 -20 39 74 0 161 c 1
 0 639 l 1
 16 650 l 1
 25 378 31 286 39 242 c 0
 62 117 148 78 307 78 c 0
 492 78 581 123 581 307 c 0
 581 444 572 538 560 648 c 1
 658 735 l 1
 666 733 l 1
 669 602 647 349 663 250 c 0
 669 214 682 184 700 160 c 1
 700 52 l 1
 659 92 632 148 622 221 c 1
 604 53 489 -20 303 -20 c 0
EndSplineSet
Validated: 33
MultipleSubs2: "Multiple Substitution lookup 3 subtable" uniFEE0.Lellah uni0651 uni0670
EndChar

StartChar: uniFEDF
Encoding: 65247 65247 151
Width: 700
GlyphClass: 2
Flags: MW
HStem: 0 98<0 292 0 273> 846 20G<438 438>
VStem: 398 68<184.5 195 195 285>
AnchorPoint: "Anchor-1" 429 990 basechar 0
AnchorPoint: "Anchor-0" 451 -110 basechar 0
LayerCount: 2
Fore
SplineSet
0 0 m 1
 0 98 l 1
 292 98 l 2
 380 98 398 140 398 229 c 0
 398 341 374 614 349 775 c 1
 438 866 l 1
 506 734 l 1
 463 666 l 1
 463 608 466 549 466 397 c 2
 466 195 l 2
 466 56 430 0 273 0 c 2
 0 0 l 1
EndSplineSet
Validated: 1
Substitution2: "Single Substitution lookup 7 subtable" uniFEDF.LamLamInit
Substitution2: "Single Substitution lookup 5 subtable" uniFEDF.Lellah
EndChar

StartChar: uniFEDF.LamLamInit
Encoding: 1114230 -1 152
Width: 700
GlyphClass: 2
Flags: MW
HStem: 0 98<0 292 0 273> 846 20G<438 438>
VStem: 398 68<184.5 195 195 285>
AnchorPoint: "Anchor-1" 429 990 basechar 0
AnchorPoint: "Anchor-0" 451 -110 basechar 0
LayerCount: 2
Fore
SplineSet
0 0 m 1
 0 98 l 1
 292 98 l 2
 380 98 398 140 398 229 c 0
 398 341 374 614 349 775 c 1
 438 866 l 1
 506 734 l 1
 463 666 l 1
 463 608 466 549 466 397 c 2
 466 195 l 2
 466 56 430 0 273 0 c 2
 0 0 l 1
EndSplineSet
Validated: 1
EndChar

StartChar: uniFEDF.Lellah
Encoding: 1114231 -1 153
Width: 700
GlyphClass: 2
Flags: MW
HStem: -20 98<171 279 167.5 292>
VStem: 404 69<192.5 234 234 301.5>
AnchorPoint: "Anchor-1" 448 1090 basechar 0
AnchorPoint: "Anchor-0" 520 -99 basechar 0
LayerCount: 2
Fore
SplineSet
0 160 m 1
 42 105 116 78 219 78 c 0
 339 78 404 118 404 267 c 0
 404 336 387 547 369 722 c 1
 454 807 l 1
 508 693 l 1
 479 661 473 590 473 397 c 2
 473 234 l 2
 473 55 368 -20 216 -20 c 0
 126 -20 52 3 0 52 c 1
 0 160 l 1
EndSplineSet
Validated: 1
EndChar

StartChar: uni0645
Encoding: 1605 1605 154
Width: 700
GlyphClass: 2
Flags: MW
HStem: 0 98<283.5 326 326 556> 337 84<421.5 449.5>
VStem: 159 9<-494 -492>
AnchorPoint: "Anchor-1" 400 680 basechar 0
AnchorPoint: "Anchor-0" 380 -500 basechar 0
LayerCount: 2
Fore
SplineSet
450 421 m 0
 560 421 662 147 662 95 c 0
 662 65 639 0 556 0 c 2
 326 0 l 2
 241 0 180 -6 180 -56 c 0
 180 -89 206 -233 232 -426 c 1
 168 -494 l 1
 159 -492 l 1
 151 -407 149 -409 114 -122 c 0
 103 -31 154 90 273 98 c 1
 593 98 l 1
 556 200 469 337 430 337 c 0
 372 337 316 172 286 172 c 0
 277 172 270 184 270 203 c 0
 270 221 278 245 302 295 c 0
 335 360 393 421 450 421 c 0
EndSplineSet
Validated: 33
Substitution2: "'fina' Terminal Forms lookup 31 subtable" uniFEE2
Substitution2: "'medi' Medial Forms lookup 30 subtable" uniFEE4
Substitution2: "'init' Initial Forms lookup 29 subtable" uniFEE3
AlternateSubs2: "'aalt' Access All Alternates lookup 1 subtable" uniFEE3 uniFEE4 uniFEE2
EndChar

StartChar: uniFEE2
Encoding: 65250 65250 155
Width: 700
GlyphClass: 2
Flags: MW
HStem: -40 99 0 98<649.5 700 679 700 679 700> 364 63.25
VStem: 502 34
AnchorPoint: "Anchor-1" 370 680 basechar 0
AnchorPoint: "Anchor-0" 400 -500 basechar 0
LayerCount: 2
Fore
SplineSet
601 129 m 0x70
 624 98 658 98 700 98 c 1
 700 0 l 1
 664 0 l 2
 635 0 608 9 576 36 c 0
 559 50 546 64 536 80 c 1x70
 535 39 510 -15 489 -40 c 1xb0
 378 -30 284 9 202 67 c 1
 169 38 141 13 112 -19 c 1
 154 -438 l 1
 79 -491 l 1
 71 -489 l 1
 71 -394 60 -208 53 -89 c 0
 47 7 60 53 161 115 c 0
 190 134 305 378 357 416 c 0
 375 429 469 433 494 416 c 0
 549 377 567 186 601 129 c 0x70
247 144 m 1xb0
 324 94 398 64 502 59 c 1
 503 156 475 270 426 365 c 1
 389 363 l 1
 323 279 280 198 247 144 c 1xb0
235 152 m 1
 247 144 l 1
 235 152 l 1
EndSplineSet
Validated: 37
EndChar

StartChar: uniFEE4
Encoding: 65252 65252 156
Width: 700
GlyphClass: 2
Flags: MW
HStem: -40 99 0 98<0 69 0 103 679 700> 365.5 61.75
VStem: 482 34
AnchorPoint: "Anchor-1" 350 680 basechar 0
AnchorPoint: "Anchor-0" 480 -110 basechar 0
LayerCount: 2
Fore
SplineSet
601 129 m 1x70
 624 98 658 98 700 98 c 1
 700 0 l 1
 660 0 l 2
 615 0 588 9 556 36 c 0
 539 50 526 64 516 80 c 1x70
 515 39 490 -15 469 -40 c 1xb0
 358 -30 264 9 182 67 c 1
 156 13 101 0 69 0 c 2
 0 0 l 1
 0 98 l 1
 103 98 l 2
 145 98 285 377 337 416 c 0
 354 429 449 433 474 416 c 0
 529 377 547 186 601 129 c 1x70
215 152 m 2xb0
 294 97 367 64 482 59 c 1
 482 158 460 260 404 368 c 1
 369 363 l 1
 303 279 263 203 227 144 c 1
 215 152 l 2xb0
EndSplineSet
Validated: 33
EndChar

StartChar: uniFEE3
Encoding: 65251 65251 157
Width: 700
GlyphClass: 2
Flags: MW
HStem: -34 98 0 98<0 133 0 167> 366 60.88
VStem: 0 618<0 169 98 169> 544 74
AnchorPoint: "Anchor-1" 400 680 basechar 0
AnchorPoint: "Anchor-0" 510 -110 basechar 0
LayerCount: 2
Fore
SplineSet
531 416 m 0x70
 581 383 605 260 618 169 c 1
 618 102 561 -8 527 -34 c 1xa8
 417 -26 323 10 242 67 c 1
 213 13 171 0 133 0 c 2
 0 0 l 1
 0 98 l 1
 167 98 l 2
 209 98 353 383 401 416 c 0
 420 428 504 433 531 416 c 0x70
294 142 m 1xa8
 370 93 443 64 544 64 c 1
 540 141 516 269 462 367 c 1
 434 365 l 1
 374 287 325 201 294 142 c 1xa8
EndSplineSet
Validated: 33
Substitution2: "'ss01' Style Set 1 lookup 36 subtable" uniFEE3.ss01
Substitution2: "'salt' Stylistic Alternatives lookup 35 subtable" uniFEE3.ss01
Substitution2: "'aalt' Access All Alternates lookup 0 subtable" uniFEE3.ss01
EndChar

StartChar: uniFEE3.ss01
Encoding: 1114232 -1 158
Width: 700
GlyphClass: 2
Flags: MW
HStem: 0 98<0 201 0 61>
VStem: 0 576.71
AnchorPoint: "Anchor-1" 400 680 basechar 0
AnchorPoint: "Anchor-0" 510 -110 basechar 0
LayerCount: 2
Fore
SplineSet
0 0 m 1
 0 98 l 1
 201 98 l 2
 310 98 366 101 432 130 c 1
 369 147 309 215 310 255 c 0
 311 288 332 317 350 342 c 0
 374 374 392 390 414 390 c 0
 458 390 537 309 576 250 c 1
 581 173 561 114 526 78 c 0
 462 13 312 0 61 0 c 2
 0 0 l 1
EndSplineSet
Validated: 33
EndChar

StartChar: uni0646
Encoding: 1606 1606 159
Width: 700
GlyphClass: 2
Flags: MW
HStem: -186 98<216 367.5 216 411> 581 20G<269 269>
VStem: 33 56 596 57<65 105>
AnchorPoint: "Anchor-1" 302 800 basechar 0
AnchorPoint: "Anchor-0" 410 -320 basechar 0
LayerCount: 2
Fore
SplineSet
269 450 m 1
 200 526 l 1
 269 601 l 1
 337 526 l 1
 269 450 l 1
303 -186 m 0
 121 -186 20 -66 33 109 c 0
 39 187 65 262 95 298 c 1
 117 283 l 1
 110 266 89 184 89 116 c 0
 89 5 146 -88 286 -88 c 0
 449 -88 596 -15 596 105 c 0
 594 159 563 288 507 383 c 1
 568 481 l 1
 605 402 650 262 653 162 c 0
 653 -32 519 -186 303 -186 c 0
EndSplineSet
Validated: 33
Substitution2: "'fina' Terminal Forms lookup 31 subtable" uniFEE6
Substitution2: "'medi' Medial Forms lookup 30 subtable" uniFEE8
Substitution2: "'init' Initial Forms lookup 29 subtable" uniFEE7
AlternateSubs2: "'aalt' Access All Alternates lookup 1 subtable" uniFEE7 uniFEE8 uniFEE6
EndChar

StartChar: uniFEE6
Encoding: 65254 65254 160
Width: 700
GlyphClass: 2
Flags: MW
HStem: -351 103 0 98<677 684 684 700>
VStem: 1 56 560 49
AnchorPoint: "Anchor-1" 300 781 basechar 0
AnchorPoint: "Anchor-0" 410 -500 basechar 0
LayerCount: 2
Fore
SplineSet
230 379 m 1
 161 455 l 1
 230 530 l 1
 298 455 l 1
 230 379 l 1
266 -351 m 0
 50 -342 -5 -183 1 -38 c 0
 5 56 27 128 63 187 c 1
 95 166 l 1
 72 115 57 53 57 -13 c 0
 57 -167 139 -240 269 -248 c 0
 447 -259 573 -113 560 36 c 0
 554 115 504 218 468 275 c 1
 533 349 l 1
 568 274 621 98 677 98 c 2
 700 98 l 1
 700 0 l 1
 684 0 l 2
 663 0 643 12 609 60 c 1
 623 -255 431 -357 266 -351 c 0
EndSplineSet
Validated: 33
EndChar

StartChar: uniFEE8
Encoding: 65256 65256 161
Width: 700
GlyphClass: 2
Flags: MW
HStem: 0 98<0 230 230 239 0 230 645 700>
VStem: 423 83<169 232>
AnchorPoint: "Anchor-1" 300 900 basechar 0
AnchorPoint: "Anchor-0" 400 -110 basechar 0
LayerCount: 2
Fore
SplineSet
257 554 m 1
 188 630 l 1
 257 705 l 1
 325 630 l 1
 257 554 l 1
700 98 m 1
 700 0 l 1
 555 0 491 33 452 164 c 1
 414 47 364 0 239 0 c 2
 0 0 l 1
 0 98 l 1
 230 98 l 2
 345 98 423 120 423 217 c 0
 423 247 419 283 413 323 c 1
 506 406 l 1
 504 358 504 200 506 169 c 0
 510 118 590 98 700 98 c 1
EndSplineSet
Validated: 33
EndChar

StartChar: uniFEE7
Encoding: 65255 65255 162
Width: 700
GlyphClass: 2
Flags: MW
HStem: 0 98<0 439 0 409>
VStem: 576 81<186 198.5>
AnchorPoint: "Anchor-1" 320 860 basechar 0
AnchorPoint: "Anchor-0" 450 -110 basechar 0
LayerCount: 2
Fore
SplineSet
316 554 m 1
 247 630 l 1
 316 705 l 1
 384 630 l 1
 316 554 l 1
0 0 m 1
 0 98 l 1
 439 98 l 2
 522 98 577 140 576 186 c 0
 576 211 557 307 536 379 c 1
 601 474 l 1
 619 417 657 282 657 213 c 0
 657 111 576 0 409 0 c 2
 0 0 l 1
EndSplineSet
Validated: 33
EndChar

StartChar: uni06BA
Encoding: 1722 1722 163
Width: 700
GlyphClass: 2
Flags: MW
HStem: -186 98<216 367.5 216 411>
VStem: 33 56 596 57<65 105>
AnchorPoint: "Anchor-1" 350 700 basechar 0
AnchorPoint: "Anchor-0" 410 -320 basechar 0
LayerCount: 2
Fore
SplineSet
303 -186 m 0
 121 -186 20 -66 33 109 c 0
 39 187 65 262 95 298 c 1
 117 283 l 1
 110 266 89 184 89 116 c 0
 89 5 146 -88 286 -88 c 0
 449 -88 596 -15 596 105 c 0
 594 159 563 288 507 383 c 1
 568 481 l 1
 605 402 650 262 653 162 c 0
 653 -32 519 -186 303 -186 c 0
EndSplineSet
Validated: 33
Substitution2: "'fina' Terminal Forms lookup 31 subtable" uniFB9F
Substitution2: "'aalt' Access All Alternates lookup 0 subtable" uniFB9F
EndChar

StartChar: uniFB9F
Encoding: 64415 64415 164
Width: 700
GlyphClass: 2
Flags: MW
HStem: -351 103 0 98<677 684 684 700>
VStem: 1 56 560 49
AnchorPoint: "Anchor-1" 350 600 basechar 0
AnchorPoint: "Anchor-0" 420 -500 basechar 0
LayerCount: 2
Fore
SplineSet
266 -351 m 0
 50 -342 -5 -183 1 -38 c 0
 5 56 27 128 63 187 c 1
 95 166 l 1
 72 115 57 53 57 -13 c 0
 57 -167 139 -240 269 -248 c 0
 447 -259 573 -113 560 36 c 0
 554 115 504 218 468 275 c 1
 533 349 l 1
 568 274 621 98 677 98 c 2
 700 98 l 1
 700 0 l 1
 684 0 l 2
 663 0 643 12 609 60 c 1
 623 -255 431 -357 266 -351 c 0
EndSplineSet
Validated: 33
EndChar

StartChar: uni0647
Encoding: 1607 1607 165
Width: 700
GlyphClass: 2
Flags: MW
HStem: -35 90<376 458 376 460.5> 410 20G<299 299>
VStem: 211 72<124 183> 583 56<149 199.5>
AnchorPoint: "Anchor-1" 374 680 basechar 0
AnchorPoint: "Anchor-0" 438 -120 basechar 0
LayerCount: 2
Fore
SplineSet
575 377 m 0
 630 321 639 269 639 226 c 0
 639 72 524 -35 397 -35 c 0
 294 -35 211 15 211 129 c 0
 211 237 292 332 408 383 c 1
 375 398 338 413 299 430 c 1
 354 506 l 1
 394 488 505 448 575 377 c 0
413 55 m 0
 503 55 583 97 583 177 c 0
 583 222 553 279 514 316 c 0
 489 339 461 357 430 373 c 1
 359 333 283 249 283 163 c 0
 283 85 339 55 413 55 c 0
EndSplineSet
Validated: 1
Substitution2: "'fina' Terminal Forms lookup 31 subtable" uniFEEA
Substitution2: "'medi' Medial Forms lookup 30 subtable" uniFEEC
Substitution2: "'init' Initial Forms lookup 29 subtable" uniFEEB
AlternateSubs2: "'aalt' Access All Alternates lookup 1 subtable" uniFEEB uniFEEC uniFEEA
EndChar

StartChar: uniFEEA
Encoding: 65258 65258 166
Width: 700
GlyphClass: 2
Flags: MW
HStem: 0 98<604 617 617 700> 97.63 97.37
VStem: 69 74.29 380 56
AnchorPoint: "Anchor-1" 330 800 basechar 0
AnchorPoint: "Anchor-0" 400 -110 basechar 0
LayerCount: 2
Fore
SplineSet
604 98 m 2xb0
 700 98 l 1
 700 0 l 1
 617 0 l 2xb0
 491 0 429 81 411 176 c 1
 387 131 l 1
 306 78 173 98 120 122 c 0
 87 138 69 164 69 202 c 0x70
 69 233 79 292 167 385 c 0
 252 474 342 522 380 540 c 1
 366 601 l 1
 436 630 l 1
 446 384 446 371 458 234 c 0
 465 164 504 98 604 98 c 2xb0
247 195 m 0x70
 296 195 342 201 402 215 c 1
 402 310 399 349 387 475 c 1
 318 441 222 363 171 300 c 0
 116 232 143 195 247 195 c 0x70
EndSplineSet
Validated: 33
Substitution2: "Single Substitution lookup 54 subtable" uniFEEA.LamHeh
Substitution2: "Single Substitution lookup 2 subtable" uniFEEA.Lellah
Substitution2: "'aalt' Access All Alternates lookup 0 subtable" uniFEEA.LamHeh
EndChar

StartChar: uniFEEA.LamHeh
Encoding: 1114233 -1 167
Width: 700
GlyphClass: 2
Flags: MW
HStem: -54.12 97.12
VStem: 263 73.77 600 44
AnchorPoint: "Anchor-1" 400 660 basechar 0
AnchorPoint: "Anchor-0" 490 -266 basechar 0
LayerCount: 2
Fore
SplineSet
660 112 m 0
 664 24 672 -71 700 -108 c 1
 700 -209 l 1
 644 -170 621 -62 605 24 c 1
 581 -20 l 1
 500 -74 366 -54 313 -29 c 0
 280 -14 263 13 263 51 c 0
 263 80 273 141 361 233 c 0
 444 322 530 368 574 388 c 1
 560 449 l 1
 644 481 l 1
 650 314 651 260 660 112 c 0
441 43 m 0
 489 43 542 50 600 64 c 1
 600 158 597 197 585 322 c 1
 517 290 415 212 364 148 c 0
 310 81 336 43 441 43 c 0
EndSplineSet
Validated: 33
EndChar

StartChar: uniFEEA.Lellah
Encoding: 1114234 -1 168
Width: 700
GlyphClass: 2
Flags: MW
HStem: 108.88 97.12
VStem: 347 74.29 680 20<228 274.5>
AnchorPoint: "Anchor-1" 700 900 basechar 0
AnchorPoint: "Anchor-0" 687 -72 basechar 0
LayerCount: 2
Fore
SplineSet
652 612 m 1
 700 639 l 1
 700 161 l 1
 696 170 692 178 689 186 c 1
 665 143 l 1
 584 89 451 109 398 134 c 0
 365 149 347 176 347 214 c 0
 347 243 357 304 445 396 c 0
 530 485 616 532 658 551 c 1
 652 612 l 1
525 206 m 0
 575 206 624 214 680 228 c 1
 680 321 677 360 665 484 c 1
 595 454 497 373 449 311 c 0
 394 242 421 206 525 206 c 0
EndSplineSet
Validated: 33
EndChar

StartChar: uniFEEC
Encoding: 65260 65260 169
Width: 700
GlyphClass: 2
Flags: MW
HStem: -387 92<360.5 404.5> 0 97 387 96<443.5 445.5>
VStem: 167 31 467 51<-235 -197> 491 46<316.5 334.5>
AnchorPoint: "Anchor-1" 370 700 basechar 0
AnchorPoint: "Anchor-0" 390 -500 basechar 0
LayerCount: 2
Fore
SplineSet
700 98 m 1xf4
 700 0 l 1
 423 0 l 1
 489 -60 518 -119 518 -182 c 0xf8
 518 -290 435 -387 374 -387 c 0
 334 -387 268 -348 229 -294 c 0
 218 -279 169 -208 164 -90 c 0
 163 -61 164 -32 167 0 c 1
 0 0 l 1
 0 98 l 1
 187 98 l 1
 240 257 252 312 311 383 c 0
 360 440 419 483 468 483 c 0
 518 483 537 439 537 370 c 0
 537 263 490 186 395 96 c 1
 700 98 l 1xf4
334 341 m 0
 303 308 271 240 232 98 c 1
 288 98 319 98 346 100 c 1
 401 135 491 242 491 314 c 0
 491 355 462 387 429 387 c 0
 410 387 366 377 334 341 c 0
467 -224 m 0xf8
 467 -170 435 -108 353 -27 c 1
 309 -4 289 0 227 0 c 1
 212 -16 198 -30 198 -67 c 0
 198 -193 319 -295 402 -295 c 0
 456 -295 467 -246 467 -224 c 0xf8
EndSplineSet
Validated: 33
EndChar

StartChar: uniFEEB
Encoding: 65259 65259 170
Width: 700
GlyphClass: 2
Flags: MW
HStem: 0 90<0 488.5> 0 98<0 97 221.5 299 0 97> 585 93<441.5 484>
VStem: 97 60<150 207> 379 55<183 220.5> 598 70<189.5 244.5>
AnchorPoint: "Anchor-1" 380 860 basechar 0
AnchorPoint: "Anchor-0" 410 -110 basechar 0
LayerCount: 2
Fore
SplineSet
482 678 m 0x7c
 590 678 668 359 668 258 c 0
 668 121 526 0 422 0 c 2
 0 0 l 1
 0 98 l 1
 97 98 l 1
 97 316 238 374 306 376 c 1
 339 499 401 678 482 678 c 0x7c
446 90 m 0xbc
 531 90 598 135 598 206 c 0
 598 283 518 585 450 585 c 0
 407 585 365 469 328 375 c 1
 391 365 434 304 434 211 c 0
 434 155 419 129 384 97 c 1
 411 91 431 90 446 90 c 0xbc
264 98 m 0x7c
 334 98 379 119 379 185 c 0
 379 256 324 334 269 334 c 0
 210 334 157 247 157 172 c 0
 157 128 179 98 264 98 c 0x7c
EndSplineSet
Validated: 1
EndChar

StartChar: uni06C1
Encoding: 1729 1729 171
Width: 700
GlyphClass: 2
Flags: MW
HStem: -35 90<376 458 376 460.5> 410 20G<299 299>
VStem: 211 72<124 183> 583 56<149 199.5>
AnchorPoint: "Anchor-1" 374 680 basechar 0
AnchorPoint: "Anchor-0" 438 -120 basechar 0
LayerCount: 2
Fore
SplineSet
575 377 m 0
 630 321 639 269 639 226 c 0
 639 72 524 -35 397 -35 c 0
 294 -35 211 15 211 129 c 0
 211 237 292 332 408 383 c 1
 375 398 338 413 299 430 c 1
 354 506 l 1
 394 488 505 448 575 377 c 0
413 55 m 0
 503 55 583 97 583 177 c 0
 583 222 553 279 514 316 c 0
 489 339 461 357 430 373 c 1
 359 333 283 249 283 163 c 0
 283 85 339 55 413 55 c 0
EndSplineSet
Validated: 1
Substitution2: "'fina' Terminal Forms lookup 31 subtable" uniFBA7
Substitution2: "'medi' Medial Forms lookup 30 subtable" uniFBA9
Substitution2: "'init' Initial Forms lookup 29 subtable" uniFBA8
AlternateSubs2: "'aalt' Access All Alternates lookup 1 subtable" uniFBA8 uniFBA9 uniFBA7
EndChar

StartChar: uniFBA7
Encoding: 64423 64423 172
Width: 700
GlyphClass: 2
Flags: MW
HStem: 0 98<511 700 648 700 648 700>
VStem: 128.91 571.09
AnchorPoint: "Anchor-1" 350 700 basechar 0
AnchorPoint: "Anchor-0" 440 -110 basechar 0
LayerCount: 2
Fore
SplineSet
142 -29 m 0
 130 -29 126 -9 131 25 c 0
 136 102 218 359 309 377 c 0
 346 384 377 351 395 317 c 0
 413 285 437 222 459 181 c 0
 498 106 549 98 648 98 c 2
 700 98 l 1
 700 0 l 1
 583 0 l 2
 439 0 389 114 356 187 c 0
 342 219 330 248 301 244 c 0
 276 241 259 214 250 196 c 0
 227 147 180 -27 142 -29 c 0
EndSplineSet
Validated: 33
Substitution2: "Single Substitution lookup 2 subtable" uniFEEA.Lellah
EndChar

StartChar: uniFBA9
Encoding: 64425 64425 173
Width: 700
GlyphClass: 2
Flags: MW
HStem: 0 98<0 45 0 49 563 606 606 700>
VStem: 181 61 204 84
AnchorPoint: "Anchor-1" 350 600 basechar 0
AnchorPoint: "Anchor-0" 500 -380 basechar 0
LayerCount: 2
Fore
SplineSet
227 -387 m 0xc0
 214 -387 204 -376 196 -329 c 0
 186 -271 181 -187 181 -139 c 0xc0
 181 -32 204 50 204 84 c 0
 204 96 201 103 195 103 c 0
 173 103 113 0 45 0 c 2
 0 0 l 1
 0 98 l 1
 49 98 l 2
 116 98 211 241 258 241 c 0xa0
 284 241 289 211 288 189 c 0
 285 125 257 9 242 -216 c 1
 309 -47 462 98 563 98 c 2
 700 98 l 1
 700 0 l 1
 606 0 l 2
 474 0 339 -100 294 -251 c 0
 276 -311 266 -387 227 -387 c 0xc0
EndSplineSet
Validated: 33
EndChar

StartChar: uniFBA8
Encoding: 64424 64424 174
Width: 700
GlyphClass: 2
Flags: MW
HStem: 0 98<0 409 0 439>
VStem: 406.9 49.1 576 81<186 198.5>
AnchorPoint: "Anchor-1" 350 650 basechar 0
AnchorPoint: "Anchor-0" 500 -440 basechar 0
LayerCount: 2
Fore
SplineSet
657 213 m 0
 657 150 626 83 562 42 c 1
 502 -25 456 -83 456 -132 c 0
 456 -163 473 -184 496 -195 c 0
 525 -208 562 -224 558 -272 c 0
 555 -307 531 -342 482 -332 c 0
 410 -319 399 -236 411 -168 c 0
 423 -103 458 -40 500 13 c 1
 473 5 443 0 409 0 c 2
 0 0 l 1
 0 98 l 1
 439 98 l 2
 522 98 577 140 576 186 c 0
 576 211 557 307 536 379 c 1
 601 474 l 1
 619 417 657 282 657 213 c 0
EndSplineSet
Validated: 33
EndChar

StartChar: uni06C2
Encoding: 1730 1730 175
Width: 700
GlyphClass: 2
Flags: MW
HStem: -35 90<376 458 376 460.5> 410 20G<299 299> 883 51<330 346>
VStem: 211 72<124 183> 255 33<830 839> 583 56<149 199.5>
AnchorPoint: "Anchor-1" 369 1060 basechar 0
AnchorPoint: "Anchor-0" 440 -120 basechar 0
LayerCount: 2
Fore
SplineSet
249 652 m 0xf4
 243 649 241 655 240 660 c 0
 237 669 235 674 235 680 c 0
 235 686 241 691 251 698 c 2
 306 729 l 1
 270 744 255 772 255 804 c 0
 255 874 298 934 362 934 c 0
 399 934 414 906 416 878 c 0
 418 866 411 859 404 859 c 0
 399 859 360 883 332 883 c 0
 297 883 288 870 288 844 c 0
 288 816 295 754 372 754 c 0xec
 384 754 410 756 428 756 c 0
 446 756 459 757 466 745 c 2
 471 736 l 2
 476 728 463 721 453 718 c 0
 318 687 310 686 249 652 c 0xf4
575 377 m 0
 630 321 639 269 639 226 c 0
 639 72 524 -35 397 -35 c 0
 294 -35 211 15 211 129 c 0
 211 237 292 332 408 383 c 1
 375 398 338 413 299 430 c 1
 354 506 l 1
 394 488 505 448 575 377 c 0
413 55 m 0
 503 55 583 97 583 177 c 0
 583 222 553 279 514 316 c 0
 489 339 461 357 430 373 c 1
 359 333 283 249 283 163 c 0
 283 85 339 55 413 55 c 0
EndSplineSet
Validated: 33
Substitution2: "'fina' Terminal Forms lookup 31 subtable" uni06C2.fina
Substitution2: "'aalt' Access All Alternates lookup 0 subtable" uni06C2.fina
EndChar

StartChar: uni06C2.fina
Encoding: 1114235 -1 176
Width: 700
GlyphClass: 2
Flags: MW
HStem: 0 98<511 700 648 700 648 700> 784 51<275 291>
VStem: 200 33<731 740>
AnchorPoint: "Anchor-1" 369 1040 basechar 0
AnchorPoint: "Anchor-0" 440 -110 basechar 0
LayerCount: 2
Fore
SplineSet
194 553 m 0
 188 550 186 556 185 561 c 0
 182 570 180 575 180 581 c 0
 180 587 186 592 196 599 c 2
 251 630 l 1
 215 645 200 673 200 705 c 0
 200 775 243 835 307 835 c 0
 344 835 359 807 361 779 c 0
 363 767 356 760 349 760 c 0
 344 760 305 784 277 784 c 0
 242 784 233 771 233 745 c 0
 233 717 240 655 317 655 c 0
 329 655 355 657 373 657 c 0
 391 657 404 658 411 646 c 2
 416 637 l 2
 421 629 408 622 398 619 c 0
 263 588 255 587 194 553 c 0
142 -29 m 0
 130 -29 126 -9 131 25 c 0
 136 102 218 359 309 377 c 0
 346 384 377 351 395 317 c 0
 413 285 437 222 459 181 c 0
 498 106 549 98 648 98 c 2
 700 98 l 1
 700 0 l 1
 583 0 l 2
 439 0 389 114 356 187 c 0
 342 219 330 248 301 244 c 0
 276 241 259 214 250 196 c 0
 227 147 180 -27 142 -29 c 0
EndSplineSet
Validated: 33
EndChar

StartChar: uni06BE
Encoding: 1726 1726 177
Width: 700
GlyphClass: 2
Flags: MW
HStem: -1 89.13 -1 94<414 475 375 487.5> 50 48<212 301> 334 42<257.5 296.5> 585 93<441.5 484>
VStem: 107 50<155 215.5 155 220> 379 55<183 220.5> 598 70<189.5 244.5>
AnchorPoint: "Anchor-1" 380 860 basechar 0
AnchorPoint: "Anchor-0" 410 -110 basechar 0
LayerCount: 2
Fore
SplineSet
482 678 m 0x9f
 590 678 668 359 668 255 c 0
 668 124 545 -1 430 -1 c 0
 398 -1 343 5 297 33 c 1
 183 -30 149 -53 81 -94 c 0x9f
 50 -112 39 -116 32 -116 c 0
 18 -116 12 -97 12 -85 c 0
 12 -62 40 -41 136 10 c 2
 212 50 l 1x3f
 136 55 107 103 107 161 c 0
 107 279 209 376 306 376 c 1
 339 499 401 678 482 678 c 0x9f
475 93 m 0x5f
 542 104 598 140 598 206 c 0
 598 283 518 585 450 585 c 0
 407 585 364 469 328 374 c 1
 393 363 434 303 434 211 c 0
 434 155 419 129 375 93 c 1
 388 89 431 84 475 93 c 0x5f
268 98 m 0x3f
 334 98 379 120 379 185 c 0
 379 256 324 334 269 334 c 0
 210 334 157 249 157 182 c 0
 157 128 191 98 268 98 c 0x3f
EndSplineSet
Validated: 33
Substitution2: "'fina' Terminal Forms lookup 31 subtable" uniFBAB
Substitution2: "'medi' Medial Forms lookup 30 subtable" uniFBAD
Substitution2: "'init' Initial Forms lookup 29 subtable" uniFBAC
AlternateSubs2: "'aalt' Access All Alternates lookup 1 subtable" uniFBAC uniFBAD uniFBAB
EndChar

StartChar: uniFBAB
Encoding: 64427 64427 178
Width: 700
GlyphClass: 2
Flags: MW
HStem: 0 93<448 475 375 700 448 448> 0 98<610 700> 50 48<212 301> 334 42<257.5 296.5> 585 93<441.5 484>
VStem: 107 50<155 215.5 155 220> 379 55<183 220.5> 598 70<226.5 244.5>
AnchorPoint: "Anchor-1" 380 860 basechar 0
AnchorPoint: "Anchor-0" 410 -110 basechar 0
LayerCount: 2
Fore
SplineSet
700 98 m 1x5f
 700 0 l 1
 448 0 l 2
 442 -1 436 -1 430 -1 c 0
 398 -1 343 5 297 33 c 1
 183 -30 149 -53 81 -94 c 0x5f
 50 -112 39 -116 32 -116 c 0
 18 -116 12 -97 12 -85 c 0
 12 -62 40 -41 136 10 c 2
 212 50 l 1x3f
 136 55 107 103 107 161 c 0
 107 279 209 376 306 376 c 1
 339 499 401 678 482 678 c 0
 590 678 668 359 668 255 c 0
 668 198 645 143 610 98 c 1
 700 98 l 1x5f
375 93 m 1x9f
 388 89 431 84 475 93 c 0
 542 104 598 140 598 206 c 0
 598 283 518 585 450 585 c 0
 407 585 364 469 328 374 c 1
 393 363 434 303 434 211 c 0
 434 155 419 129 375 93 c 1x9f
268 98 m 0x5f
 334 98 379 120 379 185 c 0
 379 256 324 334 269 334 c 0
 210 334 157 249 157 182 c 0
 157 128 191 98 268 98 c 0x5f
EndSplineSet
Validated: 33
EndChar

StartChar: uniFBAD
Encoding: 64429 64429 179
Width: 700
GlyphClass: 2
Flags: MW
HStem: 0 90<0 488.5 422 488.5 438.5 488.5 438.5 700> 0 98<0 97 221.5 299 0 97 603 700> 585 93<441.5 484>
VStem: 97 60<150 207> 379 55<183 220.5> 598 70<228.5 244.5>
AnchorPoint: "Anchor-1" 380 860 basechar 0
AnchorPoint: "Anchor-0" 410 -110 basechar 0
LayerCount: 2
Fore
SplineSet
603 98 m 1x7c
 700 98 l 1
 700 0 l 1
 424 0 l 1
 422 0 l 1
 0 0 l 1
 0 98 l 1
 97 98 l 1
 97 316 238 374 306 376 c 1
 339 499 401 678 482 678 c 0
 590 678 668 359 668 258 c 0
 668 199 642 143 603 98 c 1x7c
384 97 m 1xbc
 411 91 431 90 446 90 c 0
 531 90 598 135 598 206 c 0
 598 283 518 585 450 585 c 0
 407 585 365 469 328 375 c 1
 391 365 434 304 434 211 c 0
 434 155 419 129 384 97 c 1xbc
264 98 m 0x7c
 334 98 379 119 379 185 c 0
 379 256 324 334 269 334 c 0
 210 334 157 247 157 172 c 0
 157 128 179 98 264 98 c 0x7c
EndSplineSet
Validated: 1
EndChar

StartChar: uniFBAC
Encoding: 64428 64428 180
Width: 700
GlyphClass: 2
Flags: MW
HStem: 0 90<0 488.5> 0 98<0 97 221.5 299 0 97> 585 93<441.5 484>
VStem: 97 60<150 207> 379 55<183 220.5> 598 70<189.5 244.5>
AnchorPoint: "Anchor-1" 380 860 basechar 0
AnchorPoint: "Anchor-0" 410 -110 basechar 0
LayerCount: 2
Fore
SplineSet
482 678 m 0x7c
 590 678 668 359 668 258 c 0
 668 121 526 0 422 0 c 2
 0 0 l 1
 0 98 l 1
 97 98 l 1
 97 316 238 374 306 376 c 1
 339 499 401 678 482 678 c 0x7c
446 90 m 0xbc
 531 90 598 135 598 206 c 0
 598 283 518 585 450 585 c 0
 407 585 365 469 328 375 c 1
 391 365 434 304 434 211 c 0
 434 155 419 129 384 97 c 1
 411 91 431 90 446 90 c 0xbc
264 98 m 0x7c
 334 98 379 119 379 185 c 0
 379 256 324 334 269 334 c 0
 210 334 157 247 157 172 c 0
 157 128 179 98 264 98 c 0x7c
EndSplineSet
Validated: 1
EndChar

StartChar: uni0629
Encoding: 1577 1577 181
Width: 700
GlyphClass: 2
Flags: MW
HStem: -35 90<376 458 376 460.5> 410 20G<299 299>
VStem: 211 72<124 183> 583 56<149 199.5>
AnchorPoint: "Anchor-1" 369 900 basechar 0
AnchorPoint: "Anchor-0" 440 -120 basechar 0
LayerCount: 2
Fore
SplineSet
545 683 m 1
 479 607 l 1
 409 681 l 1
 476 756 l 1
 545 683 l 1
356 681 m 1
 291 604 l 1
 221 678 l 1
 287 753 l 1
 356 681 l 1
575 377 m 0
 630 321 639 269 639 226 c 0
 639 72 524 -35 397 -35 c 0
 294 -35 211 15 211 129 c 0
 211 237 292 332 408 383 c 1
 375 398 338 413 299 430 c 1
 354 506 l 1
 394 488 505 448 575 377 c 0
413 55 m 0
 503 55 583 97 583 177 c 0
 583 222 553 279 514 316 c 0
 489 339 461 357 430 373 c 1
 359 333 283 249 283 163 c 0
 283 85 339 55 413 55 c 0
EndSplineSet
Validated: 1
Substitution2: "'fina' Terminal Forms lookup 31 subtable" uniFE94
Substitution2: "'aalt' Access All Alternates lookup 0 subtable" uniFE94
EndChar

StartChar: uniFE94
Encoding: 65172 65172 182
Width: 700
GlyphClass: 2
Flags: MW
HStem: 0 98<604 617 617 700> 97.63 97.37
VStem: 69 74.29 380 56
AnchorPoint: "Anchor-1" 320 1096 basechar 0
AnchorPoint: "Anchor-0" 400 -110 basechar 0
LayerCount: 2
Fore
SplineSet
499 816 m 1xb0
 433 740 l 1
 363 814 l 1
 430 889 l 1
 499 816 l 1xb0
310 814 m 1
 245 737 l 1
 175 811 l 1
 241 886 l 1
 310 814 l 1
604 98 m 2
 700 98 l 1
 700 0 l 1
 617 0 l 2xb0
 491 0 429 81 411 176 c 1
 387 131 l 1
 306 78 173 98 120 122 c 0
 87 138 69 164 69 202 c 0x70
 69 233 79 292 167 385 c 0
 252 474 342 522 380 540 c 1
 366 601 l 1
 436 630 l 1
 446 384 446 371 458 234 c 0
 465 164 504 98 604 98 c 2
247 195 m 0x70
 296 195 342 201 402 215 c 1
 402 310 399 349 387 475 c 1
 318 441 222 363 171 300 c 0
 116 232 143 195 247 195 c 0x70
EndSplineSet
Validated: 33
Substitution2: "Single Substitution lookup 54 subtable" uniFE94.LamHeh
Substitution2: "'aalt' Access All Alternates lookup 0 subtable" uniFE94.LamHeh
EndChar

StartChar: uniFE94.LamHeh
Encoding: 1114236 -1 183
Width: 700
GlyphClass: 2
Flags: MW
HStem: -54.12 97.12
VStem: 263 73.77 600 44
AnchorPoint: "Anchor-1" 452 956 basechar 0
AnchorPoint: "Anchor-0" 490 -270 basechar 0
LayerCount: 2
Fore
SplineSet
681 693 m 1
 615 617 l 1
 545 691 l 1
 612 766 l 1
 681 693 l 1
492 691 m 1
 427 614 l 1
 357 688 l 1
 423 763 l 1
 492 691 l 1
660 112 m 0
 664 24 672 -71 700 -108 c 1
 700 -209 l 1
 644 -170 621 -62 605 24 c 1
 581 -20 l 1
 500 -74 366 -54 313 -29 c 0
 280 -14 263 13 263 51 c 0
 263 80 273 141 361 233 c 0
 444 322 530 368 574 388 c 1
 560 449 l 1
 644 481 l 1
 650 314 651 260 660 112 c 0
441 43 m 0
 489 43 542 50 600 64 c 1
 600 158 597 197 585 322 c 1
 517 290 415 212 364 148 c 0
 310 81 336 43 441 43 c 0
EndSplineSet
Validated: 33
EndChar

StartChar: uni06C3
Encoding: 1731 1731 184
Width: 700
GlyphClass: 2
Flags: MW
HStem: -35 90<376 458 376 460.5> 410 20G<299 299>
VStem: 211 72<124 183> 583 56<149 199.5>
AnchorPoint: "Anchor-1" 369 960 basechar 0
AnchorPoint: "Anchor-0" 438 -120 basechar 0
LayerCount: 2
Fore
SplineSet
536 691 m 1
 470 615 l 1
 400 689 l 1
 467 764 l 1
 536 691 l 1
347 689 m 1
 282 612 l 1
 212 686 l 1
 278 761 l 1
 347 689 l 1
575 377 m 0
 630 321 639 269 639 226 c 0
 639 72 524 -35 397 -35 c 0
 294 -35 211 15 211 129 c 0
 211 237 292 332 408 383 c 1
 375 398 338 413 299 430 c 1
 354 506 l 1
 394 488 505 448 575 377 c 0
413 55 m 0
 503 55 583 97 583 177 c 0
 583 222 553 279 514 316 c 0
 489 339 461 357 430 373 c 1
 359 333 283 249 283 163 c 0
 283 85 339 55 413 55 c 0
EndSplineSet
Validated: 1
Substitution2: "'fina' Terminal Forms lookup 31 subtable" uni06C3.fina
Substitution2: "'aalt' Access All Alternates lookup 0 subtable" uni06C3.fina
EndChar

StartChar: uni06C3.fina
Encoding: 1114237 -1 185
Width: 700
GlyphClass: 2
Flags: MW
HStem: 0 98<511 700 648 700 648 700>
VStem: 128.91 571.09
AnchorPoint: "Anchor-1" 368 920 basechar 0
AnchorPoint: "Anchor-0" 440 -110 basechar 0
LayerCount: 2
Fore
SplineSet
408 585 m 1
 338 659 l 1
 405 734 l 1
 474 661 l 1
 408 585 l 1
220 582 m 1
 150 656 l 1
 216 731 l 1
 285 659 l 1
 220 582 l 1
142 -29 m 0
 130 -29 126 -9 131 25 c 0
 136 102 218 359 309 377 c 0
 346 384 377 351 395 317 c 0
 413 285 437 222 459 181 c 0
 498 106 549 98 648 98 c 2
 700 98 l 1
 700 0 l 1
 583 0 l 2
 439 0 389 114 356 187 c 0
 342 219 330 248 301 244 c 0
 276 241 259 214 250 196 c 0
 227 147 180 -27 142 -29 c 0
EndSplineSet
Validated: 33
EndChar

StartChar: uni0648
Encoding: 1608 1608 186
Width: 700
GlyphClass: 2
Flags: MW
HStem: -350 66<106 358> 43 92<363 426 363 426.5> 420 86
VStem: 214 65<207 268.5> 531 63
AnchorPoint: "Anchor-1" 350 710 basechar 0
AnchorPoint: "Anchor-0" 490 -370 basechar 0
LayerCount: 2
Fore
SplineSet
398 506 m 0
 505 506 594 271 594 87 c 0
 594 -127 473 -350 243 -350 c 0
 212 -350 169 -346 106 -317 c 1
 106 -284 l 1
 167 -284 l 2
 204 -284 291 -280 375 -224 c 0
 494 -144 525 -16 531 54 c 1
 471 47 443 43 410 43 c 0
 273 43 214 116 214 210 c 0
 214 327 304 506 398 506 c 0
279 244 m 0
 279 170 314 135 412 135 c 0
 440 135 475 138 527 142 c 1
 508 257 445 416 372 420 c 0
 313 422 279 322 279 244 c 0
EndSplineSet
Validated: 33
Substitution2: "'fina' Terminal Forms lookup 31 subtable" uniFEEE
Substitution2: "'aalt' Access All Alternates lookup 0 subtable" uniFEEE
EndChar

StartChar: uniFEEE
Encoding: 65262 65262 187
Width: 700
GlyphClass: 2
Flags: MW
HStem: -350 66<83 327.5> -2 100<330.5 500> 0 98<687 700> 383 93
VStem: 191 60<149 228.5> 500 74<98 98>
AnchorPoint: "Anchor-1" 370 680 basechar 0
AnchorPoint: "Anchor-0" 470 -430 basechar 0
LayerCount: 2
Fore
SplineSet
700 98 m 1xbc
 700 0 l 1xbc
 674 0 622 0 570 -1 c 1
 545 -208 429 -350 226 -350 c 0
 182 -350 140 -343 83 -317 c 1
 83 -284 l 1
 144 -284 l 2
 196 -284 279 -276 355 -229 c 0
 446 -172 484 -83 496 -1 c 1
 457 -2 426 -2 415 -2 c 0xdc
 246 -2 191 65 191 166 c 0
 191 291 271 476 364 476 c 0
 426 476 482 396 518 320 c 0
 559 231 572 154 574 98 c 1
 700 98 l 1xbc
251 200 m 0
 251 98 306 98 445 98 c 2
 500 98 l 1
 488 244 408 379 349 383 c 0
 295 388 251 290 251 200 c 0
EndSplineSet
Validated: 33
Substitution2: "Single Substitution lookup 54 subtable" uniFEEE.wawAlef
Substitution2: "'aalt' Access All Alternates lookup 0 subtable" uniFEEE.wawAlef
EndChar

StartChar: uniFEEE.wawAlef
Encoding: 1114238 -1 188
Width: 700
GlyphClass: 2
Flags: MW
HStem: -350 66<-73 171.5> -2 100<174.5 344> 0 98<531 544 544 700> 383 93
VStem: 35 60<149 228.5> 344 74<98 98>
AnchorPoint: "Anchor-1" 240 680 basechar 0
AnchorPoint: "Anchor-0" 310 -430 basechar 0
LayerCount: 2
Fore
SplineSet
544 98 m 1xbc
 700 98 l 1
 700 0 l 1
 544 0 l 2xbc
 518 0 466 0 414 -1 c 1
 389 -208 273 -350 70 -350 c 0
 26 -350 -16 -343 -73 -317 c 1
 -73 -284 l 1
 -12 -284 l 2
 40 -284 123 -276 199 -229 c 0
 290 -172 328 -83 340 -1 c 1
 301 -2 270 -2 259 -2 c 0xdc
 90 -2 35 65 35 166 c 0
 35 291 115 476 208 476 c 0
 270 476 326 396 362 320 c 0
 403 231 416 154 418 98 c 1
 544 98 l 1xbc
95 200 m 0
 95 98 150 98 289 98 c 2
 344 98 l 1
 332 244 252 379 193 383 c 0
 139 388 95 290 95 200 c 0
EndSplineSet
Validated: 33
EndChar

StartChar: uni0624
Encoding: 1572 1572 189
Width: 700
GlyphClass: 2
Flags: MW
HStem: -350 66<106 358> 43 92<363 426 363 426.5> 420 86 861 52<315 331.5>
VStem: 214 65<207 268.5> 238 34<806.5 815> 531 63
AnchorPoint: "Anchor-1" 380 1080 basechar 0
AnchorPoint: "Anchor-0" 480 -400 basechar 0
LayerCount: 2
Fore
SplineSet
232 622 m 0xfa
 226 620 223 626 222 630 c 0
 219 640 217 646 217 651 c 0
 217 657 223 663 234 669 c 2
 290 702 l 1
 253 717 238 746 238 779 c 0
 238 851 282 913 348 913 c 0
 387 913 402 885 404 856 c 0
 406 843 398 836 392 836 c 0
 387 836 346 861 317 861 c 0
 281 861 272 848 272 821 c 0
 272 792 279 728 359 728 c 0xf6
 371 728 398 730 417 730 c 0
 435 730 449 731 456 718 c 2
 461 710 l 2
 466 701 453 693 442 691 c 0
 303 659 295 657 232 622 c 0xfa
398 506 m 0
 505 506 594 271 594 87 c 0
 594 -127 473 -350 243 -350 c 0
 212 -350 169 -346 106 -317 c 1
 106 -284 l 1
 167 -284 l 2
 204 -284 291 -280 375 -224 c 0
 494 -144 525 -16 531 54 c 1
 471 47 443 43 410 43 c 0
 273 43 214 116 214 210 c 0
 214 327 304 506 398 506 c 0
279 244 m 0
 279 170 314 135 412 135 c 0
 440 135 475 138 527 142 c 1
 508 257 445 416 372 420 c 0
 313 422 279 322 279 244 c 0
EndSplineSet
Validated: 33
Substitution2: "'fina' Terminal Forms lookup 31 subtable" uniFE86
Substitution2: "'aalt' Access All Alternates lookup 0 subtable" uniFE86
EndChar

StartChar: uniFE86
Encoding: 65158 65158 190
Width: 700
GlyphClass: 2
Flags: MW
HStem: -350 66<83 327.5> -2 100<330.5 500> 0 98<687 700> 383 93 841 52<295 311.5>
VStem: 191 60<149 228.5> 218 34<786.5 795> 500 74<98 98>
AnchorPoint: "Anchor-1" 350 1000 basechar 0
AnchorPoint: "Anchor-0" 470 -430 basechar 0
LayerCount: 2
Fore
SplineSet
212 602 m 0xbc
 206 600 203 606 202 610 c 0
 199 620 197 626 197 631 c 0
 197 637 203 643 214 649 c 2
 270 682 l 1
 233 697 218 726 218 759 c 0
 218 831 262 893 328 893 c 0
 367 893 382 865 384 836 c 0
 386 823 378 816 372 816 c 0
 367 816 326 841 297 841 c 0
 261 841 252 828 252 801 c 0
 252 772 259 708 339 708 c 0xba
 351 708 378 710 397 710 c 0
 415 710 429 711 436 698 c 2
 441 690 l 2
 446 681 433 673 422 671 c 0
 283 639 275 637 212 602 c 0xbc
700 98 m 1
 700 0 l 1xbc
 674 0 622 0 570 -1 c 1
 545 -208 429 -350 226 -350 c 0
 182 -350 140 -343 83 -317 c 1
 83 -284 l 1
 144 -284 l 2
 196 -284 279 -276 355 -229 c 0
 446 -172 484 -83 496 -1 c 1
 457 -2 426 -2 415 -2 c 0xdc
 246 -2 191 65 191 166 c 0
 191 291 271 476 364 476 c 0
 426 476 482 396 518 320 c 0
 559 231 572 154 574 98 c 1xbd
 700 98 l 1
251 200 m 0
 251 98 306 98 445 98 c 2
 500 98 l 1xbd
 488 244 408 379 349 383 c 0
 295 388 251 290 251 200 c 0
EndSplineSet
Validated: 33
Substitution2: "Single Substitution lookup 54 subtable" uniFE86.wawAlef
Substitution2: "'aalt' Access All Alternates lookup 0 subtable" uniFE86.wawAlef
EndChar

StartChar: uniFE86.wawAlef
Encoding: 1114239 -1 191
Width: 700
GlyphClass: 2
Flags: MW
HStem: -350 66<-73 171.5> -2 100<174.5 344> 0 98<531 544 544 700> 383 93 823 52<107 123.5>
VStem: 30 34<768.5 777> 35 60<149 228.5> 344 74<98 98>
AnchorPoint: "Anchor-1" 200 1000 basechar 0
AnchorPoint: "Anchor-0" 310 -430 basechar 0
LayerCount: 2
Fore
SplineSet
24 584 m 0xba
 18 582 15 588 14 592 c 0
 11 602 9 608 9 613 c 0
 9 619 15 625 26 631 c 2
 82 664 l 1
 45 679 30 708 30 741 c 0
 30 813 74 875 140 875 c 0
 179 875 194 847 196 818 c 0
 198 805 190 798 184 798 c 0
 179 798 138 823 109 823 c 0
 73 823 64 810 64 783 c 0
 64 754 71 690 151 690 c 0xbc
 163 690 190 692 209 692 c 0
 227 692 241 693 248 680 c 2
 253 672 l 2
 258 663 245 655 234 653 c 0
 95 621 87 619 24 584 c 0xba
544 98 m 1
 700 98 l 1
 700 0 l 1
 544 0 l 2xba
 518 0 466 0 414 -1 c 1
 389 -208 273 -350 70 -350 c 0
 26 -350 -16 -343 -73 -317 c 1
 -73 -284 l 1
 -12 -284 l 2
 40 -284 123 -276 199 -229 c 0
 290 -172 328 -83 340 -1 c 1
 301 -2 270 -2 259 -2 c 0xda
 90 -2 35 65 35 166 c 0
 35 291 115 476 208 476 c 0
 270 476 326 396 362 320 c 0
 403 231 416 154 418 98 c 1xbb
 544 98 l 1
95 200 m 0
 95 98 150 98 289 98 c 2
 344 98 l 1xbb
 332 244 252 379 193 383 c 0
 139 388 95 290 95 200 c 0
EndSplineSet
Validated: 33
EndChar

StartChar: uni0649
Encoding: 1609 1609 192
Width: 700
GlyphClass: 2
Flags: MW
HStem: -201 104<206.5 356.5 206.5 378.5> 455 90
VStem: 22 43<23 58.5> 340 46<267 338> 598 54<-22.5 66>
AnchorPoint: "Anchor-1" 395 800 basechar 0
AnchorPoint: "Anchor-0" 433 -270 basechar 0
LayerCount: 2
Fore
SplineSet
279 -201 m 0
 131 -201 22 -141 22 17 c 0
 22 100 52 204 86 257 c 1
 99 247 l 1
 77 189 65 137 65 91 c 0
 65 -45 124 -97 289 -97 c 0
 424 -97 598 -62 598 17 c 0
 598 115 340 109 340 294 c 0
 340 382 401 545 543 545 c 0
 597 545 634 521 665 476 c 1
 642 392 l 1
 598 439 547 462 491 455 c 0
 423 446 386 400 386 343 c 0
 386 191 652 205 652 40 c 0
 652 -93 478 -201 279 -201 c 0
EndSplineSet
Validated: 33
Substitution2: "'fina' Terminal Forms lookup 31 subtable" uniFEF0
Substitution2: "'aalt' Access All Alternates lookup 0 subtable" uniFEF0
EndChar

StartChar: uniFEF0
Encoding: 65264 65264 193
Width: 700
GlyphClass: 2
Flags: MW
HStem: -350 100<226 321.5> 0 98<673 701>
VStem: 36 46<-131 -46> 569 64<-180.5 -137.5 -199 -121.5>
AnchorPoint: "Anchor-1" 404 437 basechar 0
AnchorPoint: "Anchor-0" 480 -410 basechar 0
LayerCount: 2
Fore
SplineSet
279 -350 m 0
 122 -350 36 -276 36 -96 c 0
 36 4 62 104 146 202 c 1
 159 190 l 1
 103 94 82 28 82 -53 c 0
 82 -209 158 -250 294 -250 c 0
 414 -250 569 -216 569 -145 c 0
 569 -98 504 -46 476 -20 c 0
 445 8 425 28 388 59 c 1
 421 131 l 1
 508 110 615 98 701 98 c 1
 701 0 l 1
 645 0 577 3 513 28 c 1
 607 -44 633 -108 633 -167 c 0
 633 -231 604 -269 527 -301 c 0
 468 -325 364 -350 279 -350 c 0
EndSplineSet
Validated: 1
Substitution2: "Single Substitution lookup 54 subtable" uniFEF0.seenYeh
Substitution2: "'aalt' Access All Alternates lookup 0 subtable" uniFEF0.seenYeh
EndChar

StartChar: uniFEF0.seenYeh
Encoding: 1114240 -1 194
Width: 700
GlyphClass: 2
Flags: MW
HStem: -350 101<206.5 327.5> 230 84<609 700>
VStem: 24 40<-124.5 -45> 439.26 65.13 581 58<-172 -118>
AnchorPoint: "Anchor-1" 388 600 basechar 0
AnchorPoint: "Anchor-0" 480 -400 basechar 0
LayerCount: 2
Fore
SplineSet
276 -350 m 0
 104 -350 24 -276 24 -96 c 0
 24 6 50 110 134 208 c 1
 141 190 l 1
 84 93 64 26 64 -54 c 0
 64 -195 126 -249 287 -249 c 0
 413 -249 581 -208 581 -136 c 0
 581 -100 541 -57 494 -2 c 0
 446 53 403 164 486 263 c 0
 524 309 566 313 700 314 c 1
 700 230 l 1
 609 230 l 2
 544 230 516 221 507 189 c 0
 496 154 518 110 562 50 c 0
 610 -16 639 -58 639 -144 c 0
 639 -236 606 -275 532 -304 c 0
 485 -323 379 -350 276 -350 c 0
EndSplineSet
Validated: 33
EndChar

StartChar: uni064A
Encoding: 1610 1610 195
Width: 700
GlyphClass: 2
Flags: MW
HStem: -201 104<206.5 356.5 206.5 378.5> 455 90
VStem: 22 43<23 58.5> 340 46<267 338> 598 54<-22.5 66>
AnchorPoint: "Anchor-1" 413 800 basechar 0
AnchorPoint: "Anchor-0" 420 -540 basechar 0
LayerCount: 2
Fore
SplineSet
279 -201 m 0
 131 -201 22 -141 22 17 c 0
 22 100 52 204 86 257 c 1
 99 247 l 1
 77 189 65 137 65 91 c 0
 65 -45 124 -97 289 -97 c 0
 424 -97 598 -62 598 17 c 0
 598 115 340 109 340 294 c 0
 340 382 401 545 543 545 c 0
 597 545 634 521 665 476 c 1
 642 392 l 1
 598 439 547 462 491 455 c 0
 423 446 386 400 386 343 c 0
 386 191 652 205 652 40 c 0
 652 -93 478 -201 279 -201 c 0
431 -469 m 1
 361 -395 l 1
 428 -320 l 1
 497 -393 l 1
 431 -469 l 1
243 -472 m 1
 173 -398 l 1
 239 -323 l 1
 308 -395 l 1
 243 -472 l 1
EndSplineSet
Validated: 33
Substitution2: "'fina' Terminal Forms lookup 31 subtable" uniFEF2
Substitution2: "'medi' Medial Forms lookup 30 subtable" uniFEF4
Substitution2: "'init' Initial Forms lookup 29 subtable" uniFEF3
AlternateSubs2: "'aalt' Access All Alternates lookup 1 subtable" uniFEF3 uniFEF4 uniFEF2
EndChar

StartChar: uniFEF2
Encoding: 65266 65266 196
Width: 700
GlyphClass: 2
Flags: MW
HStem: -350 100<226 321.5> 0 98<673 701>
VStem: 36 46<-131 -46> 569 64<-180.5 -137.5 -199 -121.5>
AnchorPoint: "Anchor-1" 388 437 basechar 0
AnchorPoint: "Anchor-0" 390 -650 basechar 0
LayerCount: 2
Fore
SplineSet
279 -350 m 0
 122 -350 36 -276 36 -96 c 0
 36 4 62 104 146 202 c 1
 159 190 l 1
 103 94 82 28 82 -53 c 0
 82 -209 158 -250 294 -250 c 0
 414 -250 569 -216 569 -145 c 0
 569 -98 504 -46 476 -20 c 0
 445 8 425 28 388 59 c 1
 421 131 l 1
 508 110 615 98 701 98 c 1
 701 0 l 1
 645 0 577 3 513 28 c 1
 607 -44 633 -108 633 -167 c 0
 633 -231 604 -269 527 -301 c 0
 468 -325 364 -350 279 -350 c 0
485 -614 m 1
 415 -540 l 1
 482 -465 l 1
 551 -538 l 1
 485 -614 l 1
297 -617 m 1
 227 -543 l 1
 293 -468 l 1
 362 -540 l 1
 297 -617 l 1
EndSplineSet
Validated: 1
Substitution2: "Single Substitution lookup 54 subtable" uniFEF2.seenYeh
Substitution2: "'aalt' Access All Alternates lookup 0 subtable" uniFEF2.seenYeh
EndChar

StartChar: uniFEF2.seenYeh
Encoding: 1114241 -1 197
Width: 700
GlyphClass: 2
Flags: MW
HStem: -350 101<206.5 327.5> 230 84<609 700>
VStem: 24 40<-124.5 -45> 439.26 65.13 581 58<-172 -118>
AnchorPoint: "Anchor-1" 380 600 basechar 0
AnchorPoint: "Anchor-0" 420 -650 basechar 0
LayerCount: 2
Fore
SplineSet
276 -350 m 0
 104 -350 24 -276 24 -96 c 0
 24 6 50 110 134 208 c 1
 141 190 l 1
 84 93 64 26 64 -54 c 0
 64 -195 126 -249 287 -249 c 0
 413 -249 581 -208 581 -136 c 0
 581 -100 541 -57 494 -2 c 0
 446 53 403 164 486 263 c 0
 524 309 566 313 700 314 c 1
 700 230 l 1
 609 230 l 2
 544 230 516 221 507 189 c 0
 496 154 518 110 562 50 c 0
 610 -16 639 -58 639 -144 c 0
 639 -236 606 -275 532 -304 c 0
 485 -323 379 -350 276 -350 c 0
515 -614 m 1
 445 -540 l 1
 512 -465 l 1
 581 -538 l 1
 515 -614 l 1
327 -617 m 1
 257 -543 l 1
 323 -468 l 1
 392 -540 l 1
 327 -617 l 1
EndSplineSet
Validated: 33
EndChar

StartChar: uniFEF4
Encoding: 65268 65268 198
Width: 700
GlyphClass: 2
Flags: MW
HStem: 0 98<0 230 230 239 0 230 645 700>
VStem: 423 83<169 232>
AnchorPoint: "Anchor-1" 350 650 basechar 0
AnchorPoint: "Anchor-0" 420 -500 basechar 0
LayerCount: 2
Fore
SplineSet
700 98 m 1
 700 0 l 1
 555 0 491 33 452 164 c 1
 414 47 364 0 239 0 c 2
 0 0 l 1
 0 98 l 1
 230 98 l 2
 345 98 423 120 423 217 c 0
 423 247 419 283 413 323 c 1
 506 406 l 1
 504 358 504 200 506 169 c 0
 510 118 590 98 700 98 c 1
431 -329 m 1
 361 -255 l 1
 428 -180 l 1
 497 -253 l 1
 431 -329 l 1
243 -332 m 1
 173 -258 l 1
 239 -183 l 1
 308 -255 l 1
 243 -332 l 1
EndSplineSet
Validated: 33
EndChar

StartChar: uniFEF3
Encoding: 65267 65267 199
Width: 700
GlyphClass: 2
Flags: MW
HStem: 0 98<0 439 0 409>
VStem: 576 81<186 198.5>
AnchorPoint: "Anchor-1" 350 700 basechar 0
AnchorPoint: "Anchor-0" 380 -500 basechar 0
LayerCount: 2
Fore
SplineSet
0 0 m 1
 0 98 l 1
 439 98 l 2
 522 98 577 140 576 186 c 0
 576 211 557 307 536 379 c 1
 601 474 l 1
 619 417 657 282 657 213 c 0
 657 111 576 0 409 0 c 2
 0 0 l 1
431 -329 m 1
 361 -255 l 1
 428 -180 l 1
 497 -253 l 1
 431 -329 l 1
243 -332 m 1
 173 -258 l 1
 239 -183 l 1
 308 -255 l 1
 243 -332 l 1
EndSplineSet
Validated: 33
EndChar

StartChar: uni0626
Encoding: 1574 1574 200
Width: 700
GlyphClass: 2
Flags: MW
HStem: -201 104<206.5 356.5 206.5 378.5> 455 90 909 51<391 407>
VStem: 22 43<23 58.5> 316 33<856 865> 340 46<267 338> 598 54<-22.5 66>
AnchorPoint: "Anchor-1" 408 1100 basechar 0
AnchorPoint: "Anchor-0" 420 -300 basechar 0
LayerCount: 2
Fore
SplineSet
310 678 m 0xf6
 304 675 302 681 301 686 c 0
 298 695 296 700 296 706 c 0
 296 712 302 717 312 724 c 2
 367 755 l 1
 331 770 316 798 316 830 c 0
 316 900 359 960 423 960 c 0
 460 960 475 932 477 904 c 0
 479 892 472 885 465 885 c 0
 460 885 421 909 393 909 c 0
 358 909 349 896 349 870 c 0
 349 842 356 780 433 780 c 0xfa
 445 780 471 782 489 782 c 0
 507 782 520 783 527 771 c 2
 532 762 l 2
 537 754 524 747 514 744 c 0
 379 713 371 712 310 678 c 0xf6
279 -201 m 0
 131 -201 22 -141 22 17 c 0
 22 100 52 204 86 257 c 1
 99 247 l 1
 77 189 65 137 65 91 c 0
 65 -45 124 -97 289 -97 c 0
 424 -97 598 -62 598 17 c 0
 598 115 340 109 340 294 c 0
 340 382 401 545 543 545 c 0
 597 545 634 521 665 476 c 1
 642 392 l 1
 598 439 547 462 491 455 c 0
 423 446 386 400 386 343 c 0
 386 191 652 205 652 40 c 0
 652 -93 478 -201 279 -201 c 0
EndSplineSet
Validated: 33
Substitution2: "'fina' Terminal Forms lookup 31 subtable" uniFE8A
Substitution2: "'medi' Medial Forms lookup 30 subtable" uniFE8C
Substitution2: "'init' Initial Forms lookup 29 subtable" uniFE8B
AlternateSubs2: "'aalt' Access All Alternates lookup 1 subtable" uniFE8B uniFE8C uniFE8A
EndChar

StartChar: uniFE8A
Encoding: 65162 65162 201
Width: 700
GlyphClass: 2
Flags: MW
HStem: -350 100<226 321.5> 0 98<673 701> 640 51<360 376>
VStem: 36 46<-131 -46> 285 33<587 596> 569 64<-180.5 -137.5 -199 -121.5>
AnchorPoint: "Anchor-1" 350 880 basechar 0
AnchorPoint: "Anchor-0" 420 -440 basechar 0
LayerCount: 2
Fore
SplineSet
279 409 m 0
 273 406 271 412 270 417 c 0
 267 426 265 431 265 437 c 0
 265 443 271 448 281 455 c 2
 336 486 l 1
 300 501 285 529 285 561 c 0
 285 631 328 691 392 691 c 0
 429 691 444 663 446 635 c 0
 448 623 441 616 434 616 c 0
 429 616 390 640 362 640 c 0
 327 640 318 627 318 601 c 0
 318 573 325 511 402 511 c 0
 414 511 440 513 458 513 c 0
 476 513 489 514 496 502 c 2
 501 493 l 2
 506 485 493 478 483 475 c 0
 348 444 340 443 279 409 c 0
279 -350 m 0
 122 -350 36 -276 36 -96 c 0
 36 4 62 104 146 202 c 1
 159 190 l 1
 103 94 82 28 82 -53 c 0
 82 -209 158 -250 294 -250 c 0
 414 -250 569 -216 569 -145 c 0
 569 -98 504 -46 476 -20 c 0
 445 8 425 28 388 59 c 1
 421 131 l 1
 508 110 615 98 701 98 c 1
 701 0 l 1
 645 0 577 3 513 28 c 1
 607 -44 633 -108 633 -167 c 0
 633 -231 604 -269 527 -301 c 0
 468 -325 364 -350 279 -350 c 0
EndSplineSet
Validated: 33
Substitution2: "Single Substitution lookup 54 subtable" uniFE8A.seenYeh
Substitution2: "'aalt' Access All Alternates lookup 0 subtable" uniFE8A.seenYeh
EndChar

StartChar: uniFE8A.seenYeh
Encoding: 1114242 -1 202
Width: 700
GlyphClass: 2
Flags: MW
HStem: -350 101<206.5 327.5> 230 84<609 700> 714 51<360 376>
VStem: 24 40<-124.5 -45> 285 33<661 670> 439.26 65.13 581 58<-172 -118>
AnchorPoint: "Anchor-1" 350 940 basechar 0
AnchorPoint: "Anchor-0" 420 -440 basechar 0
LayerCount: 2
Fore
SplineSet
279 483 m 0
 273 480 271 486 270 491 c 0
 267 500 265 505 265 511 c 0
 265 517 271 522 281 529 c 2
 336 560 l 1
 300 575 285 603 285 635 c 0
 285 705 328 765 392 765 c 0
 429 765 444 737 446 709 c 0
 448 697 441 690 434 690 c 0
 429 690 390 714 362 714 c 0
 327 714 318 701 318 675 c 0
 318 647 325 585 402 585 c 0
 414 585 440 587 458 587 c 0
 476 587 489 588 496 576 c 2
 501 567 l 2
 506 559 493 552 483 549 c 0
 348 518 340 517 279 483 c 0
276 -350 m 0
 104 -350 24 -276 24 -96 c 0
 24 6 50 110 134 208 c 1
 141 190 l 1
 84 93 64 26 64 -54 c 0
 64 -195 126 -249 287 -249 c 0
 413 -249 581 -208 581 -136 c 0
 581 -100 541 -57 494 -2 c 0
 446 53 403 164 486 263 c 0
 524 309 566 313 700 314 c 1
 700 230 l 1
 609 230 l 2
 544 230 516 221 507 189 c 0
 496 154 518 110 562 50 c 0
 610 -16 639 -58 639 -144 c 0
 639 -236 606 -275 532 -304 c 0
 485 -323 379 -350 276 -350 c 0
EndSplineSet
Validated: 33
EndChar

StartChar: uniFE8C
Encoding: 65164 65164 203
Width: 700
GlyphClass: 2
Flags: MW
HStem: 0 98<0 230 230 239 0 230 645 700> 773 51<315 331>
VStem: 240 33<720 729> 423 83<169 232>
AnchorPoint: "Anchor-1" 350 980 basechar 0
AnchorPoint: "Anchor-0" 420 -110 basechar 0
LayerCount: 2
Fore
SplineSet
234 542 m 0
 228 539 226 545 225 550 c 0
 222 559 220 564 220 570 c 0
 220 576 226 581 236 588 c 2
 291 619 l 1
 255 634 240 662 240 694 c 0
 240 764 283 824 347 824 c 0
 384 824 399 796 401 768 c 0
 403 756 396 749 389 749 c 0
 384 749 345 773 317 773 c 0
 282 773 273 760 273 734 c 0
 273 706 280 644 357 644 c 0
 369 644 395 646 413 646 c 0
 431 646 444 647 451 635 c 2
 456 626 l 2
 461 618 448 611 438 608 c 0
 303 577 295 576 234 542 c 0
700 98 m 1
 700 0 l 1
 555 0 491 33 452 164 c 1
 414 47 364 0 239 0 c 2
 0 0 l 1
 0 98 l 1
 230 98 l 2
 345 98 423 120 423 217 c 0
 423 247 419 283 413 323 c 1
 506 406 l 1
 504 358 504 200 506 169 c 0
 510 118 590 98 700 98 c 1
EndSplineSet
Validated: 33
Substitution2: "Single Substitution lookup 54 subtable" yehHamzaaboveSeenLamAr.medi
Substitution2: "'aalt' Access All Alternates lookup 0 subtable" yehHamzaaboveSeenLamAr.medi
EndChar

StartChar: uniFE8B
Encoding: 65163 65163 204
Width: 700
GlyphClass: 2
Flags: MW
HStem: 0 98<0 439 0 409> 792 51<302 318>
VStem: 227 33<739 748> 576 81<186 198.5>
AnchorPoint: "Anchor-1" 350 980 basechar 0
AnchorPoint: "Anchor-0" 420 -110 basechar 0
LayerCount: 2
Fore
SplineSet
221 561 m 0
 215 558 213 564 212 569 c 0
 209 578 207 583 207 589 c 0
 207 595 213 600 223 607 c 2
 278 638 l 1
 242 653 227 681 227 713 c 0
 227 783 270 843 334 843 c 0
 371 843 386 815 388 787 c 0
 390 775 383 768 376 768 c 0
 371 768 332 792 304 792 c 0
 269 792 260 779 260 753 c 0
 260 725 267 663 344 663 c 0
 356 663 382 665 400 665 c 0
 418 665 431 666 438 654 c 2
 443 645 l 2
 448 637 435 630 425 627 c 0
 290 596 282 595 221 561 c 0
0 0 m 1
 0 98 l 1
 439 98 l 2
 522 98 577 140 576 186 c 0
 576 211 557 307 536 379 c 1
 601 474 l 1
 619 417 657 282 657 213 c 0
 657 111 576 0 409 0 c 2
 0 0 l 1
EndSplineSet
Validated: 33
EndChar

StartChar: uni06CC
Encoding: 1740 1740 205
Width: 700
GlyphClass: 2
Flags: MW
HStem: -201 104<206.5 356.5 206.5 378.5> 455 90
VStem: 22 43<23 58.5> 340 46<267 338> 598 54<-22.5 66>
AnchorPoint: "Anchor-1" 429 800 basechar 0
AnchorPoint: "Anchor-0" 420 -270 basechar 0
LayerCount: 2
Fore
SplineSet
279 -201 m 0
 131 -201 22 -141 22 17 c 0
 22 100 52 204 86 257 c 1
 99 247 l 1
 77 189 65 137 65 91 c 0
 65 -45 124 -97 289 -97 c 0
 424 -97 598 -62 598 17 c 0
 598 115 340 109 340 294 c 0
 340 382 401 545 543 545 c 0
 597 545 634 521 665 476 c 1
 642 392 l 1
 598 439 547 462 491 455 c 0
 423 446 386 400 386 343 c 0
 386 191 652 205 652 40 c 0
 652 -93 478 -201 279 -201 c 0
EndSplineSet
Validated: 33
Substitution2: "'fina' Terminal Forms lookup 31 subtable" uniFBFD
Substitution2: "'medi' Medial Forms lookup 30 subtable" uniFBFF
Substitution2: "'init' Initial Forms lookup 29 subtable" uniFBFE
AlternateSubs2: "'aalt' Access All Alternates lookup 1 subtable" uniFBFE uniFBFF uniFBFD
EndChar

StartChar: uniFBFD
Encoding: 64509 64509 206
Width: 700
GlyphClass: 2
Flags: MW
HStem: -350 100<226 321.5> 0 98<673 701>
VStem: 36 46<-131 -46> 569 64<-180.5 -137.5 -199 -121.5>
AnchorPoint: "Anchor-1" 391 437 basechar 0
AnchorPoint: "Anchor-0" 480 -410 basechar 0
LayerCount: 2
Fore
SplineSet
279 -350 m 0
 122 -350 36 -276 36 -96 c 0
 36 4 62 104 146 202 c 1
 159 190 l 1
 103 94 82 28 82 -53 c 0
 82 -209 158 -250 294 -250 c 0
 414 -250 569 -216 569 -145 c 0
 569 -98 504 -46 476 -20 c 0
 445 8 425 28 388 59 c 1
 421 131 l 1
 508 110 615 98 701 98 c 1
 701 0 l 1
 645 0 577 3 513 28 c 1
 607 -44 633 -108 633 -167 c 0
 633 -231 604 -269 527 -301 c 0
 468 -325 364 -350 279 -350 c 0
EndSplineSet
Validated: 1
Substitution2: "Single Substitution lookup 54 subtable" uniFBFD.seenYeh
Substitution2: "'aalt' Access All Alternates lookup 0 subtable" uniFBFD.seenYeh
EndChar

StartChar: uniFBFD.seenYeh
Encoding: 1114243 -1 207
Width: 700
GlyphClass: 2
Flags: MW
HStem: -350 101<206.5 327.5> 230 84<609 700>
VStem: 24 40<-124.5 -45> 439.26 65.13 581 58<-172 -118>
AnchorPoint: "Anchor-1" 388 600 basechar 0
AnchorPoint: "Anchor-0" 480 -400 basechar 0
LayerCount: 2
Fore
SplineSet
276 -350 m 0
 104 -350 24 -276 24 -96 c 0
 24 6 50 110 134 208 c 1
 141 190 l 1
 84 93 64 26 64 -54 c 0
 64 -195 126 -249 287 -249 c 0
 413 -249 581 -208 581 -136 c 0
 581 -100 541 -57 494 -2 c 0
 446 53 403 164 486 263 c 0
 524 309 566 313 700 314 c 1
 700 230 l 1
 609 230 l 2
 544 230 516 221 507 189 c 0
 496 154 518 110 562 50 c 0
 610 -16 639 -58 639 -144 c 0
 639 -236 606 -275 532 -304 c 0
 485 -323 379 -350 276 -350 c 0
EndSplineSet
Validated: 33
EndChar

StartChar: uniFBFF
Encoding: 64511 64511 208
Width: 700
GlyphClass: 2
Flags: MW
HStem: 0 98<0 230 230 239 0 230 645 700>
VStem: 423 83<169 232>
AnchorPoint: "Anchor-1" 350 700 basechar 0
AnchorPoint: "Anchor-0" 430 -430 basechar 0
LayerCount: 2
Fore
SplineSet
700 98 m 1
 700 0 l 1
 555 0 491 33 452 164 c 1
 414 47 364 0 239 0 c 2
 0 0 l 1
 0 98 l 1
 230 98 l 2
 345 98 423 120 423 217 c 0
 423 247 419 283 413 323 c 1
 506 406 l 1
 504 358 504 200 506 169 c 0
 510 118 590 98 700 98 c 1
431 -329 m 1
 361 -255 l 1
 428 -180 l 1
 497 -253 l 1
 431 -329 l 1
243 -332 m 1
 173 -258 l 1
 239 -183 l 1
 308 -255 l 1
 243 -332 l 1
EndSplineSet
Validated: 33
EndChar

StartChar: uniFBFE
Encoding: 64510 64510 209
Width: 700
GlyphClass: 2
Flags: MW
HStem: 0 98<0 439 0 409>
VStem: 576 81<186 198.5>
AnchorPoint: "Anchor-1" 350 700 basechar 0
AnchorPoint: "Anchor-0" 430 -430 basechar 0
LayerCount: 2
Fore
SplineSet
0 0 m 1
 0 98 l 1
 439 98 l 2
 522 98 577 140 576 186 c 0
 576 211 557 307 536 379 c 1
 601 474 l 1
 619 417 657 282 657 213 c 0
 657 111 576 0 409 0 c 2
 0 0 l 1
431 -329 m 1
 361 -255 l 1
 428 -180 l 1
 497 -253 l 1
 431 -329 l 1
243 -332 m 1
 173 -258 l 1
 239 -183 l 1
 308 -255 l 1
 243 -332 l 1
EndSplineSet
Validated: 33
EndChar

StartChar: uni06D2
Encoding: 1746 1746 210
Width: 700
GlyphClass: 2
Flags: MW
HStem: -178 99<280.5 390> 390 89<439.5 488>
VStem: 33 64<-23 43 -23 54.5>
AnchorPoint: "Anchor-1" 380 650 basechar 0
AnchorPoint: "Anchor-0" 420 -300 basechar 0
LayerCount: 2
Fore
SplineSet
344 -178 m 0
 188 -178 33 -149 33 -16 c 0
 33 125 206 187 313 224 c 0
 380 247 355 343 367 395 c 0
 374 441 407 479 452 479 c 0
 526 479 582 373 582 268 c 0
 582 240 580 221 568 221 c 0
 531 221 523 390 453 390 c 0
 426 390 421 365 418 338 c 0
 410 258 411 188 296 145 c 0
 254 130 97 81 97 5 c 0
 97 -51 186 -79 375 -79 c 0
 496 -79 600 -69 680 -57 c 1
 679 -119 l 1
 531 -167 436 -178 344 -178 c 0
EndSplineSet
Validated: 1
Substitution2: "'fina' Terminal Forms lookup 31 subtable" uniFBAF
Substitution2: "'aalt' Access All Alternates lookup 0 subtable" uniFBAF
EndChar

StartChar: uniFBAF
Encoding: 64431 64431 211
Width: 700
GlyphClass: 2
Flags: MW
HStem: -324 99<310 395.5> 0 98<355 700 455 700 455 700>
VStem: 28 68<-180.5 -137.5>
AnchorPoint: "Anchor-1" 380 350 basechar 0
AnchorPoint: "Anchor-0" 420 -450 basechar 0
LayerCount: 2
Fore
SplineSet
348 -324 m 0
 196 -324 28 -301 28 -170 c 0
 28 -105 70 -29 136 21 c 0
 226 87 344 98 455 98 c 2
 700 98 l 1
 700 0 l 1
 414 0 l 2
 296 0 227 -13 169 -52 c 0
 136 -74 96 -111 96 -146 c 0
 96 -215 240 -225 380 -225 c 0
 494 -225 601 -218 682 -209 c 1
 679 -271 l 1
 538 -314 443 -324 348 -324 c 0
EndSplineSet
Validated: 1
EndChar

StartChar: uni06D3
Encoding: 1747 1747 212
Width: 700
GlyphClass: 2
Flags: MW
HStem: -178 99<280.5 390> 390 89<439.5 488> 801 51<325 341>
VStem: 33 64<-23 43 -23 54.5> 250 33<748 757>
AnchorPoint: "Anchor-1" 360 1020 basechar 0
AnchorPoint: "Anchor-0" 420 -300 basechar 0
LayerCount: 2
Fore
SplineSet
244 570 m 0
 238 567 236 573 235 578 c 0
 232 587 230 592 230 598 c 0
 230 604 236 609 246 616 c 2
 301 647 l 1
 265 662 250 690 250 722 c 0
 250 792 293 852 357 852 c 0
 394 852 409 824 411 796 c 0
 413 784 406 777 399 777 c 0
 394 777 355 801 327 801 c 0
 292 801 283 788 283 762 c 0
 283 734 290 672 367 672 c 0
 379 672 405 674 423 674 c 0
 441 674 454 675 461 663 c 2
 466 654 l 2
 471 646 458 639 448 636 c 0
 313 605 305 604 244 570 c 0
344 -178 m 0
 188 -178 33 -149 33 -16 c 0
 33 125 206 187 313 224 c 0
 380 247 355 343 367 395 c 0
 374 441 407 479 452 479 c 0
 526 479 582 373 582 268 c 0
 582 240 580 221 568 221 c 0
 531 221 523 390 453 390 c 0
 426 390 421 365 418 338 c 0
 410 258 411 188 296 145 c 0
 254 130 97 81 97 5 c 0
 97 -51 186 -79 375 -79 c 0
 496 -79 600 -69 680 -57 c 1
 679 -119 l 1
 531 -167 436 -178 344 -178 c 0
EndSplineSet
Validated: 33
Substitution2: "'fina' Terminal Forms lookup 31 subtable" uniFBB1
Substitution2: "'aalt' Access All Alternates lookup 0 subtable" uniFBB1
EndChar

StartChar: uniFBB1
Encoding: 64433 64433 213
Width: 700
GlyphClass: 2
Flags: MW
HStem: -324 99<310 395.5> 0 98<355 700 455 700 455 700> 553 51<331 347>
VStem: 28 68<-180.5 -137.5> 256 33<500 509>
AnchorPoint: "Anchor-1" 350 800 basechar 0
AnchorPoint: "Anchor-0" 420 -450 basechar 0
LayerCount: 2
Fore
SplineSet
250 322 m 0
 244 319 242 325 241 330 c 0
 238 339 236 344 236 350 c 0
 236 356 242 361 252 368 c 2
 307 399 l 1
 271 414 256 442 256 474 c 0
 256 544 299 604 363 604 c 0
 400 604 415 576 417 548 c 0
 419 536 412 529 405 529 c 0
 400 529 361 553 333 553 c 0
 298 553 289 540 289 514 c 0
 289 486 296 424 373 424 c 0
 385 424 411 426 429 426 c 0
 447 426 460 427 467 415 c 2
 472 406 l 2
 477 398 464 391 454 388 c 0
 319 357 311 356 250 322 c 0
348 -324 m 0
 196 -324 28 -301 28 -170 c 0
 28 -105 70 -29 136 21 c 0
 226 87 344 98 455 98 c 2
 700 98 l 1
 700 0 l 1
 414 0 l 2
 296 0 227 -13 169 -52 c 0
 136 -74 96 -111 96 -146 c 0
 96 -215 240 -225 380 -225 c 0
 494 -225 601 -218 682 -209 c 1
 679 -271 l 1
 538 -314 443 -324 348 -324 c 0
EndSplineSet
Validated: 33
EndChar

StartChar: uni0640
Encoding: 1600 1600 214
Width: 700
GlyphClass: 2
Flags: MW
HStem: 0 98<0 700 0 700>
VStem: 0 700<0 98 0 98>
AnchorPoint: "Anchor-1" 350 530 basechar 0
AnchorPoint: "Anchor-0" 350 -110 basechar 0
LayerCount: 2
Fore
SplineSet
0 0 m 1
 0 98 l 1
 700 98 l 1
 700 0 l 1
 0 0 l 1
EndSplineSet
Validated: 1
EndChar

StartChar: uniFEFB
Encoding: 65275 65275 215
Width: 700
GlyphClass: 3
LigCaretCntFixed: 1
Flags: MW
HStem: 0 98<195.5 259 240 259 325 560> 595.63 173.97
VStem: 141 490.5
AnchorPoint: "Anchor-3" 612 -110 baselig 0
AnchorPoint: "Anchor-2" 580 1070 baselig 0
AnchorPoint: "Anchor-3" 175 -100 baselig 1
AnchorPoint: "Anchor-2" 170 1000 baselig 1
LayerCount: 2
Fore
SplineSet
623 97 m 0
 630 80 652 0 581 0 c 2
 211 0 l 2
 180 0 177 16 180 28 c 2
 192 71 l 2
 199 94 221 98 240 98 c 2
 259 98 l 1
 326 147 398 248 452 375 c 1
 396 478 333 561 271 611 c 1
 258 601 l 2
 240 592 228 595 218 603 c 2
 166 642 l 2
 148 655 138 682 141 703 c 1
 156 744 l 1
 158 767 189 777 203 764 c 2
 314 668 l 2
 351 635 417 562 481 454 c 1
 507 535 525 623 529 713 c 0
 532 770 527 815 535 852 c 0
 539 873 545 885 561 885 c 2
 578 885 l 2
 600 885 601 870 601 794 c 0
 601 646 565 512 513 395 c 1
 556 312 596 212 623 97 c 0
478 323 m 1
 432 237 378 161 325 98 c 1
 560 98 l 1
 538 178 510 254 478 323 c 1
EndSplineSet
Validated: 33
Ligature2: "'rlig' Required Ligatures lookup 32 subtable" uniFEDF uniFE8E
Substitution2: "'fina' Terminal Forms lookup 31 subtable" uniFEFC
Substitution2: "'aalt' Access All Alternates lookup 0 subtable" uniFEFC
LCarets2: 1 350
EndChar

StartChar: uniFEFC
Encoding: 65276 65276 216
Width: 700
GlyphClass: 3
LigCaretCntFixed: 1
Flags: MW
HStem: 0 98<667.5 700> 852 20G<582 582>
VStem: 538 44
AnchorPoint: "Anchor-3" 612 -110 baselig 0
AnchorPoint: "Anchor-2" 580 1010 baselig 0
AnchorPoint: "Anchor-3" 246 -200 baselig 1
AnchorPoint: "Anchor-2" 175 860 baselig 1
LayerCount: 2
Fore
SplineSet
582 281 m 2
 582 133 635 98 700 98 c 1
 700 0 l 1
 635 0 553 0 538 329 c 1
 515 80 445 16 353 -23 c 2
 311 -41 l 2
 255 -65 149 -95 78 -91 c 1
 78 -52 l 1
 163 -25 258 7 349 62 c 0
 355 66 362 70 368 75 c 1
 341 264 267 427 181 590 c 1
 250 679 l 1
 305 510 376 304 397 99 c 1
 452 148 489 208 496 253 c 1
 506 785 l 1
 582 872 l 1
 582 281 l 2
EndSplineSet
Validated: 33
Ligature2: "'rlig' Required Ligatures lookup 32 subtable" uniFEE0 uniFE8E
LCarets2: 1 350
EndChar

StartChar: uniFEF7
Encoding: 65271 65271 217
Width: 700
GlyphClass: 3
LigCaretCntFixed: 1
Flags: MW
HStem: 0 98<195.5 259 240 259 325 560> 595.63 173.97 1181 57<189.5 208>
VStem: 105 37<1120 1130.5>
AnchorPoint: "Anchor-3" 612 -110 baselig 0
AnchorPoint: "Anchor-2" 600 1070 baselig 0
AnchorPoint: "Anchor-3" 224 -138 baselig 1
AnchorPoint: "Anchor-2" 200 1420 baselig 1
LayerCount: 2
Fore
SplineSet
350 1014 m 2
 356 1004 341 996 330 994 c 0
 176 958 167 956 98 918 c 0
 91 915 89 922 87 927 c 0
 84 937 81 944 81 950 c 0
 81 956 89 963 100 970 c 2
 162 1005 l 1
 121 1023 105 1054 105 1091 c 0
 105 1170 153 1238 226 1238 c 0
 269 1238 285 1207 288 1175 c 0
 290 1161 281 1154 274 1154 c 0
 269 1154 224 1181 192 1181 c 0
 152 1181 142 1166 142 1136 c 0
 142 1104 149 1034 238 1034 c 0
 251 1034 280 1036 301 1036 c 0
 322 1036 337 1038 345 1023 c 2
 350 1014 l 2
623 97 m 0
 630 80 652 0 581 0 c 2
 211 0 l 2
 180 0 177 16 180 28 c 2
 192 71 l 2
 199 94 221 98 240 98 c 2
 259 98 l 1
 326 147 398 248 452 375 c 1
 396 478 333 561 271 611 c 1
 258 601 l 2
 240 592 228 595 218 603 c 2
 166 642 l 2
 148 655 138 682 141 703 c 1
 156 744 l 1
 158 767 189 777 203 764 c 2
 314 668 l 2
 351 635 417 562 481 454 c 1
 507 535 525 623 529 713 c 0
 532 770 527 815 535 852 c 0
 539 873 545 885 561 885 c 2
 578 885 l 2
 600 885 601 870 601 794 c 0
 601 646 565 512 513 395 c 1
 556 312 596 212 623 97 c 0
478 323 m 1
 432 237 378 161 325 98 c 1
 560 98 l 1
 538 178 510 254 478 323 c 1
EndSplineSet
Validated: 33
Ligature2: "'rlig' Required Ligatures lookup 32 subtable" uniFEDF uniFE84
Substitution2: "'fina' Terminal Forms lookup 31 subtable" uniFEF8
Substitution2: "'aalt' Access All Alternates lookup 0 subtable" uniFEF8
LCarets2: 1 350
EndChar

StartChar: uniFEF8
Encoding: 65272 65272 218
Width: 700
GlyphClass: 3
LigCaretCntFixed: 1
Flags: MW
HStem: 0 98<667.5 700> 852 20G<582 582> 1091 57<197.5 216>
VStem: 113 37<1030 1040.5> 538 44
AnchorPoint: "Anchor-3" 612 -110 baselig 0
AnchorPoint: "Anchor-2" 620 1033 baselig 0
AnchorPoint: "Anchor-3" 246 -200 baselig 1
AnchorPoint: "Anchor-2" 250 1340 baselig 1
LayerCount: 2
Fore
SplineSet
106 828 m 0
 99 825 97 832 95 837 c 0
 92 847 89 854 89 860 c 0
 89 866 97 873 108 880 c 2
 170 915 l 1
 129 933 113 964 113 1001 c 0
 113 1080 161 1148 234 1148 c 0
 277 1148 293 1117 296 1085 c 0
 298 1071 289 1064 282 1064 c 0
 277 1064 232 1091 200 1091 c 0
 160 1091 150 1076 150 1046 c 0
 150 1014 157 944 246 944 c 0
 259 944 288 946 309 946 c 0
 330 946 345 948 353 933 c 2
 358 924 l 2
 364 914 349 906 338 904 c 0
 184 868 175 866 106 828 c 0
582 281 m 2
 582 133 635 98 700 98 c 1
 700 0 l 1
 635 0 553 0 538 329 c 1
 515 80 445 16 353 -23 c 2
 311 -41 l 2
 255 -65 149 -95 78 -91 c 1
 78 -52 l 1
 163 -25 258 7 349 62 c 0
 355 66 362 70 368 75 c 1
 341 264 267 427 181 590 c 1
 250 679 l 1
 305 510 376 304 397 99 c 1
 452 148 489 208 496 253 c 1
 506 785 l 1
 582 872 l 1
 582 281 l 2
EndSplineSet
Validated: 33
Ligature2: "'rlig' Required Ligatures lookup 32 subtable" uniFEE0 uniFE84
LCarets2: 1 350
EndChar

StartChar: uniFEF9
Encoding: 65273 65273 219
Width: 700
GlyphClass: 3
LigCaretCntFixed: 1
Flags: MW
HStem: -232 63<429 449.5> 0 98<195.5 259 240 259 325 560> 595.63 173.97
VStem: 336 41<-298.5 -287.5>
AnchorPoint: "Anchor-3" 614 -621 baselig 0
AnchorPoint: "Anchor-2" 590 1070 baselig 0
AnchorPoint: "Anchor-3" 489 -630 baselig 1
AnchorPoint: "Anchor-2" 170 1000 baselig 1
LayerCount: 2
Fore
SplineSet
623 97 m 0
 630 80 652 0 581 0 c 2
 211 0 l 2
 180 0 177 16 180 28 c 2
 192 71 l 2
 199 94 221 98 240 98 c 2
 259 98 l 1
 326 147 398 248 452 375 c 1
 396 478 333 561 271 611 c 1
 258 601 l 2
 240 592 228 595 218 603 c 2
 166 642 l 2
 148 655 138 682 141 703 c 1
 156 744 l 1
 158 767 189 777 203 764 c 2
 314 668 l 2
 351 635 417 562 481 454 c 1
 507 535 525 623 529 713 c 0
 532 770 527 815 535 852 c 0
 539 873 545 885 561 885 c 2
 578 885 l 2
 600 885 601 870 601 794 c 0
 601 646 565 512 513 395 c 1
 556 312 596 212 623 97 c 0
478 323 m 1
 432 237 378 161 325 98 c 1
 560 98 l 1
 538 178 510 254 478 323 c 1
600 -405 m 2
 606 -415 l 2
 612 -426 597 -435 584 -438 c 0
 415 -477 405 -479 329 -521 c 0
 322 -524 319 -517 317 -512 c 0
 313 -500 310 -493 310 -486 c 0
 310 -479 318 -472 331 -464 c 2
 399 -425 l 1
 354 -406 336 -371 336 -331 c 0
 336 -244 389 -169 469 -169 c 0
 516 -169 534 -203 537 -238 c 0
 540 -254 530 -262 522 -262 c 0
 516 -262 467 -232 432 -232 c 0
 388 -232 377 -248 377 -281 c 0
 377 -316 385 -393 482 -393 c 0
 497 -393 529 -391 552 -391 c 0
 575 -391 591 -389 600 -405 c 2
EndSplineSet
Validated: 33
Ligature2: "'rlig' Required Ligatures lookup 32 subtable" uniFEDF uniFE88
Substitution2: "'fina' Terminal Forms lookup 31 subtable" uniFEFA
Substitution2: "'aalt' Access All Alternates lookup 0 subtable" uniFEFA
LCarets2: 1 350
EndChar

StartChar: uniFEFA
Encoding: 65274 65274 220
Width: 700
GlyphClass: 3
LigCaretCntFixed: 1
Flags: MW
HStem: -254 63<432 452.5> 0 98<667.5 700> 852 20G<582 582>
VStem: 339 41<-320.5 -309.5> 538 44
AnchorPoint: "Anchor-3" 669 -528 baselig 0
AnchorPoint: "Anchor-2" 620 1033 baselig 0
AnchorPoint: "Anchor-3" 491 -630 baselig 1
AnchorPoint: "Anchor-2" 175 860 baselig 1
LayerCount: 2
Fore
SplineSet
582 281 m 2
 582 133 635 98 700 98 c 1
 700 0 l 1
 635 0 553 0 538 329 c 1
 515 80 445 16 353 -23 c 2
 311 -41 l 2
 255 -65 149 -95 78 -91 c 1
 78 -52 l 1
 163 -25 258 7 349 62 c 0
 355 66 362 70 368 75 c 1
 341 264 267 427 181 590 c 1
 250 679 l 1
 305 510 376 304 397 99 c 1
 452 148 489 208 496 253 c 1
 506 785 l 1
 582 872 l 1
 582 281 l 2
603 -427 m 2
 609 -437 l 2
 615 -448 600 -457 587 -460 c 0
 418 -499 408 -501 332 -543 c 0
 325 -546 322 -539 320 -534 c 0
 316 -522 313 -515 313 -508 c 0
 313 -501 321 -494 334 -486 c 2
 402 -447 l 1
 357 -428 339 -393 339 -353 c 0
 339 -266 392 -191 472 -191 c 0
 519 -191 537 -225 540 -260 c 0
 543 -276 533 -284 525 -284 c 0
 519 -284 470 -254 435 -254 c 0
 391 -254 380 -270 380 -303 c 0
 380 -338 388 -415 485 -415 c 0
 500 -415 532 -413 555 -413 c 0
 578 -413 594 -411 603 -427 c 2
EndSplineSet
Validated: 33
Ligature2: "'rlig' Required Ligatures lookup 32 subtable" uniFEE0 uniFE88
LCarets2: 1 350
EndChar

StartChar: uniFEF5
Encoding: 65269 65269 221
Width: 700
GlyphClass: 3
LigCaretCntFixed: 1
Flags: MW
HStem: 0 98<195.5 259 240 259 325 560> 595.63 173.97 921 69<264 308.5 251 323.5>
VStem: 39 592.5
AnchorPoint: "Anchor-3" 612 -110 baselig 0
AnchorPoint: "Anchor-2" 630 1070 baselig 0
AnchorPoint: "Anchor-3" 224 -138 baselig 1
AnchorPoint: "Anchor-2" 220 1220 baselig 1
LayerCount: 2
Fore
SplineSet
294 921 m 0
 234 921 169 967 138 1022 c 1
 112 1009 89 968 65 904 c 1
 39 934 l 1
 64 1019 117 1055 156 1055 c 0
 200 1055 211 990 291 990 c 0
 326 990 366 1004 462 1052 c 1
 480 1052 487 1019 459 989 c 0
 436 964 353 921 294 921 c 0
623 97 m 0
 630 80 652 0 581 0 c 2
 211 0 l 2
 180 0 177 16 180 28 c 2
 192 71 l 2
 199 94 221 98 240 98 c 2
 259 98 l 1
 326 147 398 248 452 375 c 1
 396 478 333 561 271 611 c 1
 258 601 l 2
 240 592 228 595 218 603 c 2
 166 642 l 2
 148 655 138 682 141 703 c 1
 156 744 l 1
 158 767 189 777 203 764 c 2
 314 668 l 2
 351 635 417 562 481 454 c 1
 507 535 525 623 529 713 c 0
 532 770 527 815 535 852 c 0
 539 873 545 885 561 885 c 2
 578 885 l 2
 600 885 601 870 601 794 c 0
 601 646 565 512 513 395 c 1
 556 312 596 212 623 97 c 0
478 323 m 1
 432 237 378 161 325 98 c 1
 560 98 l 1
 538 178 510 254 478 323 c 1
EndSplineSet
Validated: 33
Ligature2: "'rlig' Required Ligatures lookup 32 subtable" uniFEDF uniFE82
Substitution2: "'fina' Terminal Forms lookup 31 subtable" uniFEF6
Substitution2: "'aalt' Access All Alternates lookup 0 subtable" uniFEF6
LCarets2: 1 350
EndChar

StartChar: uniFEF6
Encoding: 65270 65270 222
Width: 700
GlyphClass: 3
LigCaretCntFixed: 1
Flags: MW
HStem: 0 98<667.5 700> 803 69<258 302.5 245 317.5>
VStem: 538 44
AnchorPoint: "Anchor-3" 612 -110 baselig 0
AnchorPoint: "Anchor-2" 620 1033 baselig 0
AnchorPoint: "Anchor-3" 246 -200 baselig 1
AnchorPoint: "Anchor-2" 210 1094 baselig 1
LayerCount: 2
Fore
SplineSet
132 904 m 1
 106 891 83 850 59 786 c 1
 33 816 l 1
 58 901 111 937 150 937 c 0
 194 937 205 872 285 872 c 0
 320 872 360 886 456 934 c 1
 474 934 481 901 453 871 c 0
 430 846 347 803 288 803 c 0
 228 803 163 849 132 904 c 1
582 281 m 2
 582 133 635 98 700 98 c 1
 700 0 l 1
 635 0 553 0 538 329 c 1
 515 80 445 16 353 -23 c 2
 311 -41 l 2
 255 -65 149 -95 78 -91 c 1
 78 -52 l 1
 163 -25 258 7 349 62 c 0
 355 66 362 70 368 75 c 1
 341 264 267 427 181 590 c 1
 250 679 l 1
 305 510 376 304 397 99 c 1
 452 148 489 208 496 253 c 1
 506 785 l 1
 582 872 l 1
 582 281 l 2
EndSplineSet
Validated: 33
Ligature2: "'rlig' Required Ligatures lookup 32 subtable" uniFEE0 uniFE82
LCarets2: 1 350
EndChar

